<?xml version="1.0" standalone="no"?>
<!DOCTYPE svg PUBLIC "-//W3C//DTD SVG 20010904//EN"
 "http://www.w3.org/TR/2001/REC-SVG-20010904/DTD/svg10.dtd">
<svg version="1.0" xmlns="http://www.w3.org/2000/svg"
 width="395.000000pt" height="876.000000pt" viewBox="0 0 395.000000 876.000000"
 preserveAspectRatio="xMidYMid meet">

<g transform="translate(0.000000,876.000000) scale(0.100000,-0.100000)"
fill="#000000" stroke="none">
<path d="M1880 8660 c-9 -6 -53 -7 -111 -4 -108 7 -111 7 -207 -71 l-61 -50
-83 -1 c-134 -1 -149 -7 -235 -90 -50 -48 -90 -78 -113 -84 -34 -9 -89 -55
-159 -133 -34 -38 -136 -93 -194 -104 -57 -11 -89 -31 -186 -118 -85 -77 -113
-111 -146 -180 -18 -39 -46 -79 -62 -90 -68 -49 -123 -124 -123 -169 0 -18 -9
-38 -25 -52 -20 -19 -25 -33 -25 -74 0 -31 -7 -61 -17 -77 -19 -28 -30 -88
-39 -205 -8 -95 -1 -131 25 -123 25 8 32 -21 24 -102 -4 -39 1 -105 11 -176
29 -188 77 -478 91 -552 7 -38 19 -101 25 -140 7 -38 23 -103 36 -144 13 -40
24 -81 24 -90 0 -9 10 -36 21 -61 11 -25 26 -76 34 -115 16 -81 71 -286 155
-570 32 -110 88 -315 125 -455 85 -331 88 -344 136 -550 55 -243 84 -351 97
-377 7 -12 12 -38 12 -57 0 -19 8 -57 19 -83 10 -26 21 -70 25 -98 4 -27 16
-83 27 -123 10 -40 19 -82 19 -95 0 -20 9 -66 46 -224 14 -62 24 -130 66 -463
21 -158 23 -215 22 -595 -1 -239 -6 -470 -13 -535 -24 -241 -33 -308 -53 -404
-26 -125 -21 -213 15 -288 14 -29 30 -72 37 -95 6 -24 14 -43 19 -43 4 0 32
-36 62 -80 58 -86 74 -100 212 -175 66 -35 91 -45 100 -36 19 19 46 12 74 -19
14 -17 35 -30 45 -30 10 0 64 -11 121 -24 92 -22 288 -45 327 -38 8 2 60 5
115 8 76 4 103 9 112 21 11 14 15 14 45 0 34 -16 44 -15 183 13 33 7 89 23
125 36 36 13 83 24 105 24 44 0 65 6 170 45 39 14 84 30 101 36 40 12 111 48
151 77 17 12 34 22 38 22 3 0 31 16 61 35 30 19 58 35 63 35 10 0 85 74 123
121 16 19 39 48 53 64 33 39 65 142 72 231 7 90 -13 181 -73 346 -97 263 -248
886 -283 1163 -48 381 -61 551 -61 805 0 371 31 705 111 1220 11 69 28 184 39
255 21 133 60 349 85 465 8 36 28 133 45 215 17 83 44 211 60 285 16 75 34
167 39 206 6 39 22 107 35 150 13 43 39 125 56 181 35 113 36 129 45 818 2
132 8 267 15 300 19 100 29 302 19 389 -14 128 -25 200 -38 237 -6 19 -18 63
-26 99 -18 76 -68 177 -124 253 -50 68 -86 97 -121 97 -19 0 -35 10 -52 33
-27 34 -100 67 -153 67 -16 1 -38 7 -49 15 -20 15 -135 11 -169 -7 -13 -7 -28
-3 -54 12 -19 11 -56 23 -82 26 -25 3 -55 9 -66 14 -18 8 -116 22 -140 21 -5
0 -44 -8 -85 -17 -57 -12 -120 -16 -260 -14 -167 2 -187 4 -213 22 -57 40
-180 62 -217 38z m-1201 -3648 c13 -46 20 -86 18 -88 -5 -6 -57 154 -57 176 0
32 18 -9 39 -88z m65 -168 c4 -19 3 -42 -3 -52 -8 -15 -11 -14 -20 11 -6 16
-11 41 -11 57 0 41 26 29 34 -16z m28 -156 c8 -13 18 -49 22 -81 3 -32 13 -68
20 -80 13 -20 27 -73 82 -318 9 -36 14 -83 12 -105 -3 -35 -5 -32 -21 41 -9
44 -26 107 -36 140 -11 33 -29 107 -41 165 -11 58 -29 130 -40 160 -10 30 -21
80 -24 110 -4 40 -3 46 3 23 5 -18 15 -43 23 -55z m435 -1895 c-3 -10 -5 -4
-5 12 0 17 2 24 5 18 2 -7 2 -21 0 -30z m10 -100 c-3 -10 -5 -4 -5 12 0 17 2
24 5 18 2 -7 2 -21 0 -30z"/>
</g>
</svg>
