<?xml version="1.0" standalone="no"?>
<!DOCTYPE svg PUBLIC "-//W3C//DTD SVG 20010904//EN"
 "http://www.w3.org/TR/2001/REC-SVG-20010904/DTD/svg10.dtd">
<svg version="1.0" xmlns="http://www.w3.org/2000/svg"
 width="1026.000000pt" height="1024.000000pt" viewBox="0 0 1026.000000 1024.000000"
 preserveAspectRatio="xMidYMid meet">

<g transform="translate(0.000000,1024.000000) scale(0.100000,-0.100000)"
fill="#000000" stroke="none">
<path d="M9270 5746 c0 -21 21 -31 30 -15 5 7 6 17 4 21 -9 14 -34 9 -34 -6z"/>
<path d="M9370 5481 c0 -24 25 -34 40 -16 15 18 5 35 -21 35 -12 0 -19 -7 -19
-19z"/>
<path d="M9384 5295 c-8 -21 2 -45 19 -45 8 0 20 7 27 15 10 12 10 18 0 30 -7
8 -19 15 -27 15 -7 0 -16 -7 -19 -15z"/>
<path d="M9512 5178 c-16 -16 -15 -33 3 -48 20 -17 47 5 43 34 -4 24 -28 32
-46 14z"/>
<path d="M9422 5018 c-18 -18 -14 -46 7 -58 15 -7 23 -6 35 6 19 18 19 20 6
45 -12 22 -30 25 -48 7z"/>
<path d="M9562 4958 c-25 -25 -6 -68 30 -68 26 0 45 44 28 65 -15 18 -41 20
-58 3z"/>
<path d="M9423 4799 c-27 -10 -30 -41 -7 -60 20 -16 48 -1 52 28 4 27 -18 43
-45 32z"/>
<path d="M9590 4756 c-27 -33 18 -72 48 -42 13 13 14 20 6 34 -15 23 -38 26
-54 8z"/>
<path d="M9404 4566 c-15 -40 21 -80 54 -60 37 24 21 74 -25 74 -13 0 -26 -6
-29 -14z"/>
<path d="M9624 4572 c-34 -23 -20 -82 19 -82 29 0 47 18 47 45 0 36 -37 57
-66 37z"/>
<path d="M9476 4364 c-9 -8 -16 -19 -16 -24 0 -10 29 -40 39 -40 29 0 42 64
15 74 -21 8 -20 8 -38 -10z"/>
<path d="M9620 4335 c-26 -32 13 -81 48 -59 34 22 22 74 -18 74 -10 0 -23 -7
-30 -15z"/>
<path d="M9300 4325 c-17 -20 -5 -62 20 -70 44 -14 80 41 48 73 -17 17 -53 15
-68 -3z"/>
<path d="M9628 4135 c-10 -22 -9 -29 10 -47 18 -19 25 -20 47 -10 16 8 25 20
25 35 0 50 -62 66 -82 22z"/>
<path d="M9442 4124 c-30 -21 -29 -59 3 -80 23 -15 27 -15 50 0 32 21 33 59 3
80 -12 9 -25 16 -28 16 -3 0 -16 -7 -28 -16z"/>
<path d="M9218 4024 c-17 -36 0 -59 42 -59 42 0 59 23 42 59 -9 20 -19 26 -42
26 -23 0 -33 -6 -42 -26z"/>
<path d="M9612 3898 c-29 -29 -5 -88 36 -88 35 0 52 16 52 50 0 14 -5 31 -12
38 -7 7 -24 12 -38 12 -14 0 -31 -5 -38 -12z"/>
<path d="M9398 3839 c-25 -14 -23 -65 3 -79 32 -18 62 -8 73 23 18 50 -30 84
-76 56z"/>
<path d="M9170 3689 c-17 -31 -9 -63 18 -67 29 -4 52 14 52 42 0 45 -50 63
-70 25z"/>
<path d="M9532 3564 c-32 -22 -30 -69 4 -91 24 -15 29 -15 53 -2 36 20 41 71
9 93 -28 20 -38 20 -66 0z"/>
<path d="M9342 3519 c-52 -19 -49 -102 3 -115 59 -15 104 41 72 90 -18 28 -44
36 -75 25z"/>
<path d="M9000 3440 c-28 -28 -25 -64 6 -89 15 -12 32 -21 39 -21 24 0 65 41
65 66 0 31 -33 64 -65 64 -14 0 -34 -9 -45 -20z"/>
<path d="M9445 3295 c-36 -35 -35 -96 1 -124 71 -56 161 17 128 104 -8 19 -55
45 -84 45 -11 0 -32 -11 -45 -25z"/>
<path d="M9175 3205 c-38 -37 -35 -95 6 -130 38 -31 81 -27 117 11 72 80 -47
195 -123 119z"/>
<path d="M8815 3155 c-30 -30 -31 -54 -4 -89 40 -50 119 -21 119 44 0 64 -70
91 -115 45z"/>
<path d="M4027 3032 c-20 -20 -27 -39 -27 -66 0 -48 13 -72 50 -91 44 -23 78
-19 111 14 24 24 29 38 29 76 0 37 -5 51 -26 70 -39 36 -101 35 -137 -3z"/>
<path d="M9292 2917 c-30 -32 -29 -81 3 -112 60 -61 158 6 125 85 -23 55 -89
68 -128 27z"/>
<path d="M4521 2917 c-79 -46 -61 -167 26 -183 102 -19 160 101 83 171 -24 22
-80 28 -109 12z"/>
<path d="M8882 2887 c-49 -52 -15 -127 57 -127 46 0 71 26 71 75 0 17 -7 41
-16 53 -21 31 -83 31 -112 -1z"/>
<path d="M8474 2888 c-47 -22 -57 -95 -19 -133 53 -54 149 -15 149 60 0 65
-68 103 -130 73z"/>
<path d="M9064 2661 c-98 -44 -97 -196 1 -237 49 -20 87 -17 126 9 88 58 86
173 -4 227 -40 25 -70 25 -123 1z"/>
<path d="M8709 2645 c-38 -20 -60 -60 -62 -110 -2 -52 22 -90 74 -119 67 -37
158 7 179 85 14 52 -14 120 -59 143 -37 20 -97 20 -132 1z"/>
<path d="M5405 2611 c-26 -11 -51 -40 -64 -74 -16 -41 11 -101 54 -121 41 -20
58 -20 95 -1 40 20 60 53 60 95 0 75 -77 128 -145 101z"/>
<path d="M8031 2586 c-48 -26 -64 -91 -37 -145 26 -49 91 -65 147 -36 34 18
49 50 49 102 0 72 -91 117 -159 79z"/>
<path d="M4703 2559 c-49 -14 -83 -62 -83 -115 0 -25 7 -58 15 -73 16 -32 69
-61 112 -61 61 0 123 66 123 131 0 31 -30 89 -54 104 -30 19 -76 25 -113 14z"/>
<path d="M4213 2547 c-89 -50 -90 -187 -2 -233 59 -30 139 -11 174 43 40 60
16 156 -46 189 -34 17 -96 18 -126 1z"/>
<path d="M6039 2522 c-56 -50 -39 -143 31 -172 71 -29 145 22 145 101 0 34 -6
46 -33 70 -44 40 -99 40 -143 1z"/>
<path d="M7253 2515 c-78 -33 -83 -159 -8 -193 100 -46 190 50 140 148 -25 48
-81 67 -132 45z"/>
<path d="M6705 2486 c-49 -22 -70 -53 -70 -103 0 -38 5 -49 33 -74 47 -43 102
-41 148 5 22 22 34 44 34 61 0 44 -29 92 -65 109 -39 19 -41 19 -80 2z"/>
<path d="M8395 2461 c-51 -31 -68 -58 -73 -114 -3 -42 1 -58 20 -87 61 -91
182 -89 238 3 73 119 -69 270 -185 198z"/>
<path d="M8791 2292 c-38 -20 -71 -73 -71 -112 0 -31 32 -84 62 -104 73 -46
181 1 194 85 12 71 -52 149 -122 149 -16 0 -45 -8 -63 -18z"/>
<path d="M5184 2290 c-41 -16 -74 -68 -74 -117 0 -81 51 -133 130 -133 80 0
130 52 130 135 0 42 -5 52 -39 86 -33 34 -45 39 -82 38 -24 0 -53 -4 -65 -9z"/>
<path d="M7946 2260 c-60 -18 -106 -83 -106 -150 0 -117 119 -191 224 -140
119 57 120 222 2 279 -45 22 -73 25 -120 11z"/>
<path d="M5787 2245 c-102 -36 -145 -142 -97 -239 29 -60 80 -91 149 -90 103
0 162 54 169 154 6 87 -41 157 -123 179 -49 13 -51 13 -98 -4z"/>
<path d="M6365 2216 c-42 -18 -82 -68 -95 -116 -19 -70 19 -164 78 -194 123
-63 263 18 262 151 -1 53 -31 116 -71 143 -40 29 -129 37 -174 16z"/>
<path d="M7425 2181 c-48 -22 -69 -44 -90 -94 -20 -48 -19 -93 4 -143 22 -48
61 -79 122 -95 37 -9 51 -8 93 7 146 56 156 253 15 324 -48 25 -92 25 -144 1z"/>
<path d="M6946 2172 c-130 -16 -193 -194 -103 -290 112 -120 307 -45 307 118
0 103 -97 185 -204 172z"/>
<path d="M4650 2093 c-23 -8 -70 -55 -86 -85 -57 -109 58 -240 181 -207 104
28 144 140 85 237 -31 50 -119 77 -180 55z"/>
<path d="M8392 2013 c-18 -9 -45 -32 -60 -51 -23 -31 -27 -45 -27 -106 0 -85
24 -127 89 -157 52 -24 90 -23 142 0 135 61 136 248 3 317 -37 19 -106 18
-147 -3z"/>
<path d="M5099 1863 c-71 -37 -111 -93 -117 -167 -6 -72 12 -120 62 -170 137
-137 365 -45 366 148 0 95 -66 183 -156 205 -66 17 -96 13 -155 -16z"/>
<path d="M7886 1770 c-180 -54 -208 -304 -44 -388 194 -100 391 112 280 300
-43 73 -151 113 -236 88z"/>
<path d="M6393 1740 c-93 -19 -182 -89 -229 -182 -39 -76 -45 -190 -14 -272
26 -67 92 -142 157 -175 88 -44 218 -45 308 -1 54 26 130 106 158 168 30 65
30 196 -1 264 -42 94 -128 167 -229 193 -62 16 -87 17 -150 5z"/>
<path d="M5687 1726 c-144 -39 -229 -216 -167 -348 95 -203 371 -204 466 -3
65 137 -13 307 -160 350 -59 18 -76 18 -139 1z"/>
<path d="M7200 1701 c-189 -79 -245 -321 -111 -474 81 -92 230 -119 343 -64
105 52 162 143 162 262 0 115 -58 211 -157 262 -68 34 -174 41 -237 14z"/>
</g>
</svg>
