<?xml version="1.0" standalone="no"?>
<!DOCTYPE svg PUBLIC "-//W3C//DTD SVG 20010904//EN"
 "http://www.w3.org/TR/2001/REC-SVG-20010904/DTD/svg10.dtd">
<svg version="1.0" xmlns="http://www.w3.org/2000/svg"
 width="601.000000pt" height="494.000000pt" viewBox="0 0 601.000000 494.000000"
 preserveAspectRatio="xMidYMid meet">

<g transform="translate(0.000000,494.000000) scale(0.100000,-0.100000)"
fill="#000000" stroke="none">
<path d="M5440 4666 c0 -21 21 -31 30 -15 5 7 6 17 4 21 -9 14 -34 9 -34 -6z"/>
<path d="M5540 4401 c0 -11 4 -22 9 -25 12 -8 34 21 26 34 -11 17 -35 11 -35
-9z"/>
<path d="M5544 4225 c-8 -21 2 -45 19 -45 8 0 20 7 27 15 10 12 10 18 0 30 -7
8 -19 15 -27 15 -7 0 -16 -7 -19 -15z"/>
<path d="M5672 4108 c-16 -16 -15 -33 2 -47 10 -9 16 -8 25 3 25 29 -1 70 -27
44z"/>
<path d="M5582 3948 c-18 -18 -14 -46 7 -58 15 -7 23 -6 35 6 19 18 19 20 6
45 -12 22 -30 25 -48 7z"/>
<path d="M5712 3888 c-25 -25 -6 -68 30 -68 26 0 45 44 28 65 -15 18 -41 20
-58 3z"/>
<path d="M5583 3739 c-27 -10 -30 -41 -7 -60 20 -16 48 -1 52 28 4 27 -18 43
-45 32z"/>
<path d="M5740 3696 c-27 -33 18 -72 48 -42 13 13 14 20 6 34 -15 23 -38 26
-54 8z"/>
<path d="M5564 3506 c-15 -40 21 -80 54 -60 37 24 21 74 -25 74 -13 0 -26 -6
-29 -14z"/>
<path d="M5774 3512 c-18 -12 -24 -42 -14 -63 20 -36 70 -17 70 26 0 35 -30
55 -56 37z"/>
<path d="M5636 3315 c-9 -9 -16 -20 -16 -25 0 -14 32 -41 44 -37 6 2 11 19 11
37 0 38 -15 48 -39 25z"/>
<path d="M5770 3285 c-26 -31 13 -82 44 -56 19 16 21 42 4 59 -16 16 -33 15
-48 -3z"/>
<path d="M5471 3276 c-17 -20 -6 -63 18 -71 35 -11 52 5 49 44 -3 30 -7 36
-29 39 -14 2 -31 -4 -38 -12z"/>
<path d="M5778 3085 c-10 -22 -9 -29 9 -46 17 -17 24 -19 42 -10 12 7 21 22
21 34 0 49 -53 64 -72 22z"/>
<path d="M5602 3074 c-30 -21 -29 -59 3 -80 23 -15 27 -15 50 0 32 21 33 59 3
80 -12 9 -25 16 -28 16 -3 0 -16 -7 -28 -16z"/>
<path d="M5398 2976 c-16 -37 -4 -56 37 -56 41 0 53 19 37 56 -8 16 -20 24
-37 24 -17 0 -29 -8 -37 -24z"/>
<path d="M5762 2858 c-27 -27 -5 -88 31 -88 30 0 47 18 47 50 0 31 -17 50 -45
50 -12 0 -26 -5 -33 -12z"/>
<path d="M5558 2799 c-25 -14 -23 -65 3 -79 32 -18 62 -8 73 23 18 50 -30 84
-76 56z"/>
<path d="M5350 2650 c-6 -12 -10 -31 -8 -43 2 -17 10 -22 33 -22 28 0 30 2 30
40 0 33 -4 41 -22 43 -14 2 -26 -4 -33 -18z"/>
<path d="M5686 2524 c-29 -29 -10 -94 27 -94 25 0 57 32 57 55 0 23 -32 55
-57 55 -6 0 -19 -7 -27 -16z"/>
<path d="M5508 2478 c-32 -11 -42 -36 -29 -71 18 -47 91 -45 106 3 15 48 -27
85 -77 68z"/>
<path d="M5190 2410 c-28 -28 -25 -64 6 -89 34 -26 49 -26 75 0 17 17 20 29
15 57 -3 19 -11 39 -18 44 -23 14 -57 9 -78 -12z"/>
<path d="M5605 2265 c-36 -35 -35 -96 1 -124 35 -28 69 -26 99 4 35 34 34 88
-1 120 -34 32 -68 32 -99 0z"/>
<path d="M5355 2175 c-38 -37 -35 -95 6 -129 36 -31 72 -27 107 11 70 76 -40
192 -113 118z"/>
<path d="M5028 2140 c-22 -13 -31 -60 -19 -93 9 -24 16 -27 55 -27 35 0 48 5
56 19 35 67 -29 137 -92 101z"/>
<path d="M568 2010 c-23 -18 -28 -29 -28 -67 0 -37 5 -50 31 -74 41 -38 81
-38 120 0 23 24 29 38 29 73 0 61 -17 80 -76 85 -40 4 -54 1 -76 -17z"/>
<path d="M5462 1897 c-30 -32 -29 -81 3 -112 29 -30 64 -32 93 -5 30 28 36 62
18 98 -25 48 -78 57 -114 19z"/>
<path d="M1024 1899 c-22 -11 -44 -60 -44 -98 0 -43 28 -80 66 -87 48 -9 82 9
100 53 13 31 14 43 3 75 -7 21 -18 43 -25 49 -18 15 -76 20 -100 8z"/>
<path d="M5082 1867 c-47 -50 -15 -127 52 -127 41 0 66 28 66 75 0 71 -71 102
-118 52z"/>
<path d="M4704 1868 c-47 -22 -57 -95 -19 -133 31 -32 75 -32 111 -1 74 63 -4
177 -92 134z"/>
<path d="M5252 1642 c-69 -37 -91 -115 -52 -180 21 -34 72 -62 113 -62 40 0
89 41 105 88 19 57 0 117 -48 150 -39 26 -73 27 -118 4z"/>
<path d="M4913 1621 c-37 -23 -47 -48 -46 -116 1 -42 5 -53 32 -77 35 -32 70
-43 105 -34 41 10 85 55 96 97 28 103 -92 187 -187 130z"/>
<path d="M1834 1584 c-64 -31 -63 -148 2 -179 48 -23 73 -18 110 19 27 27 34
42 34 73 0 42 -11 61 -50 87 -30 20 -56 20 -96 0z"/>
<path d="M4292 1573 c-44 -9 -65 -88 -38 -142 25 -48 83 -63 137 -36 49 26 66
111 31 155 -18 22 -81 34 -130 23z"/>
<path d="M1192 1549 c-61 -18 -89 -105 -60 -186 13 -36 58 -63 103 -63 54 0
115 69 115 131 0 31 -30 88 -54 104 -31 20 -67 25 -104 14z"/>
<path d="M715 1514 c-56 -61 -56 -131 0 -190 28 -29 39 -34 80 -34 41 0 52 5
80 34 18 19 35 48 38 65 10 48 -3 89 -38 127 -28 29 -39 34 -80 34 -42 0 -51
-4 -80 -36z"/>
<path d="M2442 1515 c-77 -65 -21 -197 76 -182 54 9 82 46 82 107 0 42 -4 52
-31 74 -40 34 -88 34 -127 1z"/>
<path d="M3569 1509 c-28 -10 -59 -65 -59 -105 0 -33 25 -81 49 -94 47 -24
102 -7 126 40 46 90 -27 191 -116 159z"/>
<path d="M3055 1476 c-47 -20 -59 -42 -59 -103 0 -48 3 -59 27 -79 44 -38 97
-33 136 11 42 48 40 99 -6 152 -25 29 -61 36 -98 19z"/>
<path d="M4635 1458 c-40 -20 -68 -68 -73 -122 -6 -84 54 -156 132 -156 59 0
126 77 126 143 0 100 -104 177 -185 135z"/>
<path d="M4995 1280 c-35 -23 -65 -74 -65 -112 0 -28 39 -81 73 -100 26 -13
80 -13 106 2 25 13 61 72 61 99 0 11 -8 38 -17 60 -29 68 -99 90 -158 51z"/>
<path d="M1644 1280 c-11 -4 -33 -22 -47 -40 -66 -78 -7 -200 98 -200 80 0
122 57 112 148 -9 81 -85 124 -163 92z"/>
<path d="M4210 1249 c-79 -32 -124 -134 -89 -202 52 -101 163 -125 234 -51 63
64 65 146 7 211 -43 49 -97 64 -152 42z"/>
<path d="M2195 1231 c-95 -44 -129 -135 -85 -225 52 -107 190 -125 263 -34 73
90 29 237 -79 267 -50 14 -52 14 -99 -8z"/>
<path d="M2734 1201 c-54 -33 -88 -87 -88 -139 1 -101 65 -173 158 -176 46 -1
60 3 93 30 72 57 92 138 53 214 -42 82 -144 115 -216 71z"/>
<path d="M3724 1171 c-49 -22 -85 -75 -92 -136 -7 -65 33 -145 84 -170 50 -24
99 -24 148 0 65 33 81 64 81 155 -1 70 -3 82 -25 105 -32 35 -92 65 -127 65
-15 0 -46 -9 -69 -19z"/>
<path d="M3280 1160 c-87 -20 -140 -80 -140 -159 0 -74 33 -126 102 -162 64
-33 124 -23 173 28 76 79 71 206 -10 265 -29 22 -92 36 -125 28z"/>
<path d="M1116 1070 c-65 -57 -81 -115 -52 -184 15 -37 67 -80 107 -89 66 -16
151 45 165 119 9 47 -10 107 -45 146 -23 26 -37 32 -83 36 -51 4 -58 2 -92
-28z"/>
<path d="M4631 1017 c-13 -6 -38 -29 -55 -50 -28 -35 -31 -45 -31 -111 0 -65
3 -77 29 -110 49 -65 116 -81 186 -46 131 67 131 247 -1 316 -34 17 -96 18
-128 1z"/>
<path d="M1575 872 c-105 -49 -153 -177 -105 -277 73 -152 261 -168 345 -31
25 42 30 60 30 115 0 56 -5 73 -30 115 -51 83 -157 117 -240 78z"/>
<path d="M4145 765 c-50 -18 -111 -85 -126 -138 -23 -88 23 -202 97 -238 88
-42 189 -19 242 55 67 92 63 191 -11 269 -59 63 -123 80 -202 52z"/>
<path d="M2770 741 c-31 -7 -68 -24 -142 -67 -21 -12 -25 -19 -72 -105 -41
-75 -48 -188 -17 -270 44 -115 162 -200 284 -201 93 -2 152 22 221 90 81 78
96 114 96 232 0 84 -4 101 -28 150 -36 72 -122 142 -201 164 -61 17 -84 18
-141 7z"/>
<path d="M2118 729 c-52 -12 -129 -70 -156 -117 -28 -50 -31 -184 -6 -238 27
-57 107 -121 168 -135 73 -16 156 8 205 59 139 147 89 373 -93 427 -55 17 -64
17 -118 4z"/>
<path d="M3490 688 c-54 -28 -69 -42 -97 -89 -62 -104 -63 -220 -3 -324 25
-44 40 -57 97 -86 93 -47 163 -47 255 -1 53 27 70 43 96 85 65 108 64 222 -4
330 -44 70 -114 107 -214 113 -58 4 -72 1 -130 -28z"/>
</g>
</svg>
