<?xml version="1.0" standalone="no"?>
<!DOCTYPE svg PUBLIC "-//W3C//DTD SVG 20010904//EN"
 "http://www.w3.org/TR/2001/REC-SVG-20010904/DTD/svg10.dtd">
<svg version="1.0" xmlns="http://www.w3.org/2000/svg"
 width="416.000000pt" height="1081.000000pt" viewBox="0 0 416.000000 1081.000000"
 preserveAspectRatio="xMidYMid meet">

<g transform="translate(0.000000,1081.000000) scale(0.100000,-0.100000)"
fill="#000000" stroke="none">
<path d="M2180 10760 c-19 -5 -69 -16 -110 -24 -41 -9 -83 -21 -92 -26 -10 -6
-27 -10 -38 -10 -11 0 -28 -4 -38 -9 -9 -5 -30 -14 -47 -21 -16 -7 -38 -16
-47 -21 -10 -5 -25 -9 -33 -9 -8 0 -15 -4 -15 -10 0 -5 -5 -10 -11 -10 -12 0
-142 -90 -147 -102 -2 -5 -8 -8 -14 -8 -5 0 -34 -25 -64 -55 -30 -30 -58 -55
-62 -55 -7 0 -76 -68 -178 -176 -26 -28 -34 -44 -32 -66 l3 -29 213 0 c116 0
221 1 232 1 11 0 63 43 120 100 56 55 104 100 106 100 4 0 32 24 94 80 59 53
79 66 185 118 39 19 78 38 87 43 10 5 27 9 39 9 11 0 28 4 37 9 10 5 67 12
127 15 61 3 131 8 158 12 l47 6 0 -30 c0 -62 -1 -62 -135 -62 -72 0 -126 -4
-130 -10 -3 -5 -16 -10 -28 -10 -12 0 -49 -14 -82 -30 -33 -17 -66 -30 -73
-30 -15 0 -63 -31 -102 -67 -14 -13 -29 -23 -35 -23 -16 -1 -143 -117 -237
-217 -52 -56 -186 -232 -250 -328 -135 -204 -329 -582 -365 -714 -8 -30 -25
-75 -38 -100 -38 -72 -98 -242 -99 -281 -1 -35 -1 -35 39 -34 43 2 87 11 120
23 40 16 92 31 106 31 9 0 34 9 57 20 22 11 47 20 54 20 34 1 78 61 93 128 4
18 38 126 77 240 38 114 75 227 82 252 20 70 108 248 160 323 25 37 55 89 64
115 10 26 31 65 45 86 15 21 27 44 27 49 0 8 3 8 11 0 5 -5 13 -36 16 -67 6
-54 3 -63 -37 -141 -53 -103 -51 -135 8 -135 20 0 52 4 69 9 20 6 35 6 38 0 8
-12 82 -12 90 1 3 6 24 10 45 10 54 0 87 17 99 52 6 15 13 74 16 131 7 114 27
182 57 198 32 17 40 -6 32 -91 -4 -41 -6 -84 -6 -95 1 -11 -4 -50 -10 -88 -6
-37 -9 -69 -7 -72 3 -2 23 2 44 10 22 8 63 14 92 15 29 0 64 5 78 12 21 10 32
8 65 -11 24 -13 41 -18 45 -11 3 5 14 10 24 10 10 0 27 10 38 23 l21 22 -23
71 c-35 106 -42 180 -20 204 10 11 26 20 36 20 18 0 89 -58 89 -73 0 -18 73
-194 88 -211 34 -38 76 -48 150 -35 39 7 76 21 89 32 19 17 25 18 38 7 12 -10
21 -10 41 -1 46 20 119 14 152 -14 l30 -25 16 40 c9 22 16 46 16 54 0 35 -203
389 -274 477 -75 93 -94 115 -116 135 -60 54 -87 75 -116 89 -17 8 -37 21 -44
30 -15 19 -68 45 -90 45 -9 0 -45 18 -79 40 -34 22 -68 40 -76 40 -7 0 -17 5
-20 10 -3 6 -17 10 -31 10 -14 0 -34 4 -44 10 -10 5 -51 13 -92 16 -40 4 -83
13 -95 20 -12 8 -44 14 -70 13 -26 0 -86 2 -133 5 -47 2 -101 1 -120 -4z m-40
-90 c0 -5 -4 -10 -10 -10 -5 0 -10 5 -10 10 0 6 5 10 10 10 6 0 10 -4 10 -10z
m28 -15 c-3 -3 -9 2 -12 12 -6 14 -5 15 5 6 7 -7 10 -15 7 -18z m847 -295 c3
-5 31 -10 61 -10 51 0 54 -1 54 -25 0 -32 -26 -45 -94 -45 -31 0 -64 -4 -74
-9 -9 -5 -29 -14 -44 -21 -26 -12 -40 -37 -52 -90 -5 -24 -44 -50 -73 -50 -7
0 -29 23 -49 50 -31 44 -61 70 -78 70 -2 0 -12 -7 -20 -15 -12 -13 -20 -14
-36 -5 -15 8 -30 8 -55 -1 -29 -11 -37 -21 -51 -61 -19 -58 -42 -63 -68 -13
-11 19 -26 35 -33 35 -8 0 -35 -14 -61 -32 -30 -21 -57 -32 -79 -31 -41 1 -46
-5 -87 -110 -48 -121 -76 -146 -76 -65 0 25 -7 45 -21 59 -23 23 -17 59 10 59
10 0 47 29 82 65 35 36 69 65 75 65 5 0 19 8 30 18 19 17 60 38 159 82 41 18
68 22 167 23 80 0 122 -4 132 -12 12 -10 23 -10 53 -1 21 7 43 16 48 20 6 4
35 15 65 26 30 10 59 22 65 26 13 11 43 10 50 -2z m169 -257 c9 -21 34 -69 56
-108 38 -69 49 -105 31 -105 -12 0 -51 63 -51 82 0 8 -16 45 -35 84 -37 73
-40 84 -26 84 5 0 16 -17 25 -37z m-534 -56 c0 -17 10 -37 25 -51 29 -27 31
-38 10 -74 -8 -15 -20 -40 -25 -56 -6 -16 -12 -27 -14 -25 -2 2 -6 63 -10 134
-4 87 -3 125 4 115 5 -8 10 -28 10 -43z m-970 -509 c0 -29 -37 -91 -49 -83
-17 10 19 105 39 105 6 0 10 -10 10 -22z m-260 -503 c-30 -91 -43 -114 -53
-98 -5 9 29 113 58 178 31 71 28 18 -5 -80z"/>
<path d="M1186 10021 c-3 -4 -23 -11 -45 -15 -34 -5 -45 -14 -72 -54 -18 -26
-40 -54 -49 -62 -21 -19 -205 -298 -222 -336 -7 -16 -16 -31 -20 -34 -19 -14
-78 -165 -77 -198 l0 -37 16 32 c12 23 23 32 38 31 12 -1 39 6 60 16 21 10 70
23 109 28 39 5 85 13 102 19 17 5 51 9 77 9 25 0 49 5 52 10 3 6 19 10 36 10
32 0 67 16 87 40 6 8 37 58 68 110 31 52 82 133 113 179 105 156 111 166 111
184 0 10 -5 27 -10 38 -10 17 -18 18 -98 13 -66 -5 -101 -3 -144 10 -61 17
-124 21 -132 7z m-19 -327 c-40 -84 -54 -104 -89 -127 -58 -37 -66 -8 -13 46
20 21 39 37 44 37 4 0 14 15 23 33 15 32 60 88 66 83 1 -2 -12 -34 -31 -72z"/>
<path d="M3214 9659 c-3 -5 -13 -9 -23 -9 -30 0 -69 -24 -86 -53 -16 -26 -16
-33 -2 -80 56 -187 87 -344 87 -436 0 -21 6 -43 13 -49 7 -6 81 -13 172 -16
88 -2 218 -7 289 -11 186 -9 188 -6 135 206 -17 68 -37 134 -45 146 -8 12 -14
31 -14 41 0 10 -11 51 -25 90 -14 39 -25 80 -25 90 0 35 -57 73 -123 83 -77
11 -345 10 -353 -2z m403 -295 c-3 -3 -12 -4 -19 -1 -8 3 -5 6 6 6 11 1 17 -2
13 -5z m-307 -24 c0 -5 -4 -10 -10 -10 -5 0 -10 5 -10 10 0 6 5 10 10 10 6 0
10 -4 10 -10z m247 -92 c6 -81 -11 -87 -20 -8 -3 25 -9 61 -12 80 -7 33 -6 34
10 18 12 -11 19 -38 22 -90z m-198 70 c4 -13 11 -45 15 -73 7 -58 -8 -51 -23
10 -5 22 -13 50 -16 63 -5 14 -3 22 4 22 6 0 15 -10 20 -22z m156 -128 c4 -6
4 -18 1 -26 -4 -12 -10 -13 -26 -4 -11 6 -20 17 -20 25 0 17 36 20 45 5z"/>
<path d="M2555 9600 c-22 -10 -48 -21 -57 -24 -36 -11 -47 -48 -57 -201 -6
-82 -15 -206 -21 -274 -9 -106 -9 -127 4 -139 12 -12 21 -13 43 -4 15 6 66 13
112 16 55 4 90 11 101 21 15 14 18 14 30 0 8 -9 22 -14 31 -12 10 3 50 1 90
-3 81 -9 130 5 150 42 13 23 8 91 -17 248 -33 211 -47 276 -62 302 -21 36 -92
54 -151 38 -37 -10 -68 -8 -136 5 -11 2 -38 -4 -60 -15z m-25 -320 c0 -4 -11
-10 -25 -12 -26 -5 -41 5 -31 21 6 10 56 2 56 -9z m174 -144 c-5 -13 -9 -14
-14 -5 -11 16 0 43 12 31 5 -5 6 -17 2 -26z"/>
<path d="M2240 9550 c-8 -5 -29 -10 -47 -10 -17 0 -35 -4 -38 -10 -3 -5 -32
-10 -64 -10 -57 0 -153 -30 -176 -54 -35 -36 -195 -518 -195 -586 0 -26 75
-80 111 -80 19 0 43 12 68 35 21 19 47 35 58 35 11 0 25 11 31 25 14 30 28 32
37 6 5 -15 13 -17 58 -13 28 3 54 9 55 13 2 5 25 9 52 9 85 0 112 55 129 271
5 57 18 155 30 217 26 143 20 162 -48 162 -25 0 -53 -5 -61 -10z m-91 -318 c0
-9 -9 -35 -20 -57 l-19 -40 4 53 c3 29 8 57 11 62 9 14 25 2 24 -18z m-95
-157 c-4 -8 -10 -15 -15 -15 -4 0 -6 7 -3 15 4 8 10 15 15 15 4 0 6 -7 3 -15z"/>
<path d="M1076 9301 c-8 -12 -66 -22 -166 -27 -47 -3 -94 -8 -105 -13 -18 -8
-51 -18 -125 -37 -62 -16 -120 -87 -148 -182 -7 -24 -19 -45 -27 -48 -18 -7
-55 -96 -55 -135 0 -21 -8 -39 -25 -55 -17 -16 -25 -34 -25 -56 0 -18 -9 -48
-21 -67 -11 -19 -24 -55 -29 -80 -4 -25 -14 -60 -21 -78 -12 -28 -11 -34 6
-53 15 -17 26 -20 50 -15 16 3 45 8 63 12 18 3 35 9 38 14 3 5 18 9 34 9 16 0
32 5 35 10 3 6 17 10 31 10 13 0 33 5 44 10 11 6 29 15 40 20 11 6 29 10 39
10 11 0 23 5 26 10 3 6 21 10 39 10 17 0 36 4 41 8 6 5 28 14 51 21 52 17 61
32 119 205 26 77 72 198 102 270 66 157 72 183 45 214 -20 23 -47 29 -56 13z
m-246 -220 c0 -10 -7 -24 -15 -31 -12 -10 -15 -10 -15 3 0 23 11 47 21 47 5 0
9 -8 9 -19z m-23 -238 c-9 -43 -36 -103 -47 -103 -14 0 -12 14 5 47 8 15 17
40 20 56 3 15 10 27 16 27 7 0 9 -11 6 -27z m-112 -112 c-8 -17 -20 -31 -27
-31 -15 0 -3 66 19 99 l18 26 3 -32 c2 -17 -4 -46 -13 -62z"/>
<path d="M3002 9235 c0 -16 2 -22 5 -12 2 9 2 23 0 30 -3 6 -5 -1 -5 -18z"/>
<path d="M3146 9115 c-11 -29 -6 -63 9 -69 19 -7 28 12 23 50 -3 31 -23 43
-32 19z"/>
<path d="M3021 9088 c-1 -21 4 -38 9 -38 12 0 12 27 0 55 -7 16 -9 13 -9 -17z"/>
<path d="M2590 8829 c-14 -4 -53 -7 -87 -8 -36 -1 -63 -6 -65 -12 -2 -7 -29
-13 -63 -14 -65 -2 -113 -12 -133 -28 -9 -7 -25 -6 -52 3 -47 15 -164 6 -197
-16 -12 -7 -31 -14 -42 -14 -11 0 -36 -9 -56 -20 -20 -11 -42 -20 -50 -20 -9
0 -23 -4 -33 -9 -9 -4 -42 -20 -73 -35 -31 -16 -63 -40 -72 -55 -15 -25 -35
-139 -67 -376 -6 -38 -13 -125 -16 -193 -7 -113 -6 -124 12 -137 22 -17 66
-19 94 -5 11 6 29 15 40 20 11 6 29 10 40 10 20 0 28 3 88 34 19 10 41 15 53
11 12 -4 31 -3 43 3 11 5 41 15 66 22 25 7 55 16 68 21 13 5 31 9 41 9 29 0
60 43 71 101 6 29 13 110 15 179 1 69 8 141 14 160 6 19 11 51 11 70 0 48 13
68 34 51 40 -33 79 24 57 84 -15 42 -14 60 4 75 12 10 19 10 27 2 9 -9 9 -41
0 -128 -11 -104 -11 -119 4 -141 14 -22 21 -24 52 -18 21 4 58 8 85 9 l47 3
-1 -56 c-1 -45 -2 -51 -9 -29 -14 45 -18 48 -55 32 -19 -8 -54 -14 -78 -14
-57 0 -63 -13 -77 -176 -10 -112 -9 -129 5 -151 14 -20 22 -24 43 -18 15 4 47
9 72 11 25 3 54 9 65 14 29 13 101 20 265 26 190 6 219 20 231 108 11 73 10
208 0 225 -7 10 -30 15 -80 15 -87 1 -117 21 -45 30 27 4 67 12 89 20 l40 13
-1 112 c-2 109 -3 114 -31 149 -24 30 -40 39 -79 46 -62 10 -281 14 -314 5z
m214 -360 c-1 -13 -8 -53 -15 -89 l-14 -65 -3 60 c-4 75 5 128 21 122 7 -2 11
-15 11 -28z m-634 -79 c0 -11 -40 -34 -47 -26 -3 3 -3 12 0 21 7 16 47 21 47
5z m-110 -18 c0 -13 -12 -22 -22 -16 -10 6 -1 24 13 24 5 0 9 -4 9 -8z"/>
<path d="M3267 8807 l-36 -34 5 -104 c4 -57 11 -122 16 -144 5 -22 9 -47 8
-55 -6 -66 -10 -297 -6 -315 6 -24 21 -27 276 -46 199 -14 254 -21 265 -30 13
-13 87 -10 106 4 33 25 42 57 35 136 -4 42 -7 128 -7 191 0 63 -7 153 -15 200
-7 47 -14 99 -14 116 0 52 -25 70 -117 83 -98 14 -206 23 -364 28 l-116 4 -36
-34z m323 -163 c0 -8 -4 -12 -10 -9 -5 3 -10 13 -10 21 0 8 5 12 10 9 6 -3 10
-13 10 -21z m-110 -257 c0 -106 -18 -110 -27 -6 -3 35 -10 72 -15 83 -7 13 -6
21 3 27 28 17 39 -12 39 -104z m-65 93 c4 -6 -7 -10 -27 -10 -25 0 -29 3 -18
10 19 13 37 13 45 0z m232 -27 c-3 -10 -5 -4 -5 12 0 17 2 24 5 18 2 -7 2 -21
0 -30z m43 -84 c0 -51 -4 -78 -10 -74 -6 4 -8 36 -6 78 5 83 5 77 11 77 3 0 5
-36 5 -81z m-54 -56 c-11 -11 -17 4 -9 23 7 18 8 18 11 1 2 -10 1 -21 -2 -24z
m-26 -33 c0 -11 -7 -20 -15 -20 -8 0 -15 9 -15 20 0 11 7 20 15 20 8 0 15 -9
15 -20z"/>
<path d="M3044 8705 c-8 -20 5 -125 16 -125 4 0 22 13 39 29 33 31 42 76 19
99 -17 17 -67 15 -74 -3z"/>
<path d="M1395 8575 c-5 -1 -30 -8 -55 -16 -25 -7 -49 -16 -54 -21 -6 -4 -22
-8 -37 -8 -15 0 -31 -4 -34 -10 -3 -5 -19 -10 -34 -10 -41 0 -98 -26 -115 -53
-14 -20 -23 -69 -56 -277 -29 -186 -34 -406 -11 -463 10 -26 9 -29 -10 -34
-20 -6 -20 -10 -15 -192 2 -102 10 -220 16 -261 6 -41 13 -104 14 -140 2 -36
8 -88 14 -115 6 -28 14 -63 17 -78 4 -21 10 -27 23 -23 9 3 30 -5 45 -18 34
-27 33 -61 0 -61 -34 -1 -46 -19 -38 -54 5 -26 11 -31 26 -26 13 4 19 2 19 -9
0 -8 9 -18 20 -21 22 -7 26 -20 9 -31 -6 -3 -15 0 -20 7 -8 12 -11 12 -19 -1
-16 -24 -12 -43 25 -140 19 -50 35 -104 35 -118 0 -15 9 -41 19 -58 10 -17 22
-49 26 -72 3 -22 29 -84 56 -137 27 -54 49 -104 49 -113 0 -22 59 -110 78
-117 9 -3 26 -25 37 -48 15 -31 28 -44 52 -51 18 -5 33 -17 36 -28 8 -28 27
-13 27 20 0 32 9 46 33 55 25 9 23 74 -4 103 -11 12 -32 55 -46 95 -14 41 -34
86 -44 101 -22 30 -39 125 -21 114 6 -3 18 -26 28 -51 12 -32 24 -47 40 -51
21 -5 24 -12 24 -55 0 -35 7 -61 24 -87 23 -36 116 -294 116 -321 0 -17 47
-78 66 -85 8 -3 27 2 41 11 32 21 53 25 53 9 0 -6 7 -22 16 -35 21 -30 34 -13
34 47 0 42 13 56 24 26 3 -9 6 -46 6 -82 l1 -67 14 34 c18 41 30 34 74 -43 37
-67 108 -149 116 -136 3 6 23 10 44 10 33 0 43 6 67 38 29 39 116 123 122 118
1 -2 7 -32 13 -67 7 -46 17 -69 35 -86 30 -27 31 -86 2 -91 -12 -2 -18 7 -23
37 -4 23 -10 41 -15 41 -12 0 -41 -67 -46 -108 -5 -35 -4 -36 10 -18 8 10 17
23 19 29 6 20 27 -4 27 -31 0 -15 -34 -99 -76 -187 l-76 -160 15 -65 c9 -36
19 -83 22 -105 16 -100 48 -226 56 -218 4 4 3 42 -3 83 -19 134 -1 234 73 420
53 134 99 197 99 136 0 -25 -18 -65 -70 -156 -43 -76 -9 -106 48 -43 21 22 47
48 60 58 42 35 25 -9 -25 -63 -27 -28 -55 -59 -64 -70 -9 -11 -22 -21 -28 -23
-18 -7 -62 -145 -53 -170 8 -21 10 -20 38 19 16 23 34 42 39 42 6 0 21 15 35
32 14 18 55 64 92 103 37 38 78 86 91 105 18 27 29 34 49 32 20 -2 32 5 49 30
13 18 28 36 34 40 29 18 95 87 114 118 22 36 28 85 12 95 -5 3 -29 -17 -53
-45 -24 -27 -50 -50 -59 -50 -15 0 -74 -65 -94 -105 -6 -11 -18 -20 -26 -20
-9 0 -30 -13 -48 -28 -32 -26 -51 -28 -51 -4 1 22 184 205 210 208 14 3 34 18
47 38 13 19 39 45 58 58 19 13 41 36 49 51 16 31 54 68 61 60 7 -7 -8 -67 -33
-138 -11 -30 -28 -108 -38 -172 -21 -146 -15 -437 11 -533 23 -83 101 -287
125 -327 11 -18 29 -53 40 -78 11 -25 35 -72 52 -105 71 -137 88 -171 88 -181
0 -6 31 -71 69 -145 37 -74 72 -145 75 -159 7 -24 6 -24 -21 6 -43 48 -63 76
-80 112 -9 19 -27 41 -41 50 -13 9 -33 35 -43 59 -10 24 -24 43 -31 43 -7 0
-27 17 -45 37 -24 29 -35 36 -46 28 -8 -5 -45 -31 -82 -58 -36 -26 -73 -47
-82 -47 -8 0 -32 -13 -52 -28 -47 -36 -89 -57 -98 -49 -8 9 106 115 132 123
11 4 46 24 77 45 31 22 66 39 77 39 18 0 21 6 21 38 0 65 -62 98 -89 48 -8
-13 -34 -35 -60 -48 -25 -12 -47 -26 -49 -30 -2 -5 -9 -8 -17 -8 -7 0 -18 -7
-25 -15 -7 -8 -24 -21 -39 -28 -87 -44 -91 -48 -91 -104 0 -32 5 -46 20 -55
13 -8 20 -24 20 -43 0 -44 22 -81 45 -77 11 2 34 17 53 33 18 16 49 36 70 44
20 9 47 25 58 36 12 12 30 19 40 17 16 -3 14 -8 -14 -37 -17 -19 -32 -44 -32
-57 0 -12 -3 -30 -6 -39 -6 -14 -8 -14 -25 1 -23 21 -45 13 -103 -37 -92 -80
-115 -109 -132 -165 -20 -69 -16 -98 41 -309 74 -271 105 -431 131 -658 7 -70
20 -140 28 -155 28 -54 86 -86 179 -99 20 -3 40 -9 43 -14 3 -5 25 -9 49 -9
24 0 47 -5 50 -10 3 -5 24 -10 45 -10 21 0 41 -4 45 -10 5 -9 24 -15 115 -42
42 -12 112 -25 199 -38 61 -9 65 -8 97 18 42 35 49 58 34 129 -6 32 -16 111
-21 177 -11 142 -53 340 -119 560 -26 88 -50 175 -53 193 -8 41 -96 276 -106
283 -8 5 -51 97 -51 107 0 3 7 0 15 -7 12 -10 15 -9 15 6 0 38 -88 277 -154
419 -8 17 -27 68 -42 115 -15 47 -37 108 -50 135 -12 28 -30 75 -39 105 -10
30 -24 68 -33 84 -38 76 -104 372 -108 485 -2 49 -8 79 -18 90 -20 22 -33 81
-18 81 17 0 31 33 41 97 17 108 51 248 80 328 27 71 36 102 58 194 9 36 -13
18 -38 -32 -37 -74 -89 -114 -89 -69 0 18 45 95 71 122 8 8 29 36 46 62 47 69
77 112 84 118 4 3 9 15 13 27 4 12 20 32 35 43 16 11 36 37 44 59 19 45 35 59
43 37 3 -9 11 -16 16 -16 26 0 70 81 54 97 -4 4 -19 -6 -33 -22 -49 -52 -36
-7 35 123 96 175 170 325 197 397 13 33 30 74 39 90 20 38 20 50 0 84 -28 47
-109 72 -251 76 -60 1 -137 9 -173 17 -45 11 -84 13 -126 8 -98 -12 -122 -32
-164 -140 -15 -36 -40 -94 -58 -129 -18 -35 -32 -76 -32 -91 0 -15 -7 -34 -16
-41 -10 -8 -50 -81 -91 -164 -58 -117 -73 -156 -68 -179 11 -60 19 -63 270
-71 193 -6 291 -17 306 -32 14 -14 2 -72 -17 -80 -8 -3 -22 1 -32 10 -34 30
-384 67 -512 54 -19 -2 -49 -4 -65 -5 -38 -2 -135 -95 -166 -158 -50 -105 -53
-39 -4 110 34 103 71 183 101 217 8 8 14 26 14 38 0 12 5 31 11 43 11 20 11
20 35 -3 l25 -23 29 29 c35 35 44 77 18 83 -11 2 -22 -6 -29 -22 -7 -14 -16
-23 -20 -20 -18 11 -8 106 25 235 19 74 40 169 47 212 l12 79 -34 30 c-37 32
-55 33 -179 7 -30 -6 -86 -14 -125 -18 -38 -5 -90 -15 -115 -24 -25 -9 -65
-21 -90 -27 -25 -7 -53 -16 -62 -21 -10 -5 -28 -9 -41 -9 -21 0 -91 -27 -127
-50 -8 -5 -31 -17 -50 -26 -97 -45 -126 -60 -136 -69 -20 -19 -34 -53 -34 -82
0 -39 77 -246 101 -272 11 -11 22 -35 26 -53 6 -31 68 -157 82 -168 4 -3 15
-26 25 -52 10 -27 23 -49 29 -49 7 -1 19 -2 27 -3 12 -1 15 -15 13 -71 -2 -57
0 -66 9 -47 12 24 29 28 59 11 15 -8 24 -7 36 3 13 10 17 10 20 1 3 -7 13 -23
23 -35 l19 -23 12 33 c6 18 16 31 23 29 21 -7 18 -40 -7 -63 -26 -24 -45 -98
-33 -129 8 -22 52 -19 69 5 20 29 30 11 10 -19 -29 -45 -66 -71 -101 -71 -28
0 -44 10 -93 61 -32 33 -59 65 -59 70 0 5 -15 26 -33 46 -43 50 -83 110 -101
154 -8 19 -21 41 -29 48 -8 6 -27 38 -42 69 -15 31 -37 68 -50 82 -28 29 -100
181 -140 293 -32 90 -66 122 -120 112 -98 -20 -101 -19 -117 17 -9 18 -21 63
-28 101 -14 76 -10 87 46 113 42 20 83 61 90 90 3 13 1 38 -4 56 -6 18 -15 63
-21 101 -6 37 -16 95 -21 130 -16 102 -30 228 -30 279 0 89 -26 113 -112 102
-67 -9 -83 9 -83 93 1 91 17 123 76 142 66 23 96 46 107 83 6 18 13 103 16
188 3 85 17 227 31 315 13 88 25 163 25 168 0 4 -9 16 -20 27 -18 18 -63 25
-95 15z m-165 -366 c-15 -162 -29 -271 -34 -276 -3 -3 -9 -2 -15 1 -13 9 -6
126 15 251 28 167 50 182 34 24z m27 -1161 c16 -104 14 -133 -8 -111 -17 17
-51 212 -44 251 l7 37 14 -35 c8 -18 22 -83 31 -142z m-187 -77 c0 -6 -4 -13
-10 -16 -5 -3 -10 1 -10 9 0 9 5 16 10 16 6 0 10 -4 10 -9z m2248 -253 c-4
-27 -28 -36 -28 -10 0 20 8 32 22 32 5 0 8 -10 6 -22z m-106 -2 c17 -12 16
-15 -13 -46 -18 -18 -49 -67 -70 -109 -21 -42 -45 -87 -53 -101 -9 -14 -20
-44 -26 -67 -6 -25 -17 -43 -25 -43 -25 0 -27 20 -5 73 17 42 19 57 11 79 -7
19 -15 26 -26 22 -20 -8 -67 4 -60 16 3 5 30 9 60 9 29 -1 59 2 65 6 6 3 27
39 46 78 52 104 60 111 96 83z m268 -15 c0 -6 -4 -13 -10 -16 -5 -3 -10 1 -10
9 0 9 5 16 10 16 6 0 10 -4 10 -9z m-124 -48 c-11 -11 -19 6 -11 24 8 17 8 17
12 0 3 -10 2 -21 -1 -24z m-1129 -19 c31 -8 19 -24 -18 -24 -28 0 -37 9 -22
23 8 8 12 8 40 1z m-207 -115 c0 -9 9 -28 21 -43 29 -37 69 -143 69 -184 0
-31 -3 -28 -41 44 -48 91 -83 190 -74 212 5 14 7 14 15 2 6 -8 10 -22 10 -31z
m1100 -198 c0 -6 -4 -13 -10 -16 -5 -3 -10 1 -10 9 0 9 5 16 10 16 6 0 10 -4
10 -9z m-334 -552 c-9 -22 -15 -27 -15 -16 -1 21 18 61 25 54 3 -3 -2 -20 -10
-38z m-41 -40 c4 -5 -6 -36 -21 -67 -33 -67 -44 -52 -18 24 18 54 27 64 39 43z
m169 -244 c-6 -16 -24 -21 -24 -7 0 11 11 22 21 22 5 0 6 -7 3 -15z m-94 -109
c0 -16 -18 -31 -27 -22 -8 8 5 36 17 36 5 0 10 -6 10 -14z m-76 -35 c7 -10
-22 -37 -30 -28 -9 8 3 37 15 37 5 0 12 -4 15 -9z m369 -1988 c16 -43 51 -145
78 -226 27 -82 54 -157 59 -168 13 -23 43 -25 60 -5 6 8 28 20 48 27 20 6 57
22 81 35 30 17 48 21 55 14 6 -6 6 -13 1 -19 -15 -13 -159 -82 -197 -95 -16
-5 -22 -28 -21 -71 0 -5 17 -106 37 -224 39 -230 48 -383 21 -347 -9 12 -15
42 -15 77 0 123 -21 141 -182 155 -49 5 -58 9 -67 32 -14 34 -34 163 -35 222
-1 39 2 46 28 60 16 8 43 27 59 43 17 15 38 27 49 27 32 0 43 43 29 111 -15
75 -115 362 -136 392 -8 12 -15 33 -15 46 0 24 1 24 17 8 9 -9 30 -52 46 -94z
m334 -565 c-3 -7 -5 -2 -5 12 0 14 2 19 5 13 2 -7 2 -19 0 -25z"/>
<path d="M3177 2816 c-3 -7 -19 -16 -36 -19 -40 -8 -46 -35 -27 -116 17 -72
49 -115 81 -107 11 3 27 1 35 -4 24 -15 50 7 50 44 0 37 -18 96 -30 96 -4 0
-15 27 -24 60 -16 57 -37 77 -49 46z"/>
<path d="M1610 8560 c0 -11 5 -20 10 -20 6 0 10 9 10 20 0 11 -4 20 -10 20 -5
0 -10 -9 -10 -20z"/>
<path d="M745 8403 c-16 -3 -34 -9 -39 -14 -6 -5 -22 -9 -36 -9 -14 0 -30 -4
-36 -9 -5 -5 -36 -12 -69 -14 -97 -8 -126 -18 -197 -63 -38 -24 -74 -44 -81
-44 -37 -1 -62 -44 -71 -124 -4 -33 -15 -73 -25 -90 -22 -37 -39 -200 -22
-211 16 -9 13 -36 -9 -79 -11 -24 -17 -49 -14 -65 3 -15 -1 -51 -10 -79 -18
-61 -7 -149 25 -201 18 -29 22 -31 79 -31 33 0 60 -4 60 -10 0 -5 15 -10 33
-10 22 0 36 -7 45 -20 19 -30 32 -15 32 37 0 41 4 50 45 88 44 40 62 52 123
76 15 6 35 15 44 20 10 5 25 9 33 9 8 0 15 5 15 10 0 6 8 10 18 10 23 0 60 34
73 67 5 13 14 90 20 171 5 81 26 236 45 344 28 164 32 201 22 218 -7 11 -17
20 -23 20 -5 0 -19 2 -30 4 -11 2 -33 1 -50 -1z m-145 -445 c-1 -27 -29 -82
-30 -57 0 31 12 79 21 79 5 0 9 -10 9 -22z m-200 -225 c0 -43 -13 -65 -24 -37
-8 20 -8 68 0 89 11 26 24 -3 24 -52z m76 -19 c-4 -18 -12 -34 -18 -34 -10 0
-3 64 10 84 10 17 14 -13 8 -50z"/>
<path d="M3050 8301 c0 -93 10 -116 47 -109 31 6 30 82 -3 145 -16 29 -32 53
-36 53 -4 0 -8 -40 -8 -89z"/>
<path d="M971 8194 c0 -11 3 -14 6 -6 3 7 2 16 -1 19 -3 4 -6 -2 -5 -13z"/>
<path d="M3337 7913 c-43 -7 -90 -36 -105 -66 -7 -15 -16 -50 -20 -79 l-7 -53
-5 55 c-4 47 -8 55 -26 58 -37 5 -54 -23 -54 -91 0 -82 -18 -110 -69 -105 -33
3 -36 1 -36 -22 0 -24 3 -25 57 -25 32 0 62 -5 69 -12 7 -7 23 -13 35 -13 13
0 26 -4 29 -10 3 -5 33 -10 66 -10 49 0 59 -3 59 -17 0 -16 -9 -18 -70 -16
-66 2 -70 1 -89 -26 -12 -16 -25 -60 -32 -101 -6 -40 -17 -91 -25 -113 -19
-55 -18 -83 7 -106 25 -23 65 -30 234 -39 72 -4 136 -11 143 -16 18 -11 134
-29 192 -29 58 -1 121 30 131 63 40 140 63 236 70 290 5 36 13 85 18 110 5 25
13 96 17 158 6 103 5 114 -12 130 -41 37 -57 41 -264 61 -47 5 -103 14 -125
20 -39 10 -131 12 -188 4z m265 -326 c-10 -77 -36 -215 -48 -246 -3 -10 -8
-11 -15 -4 -6 6 -2 40 12 99 28 117 30 215 6 241 -10 12 -15 27 -11 36 5 14
11 12 36 -13 l30 -31 -10 -82z m-175 79 c-3 -8 -16 -85 -28 -170 -13 -86 -27
-156 -31 -156 -14 0 -19 45 -9 95 5 27 7 53 4 58 -2 4 2 29 11 55 8 26 20 66
26 90 6 23 16 42 21 42 6 0 9 -6 6 -14z m73 -352 c0 -16 -26 -19 -35 -4 -3 6
-4 14 0 20 8 13 35 1 35 -16z"/>
<path d="M2485 7879 c-22 -4 -57 -8 -78 -8 -20 -1 -45 -5 -55 -10 -28 -15 -92
-29 -182 -41 -47 -6 -94 -15 -105 -20 -11 -4 -40 -14 -65 -21 -25 -7 -49 -16
-54 -21 -6 -4 -21 -8 -35 -8 -14 0 -43 -9 -65 -19 -100 -47 -158 -71 -170 -71
-24 0 -83 -64 -91 -98 -3 -17 1 -136 11 -263 14 -179 15 -235 6 -250 -19 -31
-14 -53 23 -103 35 -44 38 -46 89 -46 30 0 60 6 72 15 10 8 28 15 39 15 11 0
33 12 50 26 21 18 36 23 53 19 13 -3 29 -2 35 3 7 5 37 15 67 23 30 7 57 16
60 19 8 10 258 65 345 76 22 3 49 9 60 14 11 5 72 11 135 13 142 4 202 26 227
84 28 67 62 253 52 286 -6 23 -5 35 6 47 8 9 19 42 25 73 5 31 15 83 20 114
29 161 26 163 -237 162 -109 -1 -216 -5 -238 -10z m-211 -251 c-6 -114 -5
-124 13 -140 11 -10 32 -19 46 -20 15 -1 27 -6 27 -10 0 -12 -37 -28 -64 -28
-29 0 -29 -2 -47 -170 -6 -57 -13 -108 -15 -112 -3 -5 -14 2 -24 14 -17 21
-19 21 -25 6 -16 -41 -25 -12 -26 80 -1 132 -6 148 -47 144 -43 -5 -43 20 2
46 36 21 36 20 57 172 10 72 14 81 22 60 5 -14 13 -35 18 -48 15 -38 29 -15
29 47 0 52 11 81 32 81 5 0 5 -55 2 -122z m440 -73 c7 -29 -11 -72 -25 -58
-10 10 0 83 11 83 4 0 11 -11 14 -25z m111 -35 c-27 -12 -35 -12 -35 0 0 6 12
10 28 9 24 0 25 -1 7 -9z m65 6 c0 -3 -4 -8 -10 -11 -5 -3 -10 -1 -10 4 0 6 5
11 10 11 6 0 10 -2 10 -4z m-427 -61 c1 -6 -18 -11 -43 -13 -47 -3 -47 12 0
21 32 5 41 4 43 -8z"/>
<path d="M660 7330 c-8 -5 -27 -10 -43 -10 -15 0 -35 -4 -45 -9 -9 -5 -37 -15
-62 -22 -25 -7 -49 -16 -55 -20 -5 -3 -23 -9 -40 -12 -75 -14 -94 -20 -152
-48 -68 -33 -143 -107 -143 -140 0 -12 4 -60 10 -108 5 -47 15 -133 21 -191 6
-58 22 -156 35 -219 13 -63 24 -131 24 -150 0 -20 4 -41 8 -47 21 -33 122 -58
137 -34 3 6 17 10 29 10 13 0 29 7 36 15 7 8 20 15 29 15 9 0 27 9 41 20 14
11 31 20 38 20 6 0 12 5 12 10 0 6 9 10 20 10 21 0 55 16 78 37 12 11 51 31
110 54 58 24 76 36 90 66 17 35 13 84 -23 278 -9 44 -22 158 -30 254 -8 95
-17 181 -20 190 -5 17 -49 41 -74 41 -9 0 -23 -5 -31 -10z m-94 -308 c4 -18 3
-32 -2 -32 -16 0 -35 41 -28 62 8 26 22 12 30 -30z m28 -81 c19 -36 27 -252
10 -258 -9 -3 -12 21 -12 79 0 46 -5 103 -11 128 -19 80 -13 102 13 51z m-67
-193 c-3 -7 -5 -2 -5 12 0 14 2 19 5 13 2 -7 2 -19 0 -25z m13 -94 c0 -34 -4
-53 -10 -49 -5 3 -10 28 -10 56 0 27 5 49 10 49 6 0 10 -25 10 -56z"/>
<path d="M805 6300 c-3 -5 -17 -10 -30 -10 -13 0 -27 -4 -30 -10 -3 -5 -16
-10 -29 -10 -25 0 -76 -21 -76 -32 0 -5 -19 -8 -42 -8 -100 0 -268 -101 -268
-161 0 -49 103 -302 133 -327 9 -7 19 -28 22 -45 9 -39 103 -210 151 -273 19
-25 39 -57 44 -70 7 -17 17 -24 35 -24 21 0 25 -5 25 -28 0 -55 139 -214 199
-227 39 -8 92 -62 125 -125 26 -51 41 -109 56 -224 5 -43 19 -99 30 -123 11
-25 20 -54 20 -65 0 -11 7 -44 16 -75 13 -45 14 -63 4 -103 -8 -34 -9 -54 -2
-67 10 -16 12 -15 21 10 6 16 11 38 11 50 0 12 5 39 11 60 8 29 14 37 26 33 9
-4 22 -1 29 5 11 9 16 5 24 -16 12 -31 6 -45 -20 -45 -20 0 -35 -34 -50 -116
-4 -27 -17 -82 -28 -123 -20 -70 -20 -101 -1 -101 5 0 9 8 9 18 0 9 9 31 19
49 11 17 21 46 23 65 2 18 8 32 13 31 14 -3 19 -53 6 -66 -18 -18 -12 -41 14
-53 47 -23 53 8 29 174 -8 54 11 56 27 2 7 -21 25 -51 41 -65 24 -22 27 -29
17 -41 -13 -16 -21 -120 -12 -168 8 -43 23 -12 23 49 0 55 6 68 33 78 17 6 17
9 1 38 -14 28 -14 33 -1 46 21 22 37 8 37 -32 0 -38 18 -56 32 -31 15 26 28 9
28 -37 0 -23 5 -49 10 -57 7 -10 10 14 10 77 0 107 4 123 31 116 18 -5 20 -1
18 53 0 33 2 74 6 92 5 23 1 47 -15 87 -13 31 -20 65 -17 77 4 12 -3 42 -13
66 -11 25 -20 57 -20 73 0 19 -5 29 -15 29 -9 0 -18 7 -21 15 -4 10 -13 13
-24 10 -29 -9 -36 32 -12 65 22 29 52 154 52 214 0 68 -23 90 -34 32 -8 -44
-43 -56 -56 -20 -12 31 -5 49 26 62 13 7 24 17 24 23 0 10 -57 103 -111 181
-26 37 -90 175 -99 213 -3 17 -12 29 -19 27 -6 -1 -16 9 -21 23 -6 14 -21 49
-34 78 -13 29 -50 108 -81 177 -32 69 -64 134 -71 145 -8 11 -14 27 -14 35 0
17 -82 248 -102 288 -10 19 -19 22 -74 22 -35 0 -66 -4 -69 -10z m-165 -100
c0 -5 -2 -10 -4 -10 -3 0 -8 5 -11 10 -3 6 -1 10 4 10 6 0 11 -4 11 -10z m200
-213 c27 -54 42 -73 59 -75 21 -3 22 -7 16 -51 -5 -38 -2 -56 14 -87 22 -41
27 -74 11 -74 -5 0 -12 12 -15 28 -3 15 -15 45 -25 67 -11 22 -26 56 -35 75
-8 19 -31 64 -51 98 -32 57 -38 93 -17 92 4 -1 24 -33 43 -73z m-160 -170 c0
-5 -4 -5 -10 -2 -5 3 -10 14 -10 23 0 15 2 15 10 2 5 -8 10 -19 10 -23z m-50
-36 c0 -15 -42 -41 -67 -41 -29 0 -29 14 -1 34 25 18 68 21 68 7z m264 -120
c9 -14 -4 -41 -19 -41 -18 0 -28 32 -13 42 17 10 26 10 32 -1z m219 -183 c6
-18 -10 -58 -24 -58 -7 0 -21 -8 -32 -17 -15 -14 -39 -18 -114 -20 -51 -1 -99
-6 -106 -11 -7 -5 -27 -13 -44 -17 -28 -6 -33 -4 -33 12 0 27 20 43 55 43 16
0 55 7 85 16 30 8 77 21 103 28 27 7 54 19 60 25 15 15 44 14 50 -1z m25 -253
c27 -17 36 -32 53 -90 12 -38 28 -82 35 -97 10 -18 11 -28 4 -28 -6 0 -27 34
-46 75 -25 54 -44 82 -69 98 -33 21 -44 45 -28 61 8 7 6 8 51 -19z m295 -94
c7 -29 -22 -81 -46 -81 -11 0 -29 -8 -40 -17 -18 -17 -20 -17 -38 6 -21 26
-24 53 -8 82 9 17 13 18 25 8 11 -9 17 -10 22 -2 4 6 21 13 37 16 17 2 33 5
36 6 4 0 9 -8 12 -18z m-200 -276 c8 -19 -13 -31 -24 -14 -13 20 -11 29 5 29
8 0 16 -7 19 -15z m135 -65 c6 0 14 5 17 10 3 6 13 10 21 10 17 0 18 -34 3
-79 -11 -32 -23 -39 -34 -21 -4 6 -16 10 -28 8 -18 -3 -23 3 -28 37 -3 22 -10
54 -14 70 l-8 30 30 -32 c17 -18 36 -33 41 -33z m-143 -74 c19 -8 35 -22 35
-30 0 -20 -10 -20 -36 -1 -12 8 -24 11 -28 7 -9 -8 -27 19 -20 30 7 11 9 10
49 -6z m293 -105 c12 -21 27 -63 32 -92 6 -29 17 -60 25 -69 17 -18 22 -155 6
-164 -11 -7 -48 148 -55 234 -4 45 -11 70 -24 80 -24 20 -35 50 -19 50 8 0 23
-18 35 -39z m-241 -33 c-3 -8 -6 -5 -6 6 -1 11 2 17 5 13 3 -3 4 -12 1 -19z
m113 -198 c0 -11 -4 -20 -10 -20 -5 0 -10 9 -10 20 0 11 5 20 10 20 6 0 10 -9
10 -20z m136 -157 c-16 -16 -26 16 -19 58 l7 44 9 -48 c5 -26 6 -51 3 -54z"/>
<path d="M2635 6180 c-3 -5 -1 -10 4 -10 6 0 11 5 11 10 0 6 -2 10 -4 10 -3 0
-8 -4 -11 -10z"/>
<path d="M1218 6024 c-7 -6 42 -125 59 -146 7 -8 53 -88 103 -178 98 -176 98
-175 223 -376 45 -72 87 -139 94 -150 6 -10 43 -68 81 -129 81 -129 187 -309
250 -425 13 -25 27 -49 32 -55 14 -18 305 -577 354 -680 27 -55 76 -158 111
-230 34 -71 79 -179 99 -239 46 -135 55 -154 56 -107 0 36 -15 90 -108 376
-52 161 -112 323 -145 390 -8 17 -43 93 -78 170 -74 165 -224 463 -297 589
-29 49 -52 91 -52 93 0 2 -4 9 -10 16 -5 7 -25 35 -43 62 -62 93 -87 130 -95
140 -4 6 -39 51 -77 100 -38 50 -72 92 -75 95 -3 3 -46 59 -95 125 -49 66 -92
122 -95 125 -27 25 -137 190 -220 333 -35 59 -64 107 -65 107 -1 0 -4 -2 -7
-6z"/>
<path d="M2156 5812 c-14 -12 -20 -14 -23 -4 -7 17 -33 15 -33 -3 0 -9 9 -34
20 -56 37 -72 75 -63 71 18 -2 57 -11 69 -35 45z"/>
<path d="M1596 5734 c-11 -29 -6 -41 21 -53 21 -10 28 -9 34 1 19 30 5 68 -26
68 -13 0 -26 -7 -29 -16z"/>
<path d="M1804 5586 c-7 -28 2 -49 17 -41 12 8 12 65 -1 65 -5 0 -12 -11 -16
-24z"/>
<path d="M2290 5349 c0 -11 5 -17 10 -14 6 3 10 13 10 21 0 8 -4 14 -10 14 -5
0 -10 -9 -10 -21z"/>
<path d="M2262 5290 c0 -14 2 -19 5 -12 2 6 2 18 0 25 -3 6 -5 1 -5 -13z"/>
<path d="M2807 5030 c-37 -38 -74 -70 -82 -70 -8 0 -15 -5 -15 -10 0 -6 -35
-43 -77 -83 -42 -39 -109 -103 -149 -142 -40 -38 -80 -76 -89 -83 -22 -19 -17
-95 7 -100 9 -2 19 5 22 15 3 10 17 25 31 33 13 9 57 47 97 86 40 39 87 80
103 91 17 12 55 47 85 78 30 31 71 73 91 93 44 46 59 73 59 109 0 59 -14 57
-83 -17z"/>
<path d="M883 5053 c-4 -9 5 -38 21 -68 15 -28 36 -89 47 -136 11 -46 24 -88
29 -93 6 -6 10 -26 10 -45 0 -20 4 -52 9 -71 5 -19 15 -83 21 -142 7 -60 16
-108 20 -108 4 0 12 12 19 26 9 21 14 24 26 14 8 -7 15 -20 15 -30 0 -30 -30
-90 -45 -90 -19 0 -30 -61 -17 -97 11 -31 16 -23 27 41 5 29 9 36 18 27 39
-39 72 12 72 109 0 71 -55 321 -81 372 -9 17 -25 63 -35 102 -23 83 -38 116
-54 116 -15 0 -75 63 -75 78 0 18 -20 15 -27 -5z m127 -280 c0 -20 -3 -24 -11
-16 -7 7 -9 19 -6 27 10 24 17 19 17 -11z"/>
<path d="M1557 4886 c-7 -113 1 -174 18 -146 4 7 8 39 8 71 -1 38 4 62 13 70
20 16 17 48 -6 87 -11 17 -21 32 -23 32 -2 0 -7 -51 -10 -114z"/>
<path d="M1630 4864 c0 -3 9 -19 20 -34 32 -44 88 -203 117 -330 22 -95 26
-140 27 -260 0 -143 -4 -180 -54 -460 -11 -58 -26 -147 -34 -199 -8 -51 -18
-96 -21 -99 -3 -3 -40 29 -82 71 -45 45 -81 73 -86 68 -5 -5 -24 -62 -43 -127
-25 -86 -34 -137 -33 -184 1 -36 -8 -112 -19 -170 -30 -154 -52 -303 -59 -406
l-6 -91 32 -14 c39 -18 61 -63 61 -128 0 -69 -16 -101 -50 -101 -30 0 -44 -13
-53 -47 -12 -50 17 -539 38 -639 6 -26 38 -64 56 -64 36 -1 62 -37 75 -106 20
-104 19 -107 -27 -126 l-42 -18 7 -55 c7 -66 70 -237 123 -337 46 -87 42 -82
97 -143 25 -27 46 -53 46 -57 0 -5 4 -8 10 -8 12 0 45 -26 73 -57 11 -13 26
-23 32 -23 17 0 65 -24 65 -32 0 -5 8 -8 18 -8 9 0 26 -7 36 -15 10 -8 22 -12
26 -10 4 3 13 -2 20 -10 7 -8 19 -15 26 -15 8 0 23 -4 34 -10 11 -5 29 -14 40
-20 11 -5 49 -10 84 -10 36 0 68 -4 71 -10 3 -6 51 -10 107 -10 91 0 102 2
119 22 17 19 22 20 45 8 20 -11 29 -12 44 -2 11 7 29 12 40 12 10 0 34 8 53
19 32 18 36 18 86 2 l53 -16 -5 -38 c-3 -21 -14 -45 -24 -53 -29 -23 -114 -61
-168 -74 -27 -7 -54 -16 -60 -20 -5 -4 -38 -8 -73 -9 -35 -1 -73 -6 -84 -12
-12 -6 -40 -8 -67 -5 -25 4 -71 9 -101 12 -30 3 -59 10 -64 15 -6 5 -34 9 -63
9 -34 0 -65 7 -88 20 -20 11 -44 20 -54 20 -10 0 -24 7 -31 15 -7 8 -16 13
-20 10 -5 -3 -11 -1 -15 4 -3 5 -31 22 -63 37 -31 16 -58 32 -60 36 -2 4 -18
8 -36 8 -28 0 -39 -8 -77 -57 -61 -80 -98 -145 -100 -179 -3 -35 9 -74 22 -74
5 0 27 -11 49 -25 22 -14 48 -25 58 -25 11 0 27 -9 37 -20 10 -11 36 -23 57
-27 22 -3 45 -12 53 -19 7 -8 25 -14 39 -14 14 0 28 -5 31 -10 3 -6 19 -10 35
-10 16 0 32 -5 35 -10 3 -5 17 -10 30 -10 13 0 26 -4 29 -9 4 -5 45 -7 94 -5
48 3 152 7 232 10 144 5 145 6 174 35 28 29 69 38 81 19 8 -13 102 -13 110 0
3 6 17 10 30 10 13 0 50 14 82 30 31 17 62 30 67 30 5 0 24 11 42 25 18 14 37
25 42 25 4 0 19 11 31 24 13 13 38 27 57 30 19 4 34 10 34 14 0 4 12 15 28 24
70 42 142 136 142 188 0 22 -43 65 -81 82 -16 7 -29 16 -29 20 0 5 -6 8 -14 8
-8 0 -16 4 -18 8 -1 4 -19 20 -39 35 -29 22 -46 27 -93 27 -54 0 -58 -2 -77
-35 -12 -20 -29 -35 -40 -35 -31 0 -22 29 16 51 29 18 35 27 35 56 0 28 -8 42
-41 72 -22 21 -52 44 -67 52 -15 7 -45 25 -67 40 -22 14 -58 29 -80 32 -51 9
-128 -18 -164 -55 -27 -30 -47 -35 -53 -17 -2 7 -33 13 -73 15 -125 6 -169 15
-242 50 -39 19 -90 53 -112 75 -23 21 -44 39 -48 39 -12 0 -73 69 -73 84 0 8
-4 16 -8 18 -17 7 -62 76 -77 117 -8 23 -21 49 -30 57 -19 19 -19 38 0 54 22
18 38 7 54 -36 29 -83 199 -294 236 -294 17 0 76 -30 98 -49 15 -12 42 -16
120 -16 98 0 121 3 160 20 10 4 31 5 48 1 27 -5 30 -3 27 16 -4 28 -42 39
-143 42 -122 3 -181 22 -243 78 -30 26 -57 48 -62 48 -8 0 -74 84 -97 124 -63
109 -100 234 -123 418 -5 42 -14 105 -20 140 -5 35 -10 144 -10 243 0 176 -6
215 -29 201 -29 -18 -120 36 -121 72 0 14 117 15 126 1 14 -23 22 10 28 118 9
154 32 374 51 493 22 136 80 351 116 428 17 37 38 82 46 99 11 24 24 34 48 39
48 9 95 -18 157 -89 29 -34 61 -71 70 -81 10 -11 37 -51 60 -90 24 -40 44 -64
45 -56 4 17 -134 301 -177 365 -15 22 -30 48 -33 59 -4 10 -28 50 -54 90 -25
39 -56 86 -67 104 -12 18 -27 31 -35 30 -17 -4 -104 -202 -168 -383 -68 -195
-119 -412 -159 -685 -19 -134 -43 -257 -51 -274 -24 -45 -27 -132 -10 -246 9
-58 21 -152 27 -210 6 -58 15 -127 20 -155 5 -27 16 -113 25 -190 21 -193 31
-234 62 -246 30 -11 26 -31 -8 -39 -17 -4 -28 -18 -39 -48 l-14 -42 -96 2
c-86 3 -95 5 -98 23 -1 12 6 25 19 33 18 11 24 11 40 -4 17 -15 19 -15 25 0 3
9 2 29 -4 44 -28 73 -25 122 7 122 45 0 50 38 31 210 -6 52 -17 174 -24 271
-10 145 -15 180 -32 202 -10 14 -26 27 -34 27 -8 0 -23 7 -33 14 -9 7 -28 11
-40 9 -33 -6 -60 22 -47 48 14 26 47 24 55 -2 12 -35 25 -2 25 63 0 70 7 88
32 88 12 0 31 12 44 27 23 27 28 49 40 193 3 41 19 165 35 274 31 214 35 281
19 336 -8 28 -6 51 9 110 11 41 27 102 35 135 8 33 46 184 84 336 l71 276 -29
84 c-75 225 -218 539 -244 539 -9 0 -16 -3 -16 -6z m-126 -2811 c9 -59 6 -194
-4 -161 -14 46 -23 198 -12 198 5 0 12 -17 16 -37z m406 -1168 c0 -21 -17 -18
-30 4 -15 28 -13 33 10 21 11 -6 20 -17 20 -25z m138 -67 c44 -24 54 -38 25
-38 -16 0 -103 47 -103 55 0 12 39 3 78 -17z m255 -69 l21 -12 -20 -8 c-26 -9
-116 9 -108 22 8 13 81 11 107 -2z m185 -21 c4 -30 1 -33 -26 -19 -9 5 -30 14
-45 20 -39 15 -24 33 26 29 37 -3 42 -6 45 -30z"/>
<path d="M2811 4838 c-17 -18 -31 -36 -31 -40 0 -5 -6 -8 -14 -8 -8 0 -32 -18
-54 -40 -21 -22 -42 -40 -47 -40 -8 0 -52 -37 -167 -144 -79 -73 -88 -91 -65
-133 12 -21 13 -20 74 35 95 88 123 112 131 112 4 0 30 22 58 48 103 96 133
122 142 122 21 0 39 70 26 104 -9 23 -19 20 -53 -16z"/>
<path d="M2805 4656 c-16 -7 -48 -31 -70 -53 -22 -21 -56 -50 -75 -63 -46 -32
-164 -150 -173 -173 -8 -22 8 -57 26 -57 7 0 33 21 57 46 25 25 60 54 78 66
18 11 62 49 97 84 36 35 76 69 90 74 23 9 26 15 23 47 -4 42 -12 47 -53 29z"/>
<path d="M1631 4594 c0 -11 3 -14 6 -6 3 7 2 16 -1 19 -3 4 -6 -2 -5 -13z"/>
<path d="M2779 4469 c-41 -40 -90 -83 -109 -98 -56 -42 -120 -114 -120 -136 0
-24 18 -45 37 -45 6 0 23 11 36 24 13 13 44 36 68 51 24 16 49 33 56 39 7 6
44 38 82 71 58 49 70 65 71 90 0 30 -23 75 -39 75 -4 0 -41 -32 -82 -71z"/>
<path d="M2864 4315 c-21 -19 -43 -35 -47 -35 -11 0 -101 -62 -105 -72 -2 -4
-9 -8 -16 -8 -7 0 -30 -15 -50 -34 -38 -37 -46 -69 -23 -101 13 -17 15 -17 48
6 19 13 52 39 73 57 22 17 45 32 51 32 7 0 20 9 30 20 10 11 23 20 30 20 7 0
20 9 29 19 10 11 30 21 45 23 21 2 27 9 29 35 4 40 -13 73 -37 73 -9 0 -35
-16 -57 -35z"/>
<path d="M2930 4197 c-20 -12 -52 -34 -71 -49 -20 -16 -39 -28 -44 -28 -6 0
-46 -30 -97 -75 -10 -8 -22 -15 -28 -15 -18 0 -30 -38 -21 -64 18 -45 41 -48
79 -10 19 19 38 34 44 34 5 0 31 19 58 42 28 24 76 52 107 64 50 19 58 26 61
49 4 35 -16 75 -37 74 -9 0 -32 -11 -51 -22z"/>
<path d="M1205 3987 c-9 -35 -2 -62 15 -62 21 0 25 58 6 74 -13 11 -16 9 -21
-12z"/>
<path d="M1141 3951 c-6 -11 -18 -50 -27 -88 -96 -421 -126 -514 -147 -460
-11 25 -25 -16 -37 -102 -7 -47 -18 -115 -25 -151 -22 -105 -39 -263 -32 -291
10 -40 37 -63 102 -88 33 -12 74 -28 90 -35 99 -43 157 -47 179 -13 9 12 20
68 25 127 20 197 78 440 116 477 12 13 30 49 38 81 8 31 25 92 37 135 25 85
21 101 -27 110 -18 3 -31 0 -39 -11 -10 -14 -15 -14 -25 -5 -10 10 -16 10 -30
-3 -29 -27 -29 -1 1 116 35 130 35 130 16 130 -9 0 -17 -15 -21 -40 -4 -22
-13 -47 -21 -54 -8 -8 -19 -27 -26 -43 -11 -27 -12 -27 -16 -5 -2 13 4 34 13
48 11 16 15 41 13 72 l-3 47 -20 -33 c-11 -17 -28 -35 -39 -38 -27 -9 -65 41
-66 88 0 43 -14 57 -29 29z m11 -103 c-7 -7 -12 -8 -12 -2 0 14 12 26 19 19 2
-3 -1 -11 -7 -17z m78 -461 c-7 -29 -23 -72 -36 -97 -13 -25 -37 -94 -54 -155
-42 -147 -39 -140 -49 -129 -22 22 35 241 96 372 47 101 65 105 43 9z"/>
<path d="M860 2540 c0 -5 -11 -10 -25 -10 -19 0 -25 -6 -30 -32 -9 -53 -9
-121 -1 -159 6 -28 4 -40 -9 -53 -14 -13 -16 -26 -10 -59 4 -23 6 -58 5 -77
-4 -61 -3 -83 9 -180 14 -111 35 -181 59 -203 31 -28 310 -74 342 -57 39 21
41 31 30 186 -15 204 -15 191 -6 365 8 155 8 155 -15 181 -13 14 -42 31 -64
38 -22 7 -48 16 -57 21 -10 5 -34 9 -53 9 -19 0 -35 5 -35 10 0 6 -13 10 -29
10 -17 0 -33 5 -36 10 -3 6 -22 10 -41 10 -19 0 -34 -4 -34 -10z"/>
<path d="M3029 2020 c-42 -7 -83 -36 -98 -68 -6 -12 -16 -64 -21 -114 -20
-171 -29 -221 -71 -379 -45 -171 -46 -205 -6 -250 22 -26 90 -74 140 -98 15
-8 27 -18 27 -23 0 -4 7 -8 15 -8 8 0 15 -3 15 -8 0 -4 9 -12 19 -17 11 -6 36
-19 58 -30 21 -10 46 -27 56 -36 10 -9 39 -27 65 -40 26 -13 66 -36 89 -51 23
-15 48 -28 56 -28 9 0 17 -5 19 -11 5 -15 94 -28 127 -19 19 5 31 19 45 56 10
27 27 67 37 89 70 149 105 284 79 300 -17 11 -11 35 9 35 25 0 44 81 45 190 1
54 6 82 19 100 11 17 17 43 17 83 0 56 -2 61 -41 99 -23 22 -46 41 -53 42 -6
1 -20 7 -31 12 -32 17 -176 71 -225 84 -25 6 -53 16 -62 21 -10 5 -31 9 -48 9
-17 0 -39 5 -50 10 -11 6 -29 15 -40 20 -11 6 -36 10 -55 10 -20 0 -50 6 -68
13 -19 8 -47 10 -68 7z m331 -286 c0 -40 -4 -55 -12 -52 -15 5 -22 50 -14 84
11 43 26 25 26 -32z m-248 -92 c-3 -68 -47 -259 -63 -277 -16 -16 -10 42 16
163 13 65 27 134 30 156 10 59 20 32 17 -42z m270 -54 c-6 -29 -13 -75 -17
-103 -4 -27 -15 -79 -26 -115 -11 -36 -19 -85 -17 -110 2 -37 -1 -45 -16 -48
-16 -3 -18 1 -12 30 4 18 11 60 16 93 5 33 18 100 29 149 12 50 21 106 21 126
0 41 9 55 23 41 7 -7 7 -29 -1 -63z m-132 -358 c0 -23 -31 -90 -41 -90 -9 0 0
68 13 93 12 23 28 22 28 -3z"/>
<path d="M936 1465 c-46 -24 -66 -53 -61 -89 6 -50 25 -127 35 -147 6 -10 16
-51 24 -91 16 -83 19 -90 84 -213 50 -95 81 -123 138 -124 17 -1 37 6 44 14 7
8 19 15 28 15 20 0 133 40 149 52 14 11 33 2 33 -16 0 -15 -73 -46 -106 -46
-12 0 -32 -8 -45 -18 -13 -10 -32 -22 -42 -25 -10 -4 -23 -20 -30 -35 -7 -16
-17 -27 -23 -25 -13 4 -27 -24 -18 -38 3 -5 14 -9 24 -9 11 0 26 -12 35 -30 8
-16 26 -37 40 -46 13 -8 29 -31 35 -50 6 -19 15 -34 19 -34 4 0 15 -14 24 -30
15 -25 25 -30 55 -30 42 0 76 28 152 120 24 30 48 56 52 58 4 2 10 19 14 38 7
36 -7 65 -54 114 -13 14 -35 42 -48 62 -13 20 -32 42 -43 47 -12 7 -21 25 -24
48 -2 21 -24 92 -47 158 -23 66 -50 162 -60 213 -14 70 -24 98 -41 113 -28 24
-35 26 -174 38 -61 6 -117 13 -125 16 -8 3 -28 -2 -44 -10z"/>
</g>
</svg>
