<?xml version="1.0" standalone="no"?>
<!DOCTYPE svg PUBLIC "-//W3C//DTD SVG 20010904//EN"
 "http://www.w3.org/TR/2001/REC-SVG-20010904/DTD/svg10.dtd">
<svg version="1.0" xmlns="http://www.w3.org/2000/svg"
 width="1026.000000pt" height="1024.000000pt" viewBox="0 0 1026.000000 1024.000000"
 preserveAspectRatio="xMidYMid meet">

<g transform="translate(0.000000,1024.000000) scale(0.100000,-0.100000)"
fill="#000000" stroke="none">
<path d="M3765 5636 c-58 -26 -118 -89 -145 -149 -10 -23 -37 -58 -62 -78 -33
-28 -52 -56 -81 -122 -47 -109 -68 -188 -67 -252 1 -27 1 -58 1 -68 -1 -10
-25 -33 -58 -53 -145 -90 -263 -182 -263 -204 0 -44 216 -416 297 -511 l43
-51 -32 -57 c-17 -31 -40 -67 -50 -80 -23 -30 -23 -68 -1 -153 15 -60 16 -77
4 -155 -7 -48 -19 -146 -26 -218 -21 -206 -33 -222 -142 -189 -45 14 -82 17
-163 14 -58 -2 -180 -4 -271 -4 l-166 -1 -42 29 c-53 37 -139 48 -161 21 -8
-10 -18 -50 -21 -89 -3 -39 -12 -114 -19 -167 -12 -83 -12 -102 1 -135 22 -57
42 -55 72 8 35 76 82 136 121 155 19 9 37 25 40 36 4 18 12 19 133 15 110 -4
166 -14 402 -67 255 -57 276 -60 298 -46 28 19 66 78 124 196 24 48 47 88 51
88 13 2 59 -86 85 -164 l27 -77 -23 -91 c-32 -128 -37 -243 -17 -426 9 -85 19
-158 22 -163 9 -14 54 53 54 80 0 13 -8 46 -17 74 -14 43 -15 60 -5 106 16 76
34 100 87 113 25 6 45 16 45 23 0 6 11 93 24 193 23 176 23 188 10 366 -11
146 -21 212 -49 321 -19 75 -35 149 -35 164 0 26 85 291 116 363 13 30 23 38
63 48 43 11 224 104 352 181 70 42 197 148 204 171 4 11 -1 35 -13 57 -15 29
-25 38 -51 40 -41 4 -59 -11 -87 -75 -37 -83 -182 -185 -301 -213 -90 -21
-114 3 -93 92 21 87 8 169 -48 298 -65 150 -67 165 -47 257 21 93 46 123 104
123 22 0 43 6 48 13 4 6 8 40 8 74 1 34 4 65 8 69 13 14 7 36 -18 66 -38 45
-34 82 14 112 75 48 67 69 -15 41 l-56 -19 -43 47 c-37 40 -48 47 -81 47 -22
0 -61 -11 -89 -24z m-164 -246 c11 -6 19 -21 19 -35 0 -40 19 -78 55 -112 35
-32 43 -60 26 -91 -13 -23 -95 -66 -113 -59 -43 16 -54 307 -12 307 3 0 14 -5
25 -10z m-91 -670 c29 -129 50 -253 50 -298 0 -72 -54 -201 -68 -163 -2 8 -29
41 -58 75 -66 74 -97 132 -139 256 -26 74 -31 98 -22 109 15 19 188 100 206
98 9 -1 20 -30 31 -77z"/>
<path d="M3372 4513 c-14 -26 3 -61 37 -81 18 -10 32 -28 35 -44 7 -35 52 -60
67 -37 5 8 9 34 9 58 0 39 -5 49 -40 83 -45 42 -92 51 -108 21z"/>
<path d="M5548 5588 c-44 -39 -77 -108 -78 -161 0 -22 14 -69 32 -110 26 -59
32 -85 33 -144 0 -66 -2 -74 -29 -102 l-30 -31 -123 0 c-136 0 -167 -8 -224
-58 -48 -42 -235 -165 -305 -200 -77 -39 -90 -55 -103 -127 -6 -33 -25 -133
-42 -222 -32 -173 -32 -178 15 -222 21 -20 35 -24 74 -22 54 2 68 13 82 60 9
31 6 36 -42 87 -50 53 -50 55 -46 105 6 60 80 213 114 235 12 8 81 35 154 60
170 59 166 62 163 -109 -1 -67 -2 -221 -2 -341 l-1 -219 -41 -40 c-23 -21 -48
-56 -54 -76 -10 -30 -24 -42 -81 -73 -59 -31 -73 -44 -97 -89 -23 -42 -27 -60
-22 -88 10 -54 47 -95 120 -132 42 -21 65 -38 65 -49 0 -10 -22 -51 -49 -93
-27 -41 -72 -122 -100 -179 -58 -118 -137 -230 -182 -257 -17 -11 -83 -33
-146 -51 -63 -17 -176 -56 -251 -87 -279 -113 -284 -115 -340 -114 -29 0 -89
8 -132 17 l-79 17 -20 -24 c-37 -43 -44 -93 -26 -167 21 -82 15 -123 -26 -169
-29 -33 -31 -41 -26 -85 7 -52 51 -145 79 -162 27 -16 44 8 79 112 44 132 60
155 119 180 53 22 62 40 30 60 -11 7 -20 16 -20 21 0 12 128 78 197 102 31 10
117 30 192 44 145 28 383 79 467 101 65 17 104 47 97 74 -11 43 9 90 74 172
36 46 86 115 111 153 53 84 78 112 116 132 37 19 67 11 89 -26 9 -16 40 -48
67 -71 l51 -43 60 13 c48 10 64 10 84 0 13 -7 34 -10 48 -6 16 4 34 -2 57 -19
28 -21 45 -25 99 -25 36 0 89 3 118 6 l52 7 11 53 c11 51 10 55 -17 91 -47 63
-154 195 -206 252 -67 75 -82 98 -70 114 20 24 24 72 12 132 -11 59 -10 67 19
165 18 57 32 115 32 129 0 15 16 65 34 111 40 97 63 180 71 263 4 31 11 57 16
57 16 0 36 -60 53 -155 35 -199 130 -235 177 -66 l21 74 -26 67 c-42 106 -47
161 -26 265 21 101 18 110 -37 152 -20 15 -47 38 -60 49 -23 21 -120 54 -159
54 -30 0 -73 23 -80 42 -9 30 18 71 54 80 33 9 35 12 32 65 -1 21 7 44 23 65
39 53 42 146 7 250 -39 115 -75 142 -210 154 -51 5 -57 3 -92 -28z"/>
<path d="M7024 5567 c-57 -40 -94 -89 -94 -127 0 -37 -34 -77 -73 -85 -38 -8
-66 -31 -78 -63 -13 -34 8 -116 41 -157 36 -45 45 -86 28 -120 -14 -29 -74
-58 -328 -161 -161 -66 -259 -121 -266 -149 -7 -28 27 -148 60 -213 14 -29 55
-98 89 -155 79 -127 78 -125 86 -222 7 -86 3 -82 86 -117 42 -18 45 -56 7
-116 -40 -63 -52 -111 -52 -214 0 -98 -8 -125 -50 -177 -21 -24 -43 -75 -66
-151 -55 -174 -114 -285 -158 -296 -15 -3 -50 6 -97 27 l-74 33 -260 1 c-274
2 -334 7 -375 33 -47 29 -126 101 -140 127 -28 53 -76 18 -168 -125 -30 -47
-77 -111 -103 -143 -74 -89 -80 -140 -17 -145 28 -2 39 1 47 17 32 59 131 97
216 82 30 -5 48 -2 75 12 64 36 179 15 437 -77 81 -29 132 -40 240 -51 76 -8
171 -24 210 -35 89 -25 130 -25 164 -2 14 9 75 59 136 110 121 101 186 183
268 337 26 50 58 104 71 121 13 17 24 36 24 42 0 24 29 10 110 -54 46 -36 122
-88 169 -116 157 -92 254 -165 276 -208 7 -14 16 -68 20 -120 8 -125 23 -172
100 -336 36 -75 87 -201 114 -278 l48 -141 -2 -144 c-1 -118 2 -144 14 -149 8
-3 46 0 85 7 39 7 125 16 192 21 135 9 190 29 259 94 59 56 34 114 -38 88 -69
-25 -201 2 -223 46 -20 40 -47 62 -74 62 -15 0 -32 6 -37 13 -19 23 -88 264
-123 432 -6 28 -31 118 -55 200 -41 136 -45 159 -42 241 l2 91 -107 159 c-109
162 -167 227 -295 331 -76 61 -163 169 -163 202 0 10 11 43 25 73 20 43 25 69
25 138 1 57 7 103 20 140 14 39 19 82 20 148 0 50 3 92 8 92 11 -1 130 -119
179 -178 27 -31 56 -55 79 -62 35 -12 38 -10 107 36 156 107 318 295 362 421
l24 67 -42 36 c-22 19 -46 34 -53 32 -7 -1 -16 10 -21 25 -9 26 -10 25 -16
-20 -11 -79 -52 -122 -76 -79 -9 15 -10 15 -11 -4 0 -12 7 -38 15 -57 8 -20
15 -46 15 -58 0 -28 -43 -85 -79 -103 -34 -18 -191 -70 -194 -65 -2 2 -20 27
-40 56 -21 28 -65 75 -97 103 -51 44 -69 69 -113 159 -40 82 -60 111 -87 128
-75 48 -73 44 -61 89 16 59 43 79 105 79 46 0 51 2 54 24 2 14 15 41 28 60 13
20 24 41 24 48 0 7 7 13 15 13 24 0 28 26 10 54 -15 22 -16 33 -6 70 24 97 8
160 -54 215 -55 48 -111 71 -176 71 -48 0 -64 -5 -105 -33z m-103 -264 c7 -16
23 -44 35 -63 34 -55 37 -83 12 -116 l-23 -28 -7 43 c-4 23 -21 61 -38 84 -32
43 -38 75 -18 95 17 17 23 15 39 -15z m-207 -580 c4 -9 11 -64 17 -122 6 -58
20 -139 31 -181 57 -216 58 -241 14 -329 -29 -55 -68 -91 -101 -91 -28 0 -35
17 -35 79 0 38 -5 52 -26 72 -32 30 -137 247 -158 325 -8 33 -17 89 -19 127
-6 81 -6 81 119 98 49 7 100 18 114 25 33 17 37 17 44 -3z"/>
<path d="M2319 5496 c-72 -50 -101 -182 -59 -275 41 -90 19 -146 -65 -160
-157 -28 -280 -81 -322 -141 -15 -22 -74 -78 -130 -125 -128 -107 -157 -144
-150 -188 10 -64 48 -143 94 -201 75 -92 94 -137 71 -169 -8 -10 -134 -59
-323 -123 -170 -58 -311 -107 -314 -109 -17 -18 42 -2 324 87 176 56 327 101
335 101 8 -1 43 -4 76 -8 57 -7 63 -6 73 14 7 12 9 27 5 34 -4 6 1 4 12 -5 23
-20 44 -8 44 23 0 16 19 29 42 29 8 0 9 -39 5 -124 -7 -135 5 -207 60 -348 24
-61 25 -70 13 -118 -7 -29 -11 -92 -9 -147 l4 -96 -51 -12 c-52 -12 -94 -33
-194 -99 -30 -20 -76 -43 -103 -52 -46 -15 -51 -15 -104 5 -67 26 -105 27
-125 4 -38 -45 -31 -94 20 -154 34 -39 37 -48 37 -105 0 -54 4 -67 31 -101 36
-44 76 -63 102 -47 14 9 17 28 18 93 1 67 5 85 21 104 11 12 23 34 27 48 4 19
17 31 43 42 45 18 262 62 350 72 l63 7 -7 -94 c-7 -118 10 -208 78 -404 42
-121 50 -153 45 -192 -3 -26 -10 -85 -15 -132 -14 -113 -16 -112 129 -101 166
13 250 49 250 108 0 27 -27 43 -72 43 -49 0 -97 44 -105 95 -4 29 -15 48 -40
70 -29 26 -35 39 -43 95 -5 36 -10 98 -10 138 0 41 -4 72 -10 72 -5 0 -10 -6
-10 -13 0 -23 -40 -57 -66 -57 -36 0 -63 65 -64 150 0 91 29 320 45 350 26 50
38 54 100 31 31 -12 58 -21 60 -21 3 0 5 19 5 42 0 24 7 49 16 60 16 16 15 22
-5 78 l-22 60 20 73 c17 57 21 103 21 209 0 96 4 139 13 146 25 21 232 80 244
70 7 -5 34 -10 60 -11 46 -2 49 0 66 35 20 40 6 34 220 99 66 20 107 37 107
46 0 19 -12 17 -174 -37 l-150 -49 -29 27 c-75 69 -92 93 -158 226 l-71 141 1
110 c0 61 1 128 3 151 4 58 -19 86 -107 129 -76 38 -85 47 -62 62 24 16 71 99
85 153 18 66 16 206 -3 233 -31 44 -86 70 -159 74 -63 4 -75 2 -107 -21z
m-344 -779 c33 -51 63 -149 69 -224 4 -43 9 -101 12 -130 l5 -51 -40 -7 c-102
-17 -210 95 -252 258 -14 58 -10 64 75 111 35 20 69 42 76 51 18 21 37 19 55
-8z m709 -401 c33 -35 71 -81 84 -104 l23 -41 -33 -14 c-75 -30 -187 -59 -203
-53 -18 7 -18 2 4 176 16 118 18 122 43 109 11 -6 48 -39 82 -73z"/>
<path d="M5667 2869 c-3 -12 4 -78 15 -148 24 -146 38 -565 19 -584 -12 -12
-15 -213 -3 -220 8 -5 411 28 465 38 41 8 44 12 20 30 -15 11 -15 13 5 24 26
14 29 47 7 78 -10 14 -34 26 -73 33 -100 21 -152 58 -181 127 -6 16 -21 33
-33 38 -12 6 -25 21 -29 35 -12 44 -9 176 5 252 8 41 17 110 21 155 7 72 6 81
-11 88 -19 7 -216 75 -220 75 -1 0 -4 -9 -7 -21z"/>
<path d="M3932 2337 c-7 -8 -21 -40 -32 -73 -11 -32 -27 -69 -36 -82 -9 -13
-13 -26 -10 -29 9 -9 147 27 203 54 59 27 95 67 91 97 -3 18 -12 22 -68 27
-36 3 -81 9 -101 13 -25 6 -39 4 -47 -7z"/>
<path d="M3660 2215 c0 -64 22 -95 68 -95 44 0 44 9 1 58 -22 25 -42 56 -45
69 -11 42 -24 24 -24 -32z"/>
</g>
</svg>
