<?xml version="1.0" standalone="no"?>
<!DOCTYPE svg PUBLIC "-//W3C//DTD SVG 20010904//EN"
 "http://www.w3.org/TR/2001/REC-SVG-20010904/DTD/svg10.dtd">
<svg version="1.0" xmlns="http://www.w3.org/2000/svg"
 width="419.000000pt" height="1037.000000pt" viewBox="0 0 419.000000 1037.000000"
 preserveAspectRatio="xMidYMid meet">

<g transform="translate(0.000000,1037.000000) scale(0.100000,-0.100000)"
fill="#000000" stroke="none">
<path d="M2792 10284 c-35 -7 -73 -20 -85 -29 -12 -8 -31 -15 -42 -15 -12 0
-34 -13 -49 -29 -16 -16 -39 -32 -51 -35 -16 -4 -27 -18 -36 -43 -6 -21 -25
-53 -40 -71 -41 -46 -60 -87 -75 -162 -18 -86 -18 -103 6 -130 24 -28 24 -31
5 -77 -30 -72 -18 -177 36 -303 64 -149 172 -261 294 -305 28 -10 59 -27 71
-37 11 -10 35 -18 52 -18 53 0 52 -43 0 -63 -10 -3 -20 -18 -24 -32 -5 -19 1
-33 25 -60 17 -20 40 -53 51 -75 16 -32 26 -40 48 -40 20 0 35 -9 50 -29 23
-31 80 -47 150 -43 26 2 35 -3 44 -23 14 -31 14 -31 90 0 33 14 70 22 82 19
41 -10 55 22 73 168 5 44 3 50 -27 78 -40 38 -37 63 10 70 33 5 36 9 73 99 45
108 90 294 81 333 -3 14 -12 29 -20 32 -16 6 -19 52 -4 61 21 13 11 75 -16
100 -19 18 -24 30 -19 42 5 10 7 27 6 37 -3 24 -56 119 -91 166 -15 19 -31 46
-35 60 -4 14 -25 43 -47 65 -21 22 -53 62 -72 90 -18 27 -52 64 -77 81 -61 44
-158 94 -182 94 -11 0 -25 6 -31 14 -17 21 -148 27 -224 10z m709 -1097 c-8
-8 -11 -5 -11 9 0 27 14 41 18 19 2 -9 -1 -22 -7 -28z m-341 -342 c0 -8 -7
-15 -15 -15 -16 0 -20 12 -8 23 11 12 23 8 23 -8z"/>
<path d="M1895 10042 c-63 -4 -139 -39 -187 -88 -31 -30 -38 -45 -38 -75 0
-21 -10 -57 -22 -80 -17 -33 -21 -57 -20 -119 2 -94 9 -114 69 -203 62 -91
100 -123 158 -131 75 -12 77 -13 60 -46 -17 -33 -19 -66 -5 -75 5 -3 26 7 45
22 24 20 35 36 35 55 0 21 8 31 33 42 61 30 112 89 147 172 47 112 51 175 14
283 -19 55 -35 86 -46 89 -10 2 -28 25 -40 51 -32 63 -72 104 -98 96 -10 -3
-27 -2 -37 2 -10 4 -40 7 -68 5z"/>
<path d="M2141 9934 c0 -11 3 -14 6 -6 3 7 2 16 -1 19 -3 4 -6 -2 -5 -13z"/>
<path d="M1261 9660 c-13 -11 -28 -20 -35 -20 -34 -1 -136 -137 -136 -182 0
-15 -8 -33 -18 -40 -31 -21 -44 -55 -32 -78 6 -11 17 -20 25 -20 18 0 19 -23
3 -51 -11 -17 -7 -31 32 -105 34 -65 63 -103 123 -159 44 -43 83 -72 91 -69 9
4 16 -6 20 -30 9 -46 23 -46 42 -1 16 39 39 54 56 37 11 -11 139 86 177 134
55 70 72 230 37 347 -30 99 -136 217 -196 217 -11 0 -33 6 -48 14 -15 8 -47
17 -72 20 -36 5 -50 2 -69 -14z"/>
<path d="M1841 9194 c0 -11 3 -14 6 -6 3 7 2 16 -1 19 -3 4 -6 -2 -5 -13z"/>
<path d="M800 9093 c-21 -2 -51 -17 -70 -33 -19 -17 -38 -30 -41 -30 -4 0 -17
-19 -28 -42 -12 -24 -28 -54 -36 -68 -8 -14 -12 -35 -9 -47 4 -14 -3 -36 -16
-59 l-23 -36 20 -62 c11 -33 28 -86 38 -118 13 -43 30 -68 69 -105 71 -68 142
-109 161 -93 8 6 19 9 25 5 6 -3 35 -1 65 5 47 10 64 20 113 68 85 84 115 158
116 282 1 95 1 95 -43 170 -62 105 -97 140 -139 140 -18 0 -41 4 -51 9 -22 12
-105 20 -151 14z"/>
<path d="M2110 9015 c0 -8 5 -15 10 -15 6 0 10 7 10 15 0 8 -4 15 -10 15 -5 0
-10 -7 -10 -15z"/>
<path d="M3537 8928 c-7 -25 0 -41 14 -33 12 8 12 42 0 49 -5 3 -11 -4 -14
-16z"/>
<path d="M2286 8861 c-4 -7 -5 -15 -2 -18 9 -9 19 4 14 18 -4 11 -6 11 -12 0z"/>
<path d="M2090 8820 c0 -13 5 -20 13 -17 6 2 12 10 12 17 0 7 -6 15 -12 18 -8
2 -13 -5 -13 -18z"/>
<path d="M2407 8724 c-4 -4 -7 -14 -7 -23 0 -11 3 -12 11 -4 6 6 10 16 7 23
-2 6 -7 8 -11 4z"/>
<path d="M2053 8691 c-17 -11 -46 -20 -65 -20 -51 0 -111 -12 -133 -27 -23
-16 -71 -18 -80 -4 -10 17 -25 11 -25 -9 0 -29 -40 -70 -77 -80 -29 -8 -35 -6
-57 20 -14 16 -27 29 -30 29 -15 0 -4 -52 14 -67 31 -27 25 -65 -15 -104 -30
-29 -35 -40 -35 -81 0 -47 -1 -48 -32 -50 -18 0 -43 0 -55 1 -12 1 -28 -8 -36
-20 -11 -14 -21 -19 -35 -15 -11 4 -23 2 -27 -4 -3 -5 -25 -19 -48 -29 -23
-11 -59 -31 -80 -45 -21 -15 -42 -24 -47 -21 -5 3 -20 -6 -34 -20 -14 -14 -29
-25 -34 -25 -5 0 -17 -18 -27 -39 -10 -22 -39 -65 -64 -95 -29 -34 -56 -80
-70 -120 -12 -35 -33 -74 -47 -87 -13 -12 -30 -41 -36 -63 -16 -57 -36 -79
-66 -71 -19 5 -36 -4 -77 -40 -29 -25 -59 -45 -65 -45 -7 0 -22 -9 -34 -20
-20 -18 -123 -96 -136 -102 -25 -13 -116 -142 -154 -221 -42 -86 -48 -103 -42
-139 6 -34 1 -52 -25 -105 -23 -45 -30 -72 -26 -95 3 -21 -3 -49 -15 -76 -18
-40 -18 -45 -4 -61 20 -22 20 -59 0 -121 -27 -83 -2 -289 40 -325 34 -29 42
-62 21 -85 -13 -14 -16 -29 -12 -56 8 -51 34 -77 69 -70 22 4 31 0 44 -19 21
-32 10 -48 -27 -40 -27 6 -29 5 -29 -27 0 -18 9 -48 20 -66 11 -18 20 -37 20
-43 0 -14 60 -138 70 -144 4 -3 10 4 13 15 3 11 13 20 22 20 15 0 17 -8 10
-64 -4 -45 -3 -66 6 -71 6 -4 25 -37 40 -72 19 -41 38 -68 54 -75 14 -6 25
-20 25 -30 0 -26 19 -60 30 -53 10 6 21 67 22 123 0 38 2 41 23 36 30 -8 43
17 52 96 6 60 25 102 39 87 4 -4 -2 -41 -14 -82 -35 -118 -26 -186 32 -256 14
-16 28 -49 31 -74 4 -24 18 -59 31 -76 14 -19 24 -47 24 -66 0 -23 5 -33 15
-33 9 0 20 -12 25 -27 6 -16 15 -36 20 -45 6 -10 10 -33 10 -52 0 -46 24 -111
55 -148 14 -16 25 -35 25 -41 0 -6 12 -23 26 -38 l26 -27 -17 -46 c-19 -49
-16 -90 10 -140 8 -15 15 -35 15 -43 0 -8 14 -28 30 -45 37 -37 38 -53 1 -87
-27 -26 -28 -29 -25 -111 1 -47 3 -88 3 -92 1 -5 7 -8 15 -8 8 0 17 16 21 38
8 41 23 65 36 56 15 -9 10 -103 -6 -134 -14 -26 -13 -33 1 -70 16 -41 31 -49
51 -29 8 8 13 3 18 -20 3 -17 11 -33 16 -36 12 -8 28 35 23 66 -15 106 -29
172 -45 217 -10 29 -19 66 -19 81 0 16 -8 46 -17 67 -10 24 -19 83 -23 154 -6
85 -13 128 -29 162 -12 26 -24 69 -27 95 -8 70 -32 187 -44 220 -23 60 -74
159 -93 180 -19 22 -19 24 -3 78 21 64 41 75 31 16 -8 -49 33 -152 80 -198 34
-33 45 -78 45 -184 0 -25 9 -83 21 -129 11 -45 23 -111 28 -146 5 -44 14 -71
29 -87 12 -13 22 -29 22 -36 0 -7 9 -30 20 -50 10 -20 24 -56 31 -81 l11 -45
18 23 c10 12 20 28 23 35 3 9 7 9 19 -1 9 -7 23 -10 32 -6 20 8 20 5 0 -34
-12 -25 -13 -36 -3 -53 7 -13 9 -40 5 -70 -5 -33 -2 -60 8 -84 14 -33 30 -45
38 -27 4 12 58 25 58 15 0 -5 -14 -17 -30 -28 -62 -41 -67 -161 -9 -222 33
-33 33 -35 15 -49 -11 -8 -23 -14 -28 -14 -14 0 -9 -27 8 -41 8 -7 26 -34 40
-60 13 -26 28 -50 33 -54 6 -3 19 12 30 34 11 22 34 59 50 83 16 24 33 57 37
73 9 38 32 65 56 65 26 0 22 -27 -6 -45 -27 -18 -72 -100 -117 -212 -25 -62
-28 -80 -22 -136 5 -57 3 -69 -16 -96 -12 -17 -18 -31 -12 -31 5 0 13 5 16 11
4 6 13 8 21 5 9 -4 18 4 24 19 6 15 15 23 24 19 25 -10 82 52 105 114 18 48
21 70 16 118 -5 44 -3 73 11 113 16 50 18 53 28 32 6 -15 6 -42 0 -82 -8 -47
-7 -62 3 -71 18 -15 16 -38 -6 -75 -11 -17 -25 -49 -31 -71 -5 -22 -27 -64
-47 -94 -36 -51 -37 -56 -41 -153 -2 -63 1 -106 8 -115 9 -11 13 -12 17 -2 2
6 11 12 19 12 27 0 27 -30 -1 -70 -28 -40 -28 -80 1 -80 16 0 64 90 64 120 0
14 11 25 33 35 19 8 39 21 46 29 7 9 17 13 22 10 12 -7 -9 -44 -38 -67 -13
-11 -39 -50 -58 -88 -38 -74 -46 -138 -20 -159 8 -7 15 -29 15 -49 0 -28 -7
-44 -31 -67 -30 -29 -30 -29 -26 -119 3 -49 8 -106 12 -126 6 -29 1 -47 -24
-94 -33 -62 -40 -124 -20 -169 9 -20 8 -32 -4 -59 -9 -19 -26 -72 -37 -118
-12 -46 -28 -104 -36 -129 -24 -68 -34 -189 -20 -226 7 -17 9 -17 22 9 9 16
21 26 27 24 20 -6 21 -86 2 -107 -28 -31 -35 -86 -19 -147 8 -29 14 -70 14
-89 0 -59 21 -126 42 -132 19 -5 25 -37 8 -47 -12 -7 -13 -74 -2 -92 4 -6 21
-13 37 -15 38 -4 46 -39 14 -61 -18 -13 -20 -20 -11 -44 10 -31 67 -93 83 -93
6 0 19 -5 31 -11 l20 -11 -21 -19 c-36 -34 -22 -119 30 -174 15 -16 34 -46 42
-65 l14 -35 17 32 c28 54 53 33 35 -29 -14 -49 -11 -78 9 -85 9 -3 24 -12 33
-20 14 -12 17 -12 22 2 4 8 15 15 25 15 16 0 20 -9 24 -53 3 -40 13 -65 38
-100 38 -54 69 -61 94 -22 10 15 22 22 31 19 21 -8 19 -30 -6 -55 -25 -25 -19
-60 14 -78 17 -9 34 -9 67 -2 65 15 67 15 75 -26 12 -64 32 -93 64 -93 33 0
98 25 124 48 24 22 33 7 19 -31 -13 -35 -16 -80 -6 -89 3 -3 18 -1 35 5 22 9
34 9 49 -1 43 -27 146 -13 188 26 7 6 16 12 19 12 14 0 73 -33 73 -41 0 -17
65 -9 90 11 15 11 41 20 63 20 20 0 45 4 55 9 9 6 43 21 74 36 32 14 65 37 74
50 18 27 13 58 -8 50 -20 -7 -42 11 -35 29 4 10 18 16 37 16 18 0 46 11 65 26
35 27 54 20 30 -12 -18 -24 -19 -54 -2 -54 24 0 57 40 57 70 0 16 5 40 12 54
10 24 12 24 24 8 11 -16 14 -16 34 3 12 11 35 45 51 76 15 31 35 59 44 62 11
5 15 22 15 72 0 58 2 65 20 65 10 0 25 10 31 22 7 12 21 30 33 39 19 16 20 20
8 76 -17 84 -16 93 11 90 21 -2 22 2 22 58 0 33 4 66 9 74 5 7 5 61 2 120 -7
106 -3 141 16 141 6 0 17 -8 24 -18 12 -15 15 -15 24 -2 15 23 12 60 -5 60 -9
0 -18 7 -21 15 -4 8 -16 15 -29 15 -29 0 -36 17 -28 80 l6 51 19 -33 c19 -30
21 -31 31 -12 16 26 15 181 -1 225 -7 21 -23 41 -38 47 -36 17 -39 37 -10 75
33 43 44 92 23 100 -8 3 -23 29 -32 57 -11 32 -28 59 -47 73 -27 20 -29 25
-23 68 7 52 -12 143 -25 119 -4 -8 -7 -52 -7 -96 0 -82 -5 -104 -24 -104 -7 0
-8 26 -4 74 7 67 5 80 -18 130 -14 31 -30 56 -35 56 -6 0 -24 36 -42 80 -18
45 -45 93 -61 108 -18 17 -29 37 -29 54 0 50 -49 184 -77 213 -22 22 -34 26
-63 22 -77 -10 -121 26 -48 40 36 7 43 13 46 35 5 42 -25 130 -58 170 -21 25
-49 44 -89 58 -71 26 -96 61 -86 119 4 23 2 42 -4 45 -15 9 -30 -26 -21 -49 9
-25 -15 -76 -33 -69 -16 6 -70 95 -62 102 3 4 15 0 27 -7 33 -21 43 -1 30 64
-15 71 -39 105 -95 134 -25 13 -50 34 -56 47 -21 47 -48 21 -53 -51 -2 -41 -7
-50 -23 -53 -40 -5 -46 10 -29 62 14 40 14 52 4 72 -13 23 -18 24 -116 24
-109 0 -136 11 -96 38 30 20 28 29 -12 67 -19 18 -44 53 -56 78 -15 32 -31 49
-53 58 -18 7 -44 23 -58 36 -23 21 -30 23 -69 14 -70 -16 -81 7 -26 51 39 31
63 28 72 -8 6 -25 19 -31 29 -14 10 16 37 12 60 -10 21 -20 21 -20 60 0 22 11
47 20 57 20 22 0 23 8 4 29 -7 9 -18 30 -23 46 -13 41 -58 58 -82 29 -21 -26
-62 -54 -78 -54 -25 0 -12 43 27 92 40 51 43 68 12 68 -9 0 -30 7 -46 15 -36
19 -80 19 -95 1 -6 -7 -18 -42 -26 -77 -8 -35 -19 -82 -24 -104 -6 -22 -13
-53 -16 -68 -3 -16 -23 -44 -43 -63 -39 -35 -54 -31 -28 8 15 24 51 119 81
219 13 44 14 61 6 78 -12 21 -41 29 -41 11 0 -5 -9 -10 -20 -10 -27 0 -27 36
0 50 16 9 20 21 20 68 0 32 -5 63 -11 69 -18 18 -51 79 -64 117 -5 19 -6 19
-21 -2 -15 -22 -48 -29 -59 -13 -3 5 9 24 26 43 28 30 30 37 24 78 -4 25 -10
70 -13 101 -4 31 -13 63 -20 71 -7 8 -23 62 -36 119 -38 165 -56 202 -90 193
-32 -8 -51 17 -36 46 6 12 17 19 25 16 8 -3 15 4 19 17 12 44 7 57 -19 57 -29
0 -27 -7 -30 99 -2 77 -4 86 -28 107 -35 30 -60 83 -92 196 -28 97 -28 98 -65
108 -21 6 -44 8 -52 5 -8 -3 -21 1 -28 10 -7 8 -18 15 -26 15 -12 0 -34 29
-34 44 0 12 28 5 40 -9 18 -22 56 -18 77 8 20 26 82 71 88 65 2 -2 8 -15 14
-28 8 -23 10 -23 16 -6 5 11 2 29 -9 46 -20 35 -20 66 -1 103 8 15 17 43 21
62 5 30 10 35 34 35 15 0 39 11 55 26 25 23 27 30 22 76 -7 54 11 141 37 181
18 26 13 52 -11 61 -9 4 -17 -1 -20 -14 -6 -24 -43 -45 -96 -55 -21 -4 -42
-16 -48 -26 -12 -23 -29 -25 -29 -4 0 9 21 37 48 64 83 86 102 109 102 129 0
36 21 80 37 78 21 -1 43 39 43 80 0 40 9 48 31 28 24 -21 35 -12 61 48 16 37
30 54 52 64 25 10 41 33 81 111 47 92 50 103 51 178 2 100 2 105 13 105 4 0
11 -59 15 -132 9 -153 15 -172 51 -158 22 9 27 6 38 -18 14 -32 26 -42 44 -35
7 3 16 -3 19 -13 20 -56 45 -51 76 15 19 40 22 63 22 179 1 109 3 129 14 115
24 -34 34 -93 23 -139 -19 -74 -13 -148 16 -220 15 -36 35 -70 45 -75 10 -5
29 -21 43 -35 29 -29 84 -54 118 -54 14 0 30 -7 37 -15 17 -21 25 -19 36 11
l9 25 40 -30 c48 -37 93 -40 154 -10 l43 21 -4 49 -5 49 66 -5 c65 -4 66 -4
123 40 31 25 61 45 66 45 17 0 61 51 67 78 6 27 47 82 62 82 4 0 16 14 26 31
14 25 20 29 32 19 18 -15 38 -4 92 52 66 68 104 183 72 215 -10 10 9 27 66 59
28 15 31 64 5 93 -11 13 -20 33 -20 43 0 25 26 85 44 103 8 8 17 33 21 56 6
35 4 44 -18 67 -33 36 -67 101 -67 131 0 13 8 45 17 71 17 47 17 48 -8 78 -29
37 -30 37 -59 14 -13 -11 -24 -33 -27 -57 -2 -22 -12 -51 -20 -64 -20 -32 -19
-98 3 -122 14 -16 15 -23 5 -46 -30 -65 -50 53 -29 167 13 69 13 79 -3 125
-10 28 -18 65 -19 84 l0 34 20 -26 c18 -22 25 -25 46 -17 14 6 30 8 35 4 5 -3
9 10 9 29 0 21 -6 37 -14 40 -8 3 -19 30 -26 61 -6 30 -17 60 -25 66 -8 7 -17
27 -21 46 -8 44 -18 50 -33 18 -6 -14 -17 -24 -23 -22 -21 7 -28 69 -11 101
14 29 14 30 -26 68 -29 28 -69 50 -133 75 -51 19 -99 40 -107 47 -7 7 -48 15
-90 18 -42 4 -94 13 -117 22 -31 12 -50 13 -84 6 -35 -8 -46 -7 -61 7 -18 16
-20 16 -42 -3 -31 -29 -84 -39 -105 -20 -10 8 -38 15 -65 15 -38 0 -49 -4 -58
-21 -11 -20 -12 -20 -28 -1 -9 11 -26 27 -38 37 -20 18 -22 18 -60 -1 -21 -11
-49 -32 -62 -46 -14 -14 -31 -26 -38 -26 -8 0 -25 25 -38 55 -14 30 -29 55
-33 55 -5 0 -17 -9 -27 -20 -10 -11 -22 -17 -28 -13 -6 3 -21 -7 -33 -22 -20
-25 -25 -27 -39 -15 -9 7 -23 27 -32 44 -16 31 -77 96 -91 96 -4 0 -21 -9 -39
-19z m1501 -964 c7 -11 8 -22 1 -33 -17 -27 -30 -20 -33 20 -4 40 11 46 32 13z
m-64 -141 c0 -7 -9 -16 -20 -19 -22 -6 -29 18 -7 26 21 9 27 7 27 -7z m79 -58
c8 -21 8 -35 1 -42 -7 -7 -10 -3 -10 12 0 22 -8 26 -42 23 -12 -2 -16 3 -12
13 5 13 18 20 46 25 3 0 11 -13 17 -31z m-69 -68 c0 -11 -4 -20 -10 -20 -5 0
-10 9 -10 20 0 11 5 20 10 20 6 0 10 -9 10 -20z m119 -239 c21 -14 5 -43 -21
-39 -29 4 -39 48 -11 48 10 0 24 -4 32 -9z m-72 -27 c4 -10 -4 -24 -23 -40
-53 -43 -75 -22 -29 29 29 31 43 34 52 11z m-953 -239 c-4 -8 -10 -15 -15 -15
-5 0 -9 7 -9 15 0 8 7 15 15 15 9 0 12 -6 9 -15z m64 -150 c7 -14 22 -29 36
-34 13 -5 33 -26 46 -45 22 -37 47 -45 68 -24 9 9 12 3 12 -29 0 -23 3 -48 6
-57 5 -13 1 -15 -26 -9 -47 9 -152 130 -175 202 -9 31 19 27 33 -4z m-964
-660 c-4 -8 -10 -15 -15 -15 -4 0 -6 7 -3 15 4 8 10 15 15 15 4 0 6 -7 3 -15z
m-44 -84 c0 -32 -6 -44 -31 -65 -39 -33 -74 -34 -83 -3 -11 40 -7 49 15 42 16
-6 28 1 51 29 16 20 34 36 39 36 5 0 9 -18 9 -39z m-1212 -118 c14 -31 16 -73
4 -73 -12 0 -32 47 -32 75 0 33 12 32 28 -2z m1073 -36 c-8 -8 -11 -7 -11 4 0
20 13 34 18 19 3 -7 -1 -17 -7 -23z m-21 -71 c0 -14 -4 -27 -9 -30 -13 -9 -32
19 -25 38 10 25 34 19 34 -8z m-120 -287 c0 -24 -4 -38 -10 -34 -17 10 -11 75
7 75 2 0 3 -18 3 -41z m306 -154 c4 -8 1 -22 -6 -30 -16 -19 -40 -2 -40 26 0
23 38 26 46 4z m-176 -34 c0 -5 -6 -14 -14 -20 -10 -9 -15 -8 -19 3 -3 8 -1
17 6 20 19 7 27 7 27 -3z m209 -43 c-1 -13 -5 -34 -9 -48 -7 -20 -8 -16 -9 23
-1 26 4 47 9 47 6 0 10 -10 9 -22z m6 -150 c4 -17 3 -28 -3 -28 -12 0 -22 24
-22 53 0 27 16 11 25 -25z m113 10 c2 -20 -1 -26 -14 -24 -27 4 -43 34 -24 46
22 14 35 7 38 -22z m-138 -283 c0 -13 -4 -27 -10 -30 -11 -7 -25 39 -15 55 10
16 25 2 25 -25z m105 -877 c-10 -31 -25 -47 -25 -26 0 24 11 48 22 48 5 0 6
-10 3 -22z m45 -366 c0 -5 -7 -31 -15 -58 -8 -28 -24 -94 -34 -149 -20 -96
-45 -156 -36 -84 21 166 29 210 47 252 18 41 38 62 38 39z m838 -344 c-2 -15
-11 -24 -25 -26 -27 -4 -30 10 -7 32 22 23 36 20 32 -6z m675 -679 c2 -28 -2
-35 -20 -37 -19 -3 -23 1 -23 23 0 14 5 36 11 47 14 27 30 11 32 -33z m-1683
-633 c0 -14 -69 -61 -77 -52 -8 7 7 26 20 26 7 0 20 9 30 20 20 24 27 25 27 6z
m80 -455 c0 -16 -7 -19 -32 -19 -18 0 -43 -3 -55 -7 -17 -5 -23 -3 -23 7 0 25
23 38 67 38 36 0 43 -3 43 -19z m1572 -533 c-7 -7 -12 -8 -12 -2 0 14 12 26
19 19 2 -3 -1 -11 -7 -17z m-79 -48 c-9 -24 -8 -33 3 -44 20 -20 17 -28 -6
-21 -11 3 -20 2 -20 -3 0 -13 -35 -52 -47 -52 -5 0 -18 6 -28 14 -18 13 -17
15 11 61 43 70 73 100 87 86 8 -8 8 -19 0 -41z m-1230 -221 c3 -12 2 -31 -3
-42 -8 -21 -8 -21 -19 7 -12 30 -9 56 8 56 5 0 11 -9 14 -21z"/>
<path d="M3605 8691 c-3 -5 -1 -12 5 -16 5 -3 10 1 10 9 0 18 -6 21 -15 7z"/>
<path d="M3456 8675 c4 -8 8 -15 10 -15 2 0 4 7 4 15 0 8 -4 15 -10 15 -5 0
-7 -7 -4 -15z"/>
<path d="M3771 8464 c0 -11 3 -14 6 -6 3 7 2 16 -1 19 -3 4 -6 -2 -5 -13z"/>
<path d="M3604 8436 c-8 -22 3 -33 18 -18 9 9 9 15 0 24 -9 9 -13 7 -18 -6z"/>
<path d="M439 8387 c-31 -17 -64 -38 -73 -46 -23 -20 -52 -78 -60 -123 -4 -20
-20 -51 -36 -68 -17 -18 -31 -37 -31 -44 -1 -6 -3 -31 -4 -56 -2 -25 -6 -60
-10 -78 -5 -23 -3 -38 8 -50 32 -37 31 -56 -9 -194 -3 -10 0 -18 6 -18 6 0 9
4 5 10 -3 5 4 19 15 30 19 19 24 20 43 7 36 -23 44 -62 23 -102 -17 -32 -18
-36 -2 -75 9 -22 16 -54 16 -70 0 -39 13 -44 43 -16 27 25 47 81 47 133 0 44
16 50 35 12 16 -30 17 -30 37 -12 11 10 30 38 43 63 29 56 58 90 77 90 27 0
67 40 102 100 86 147 90 328 10 431 -56 70 -82 87 -141 91 -32 2 -65 7 -73 11
-9 4 -39 -7 -71 -26z"/>
<path d="M1230 8316 c0 -8 5 -18 10 -21 6 -3 10 3 10 14 0 12 -4 21 -10 21 -5
0 -10 -6 -10 -14z"/>
<path d="M220 7471 c0 -11 5 -23 10 -26 6 -4 10 5 10 19 0 14 -4 26 -10 26 -5
0 -10 -9 -10 -19z"/>
<path d="M278 7468 c-7 -20 3 -49 16 -45 15 5 14 49 0 54 -7 2 -14 -2 -16 -9z"/>
<path d="M320 7326 c0 -14 4 -27 9 -30 10 -7 20 23 14 42 -8 21 -23 13 -23
-12z"/>
<path d="M3803 7304 c-8 -21 13 -42 28 -27 13 13 5 43 -11 43 -6 0 -13 -7 -17
-16z"/>
<path d="M3703 7013 c-22 -8 -15 -43 7 -43 20 0 26 16 12 36 -4 6 -13 9 -19 7z"/>
<path d="M3637 6810 c3 -11 7 -20 9 -20 2 0 4 9 4 20 0 11 -4 20 -9 20 -5 0
-7 -9 -4 -20z"/>
<path d="M2276 6802 c-15 -14 -3 -212 13 -212 3 0 20 22 38 48 30 45 32 49 21
92 -6 25 -15 50 -20 56 -10 14 -44 24 -52 16z"/>
<path d="M3491 6743 c-31 -32 -53 -46 -68 -44 -16 2 -26 -6 -37 -28 -9 -16
-16 -36 -16 -42 0 -7 -9 -22 -19 -33 -16 -17 -19 -30 -14 -63 l6 -43 33 48
c19 26 34 56 34 68 0 23 29 54 51 54 19 0 112 107 104 120 -11 18 -27 10 -74
-37z"/>
<path d="M2152 6718 c-29 -28 -64 -70 -78 -94 -14 -24 -32 -44 -39 -44 -7 0
-16 -12 -20 -28 -3 -15 -16 -32 -28 -37 -13 -6 -29 -29 -39 -57 -15 -40 -15
-52 -5 -77 l13 -30 31 57 c17 31 36 74 43 95 7 21 19 41 29 44 9 3 24 13 34
22 18 15 19 13 16 -34 -4 -54 10 -67 44 -43 20 15 60 191 55 244 l-3 34 -53
-52z"/>
<path d="M2378 6668 c-7 -18 2 -39 13 -32 12 7 12 44 0 44 -5 0 -11 -6 -13
-12z"/>
<path d="M2470 6583 c0 -10 5 -25 10 -33 12 -19 33 0 28 26 -4 25 -38 31 -38
7z"/>
<path d="M3255 6570 c-9 -29 0 -36 31 -21 29 13 28 35 -3 39 -15 2 -23 -4 -28
-18z"/>
<path d="M2388 6508 c-7 -17 8 -46 18 -35 4 4 3 17 -3 29 -7 17 -11 19 -15 6z"/>
<path d="M3200 6503 c-8 -3 -23 -12 -32 -21 -14 -12 -21 -12 -33 -2 -17 14
-212 6 -257 -12 -27 -10 -44 -39 -34 -57 9 -14 133 -12 169 3 23 9 39 11 51 4
13 -7 23 -5 36 7 14 13 28 16 53 11 53 -10 87 7 87 44 0 30 -8 35 -40 23z"/>
<path d="M3452 6470 c0 -14 2 -19 5 -12 2 6 2 18 0 25 -3 6 -5 1 -5 -13z"/>
<path d="M2250 6412 c-6 -24 -10 -58 -8 -75 l3 -32 23 35 c25 40 28 68 8 95
-13 18 -15 17 -26 -23z"/>
<path d="M2576 6425 c-10 -27 4 -46 25 -34 11 5 25 7 32 2 6 -4 43 -8 82 -9
38 -1 77 -3 85 -5 9 -3 16 4 18 17 3 19 -4 21 -105 32 -134 15 -130 15 -137
-3z"/>
<path d="M3217 6334 c-9 -9 4 -35 14 -28 5 3 9 12 9 20 0 14 -12 19 -23 8z"/>
<path d="M2650 6321 c0 -43 128 -96 149 -62 17 27 0 41 -48 41 -25 0 -58 7
-73 14 -16 8 -28 11 -28 7z"/>
<path d="M2845 6290 c-4 -6 -3 -16 3 -22 6 -6 12 -6 17 2 4 6 3 16 -3 22 -6 6
-12 6 -17 -2z"/>
<path d="M2930 6268 c0 -18 5 -40 10 -48 7 -11 10 -4 10 27 0 23 -4 45 -10 48
-6 4 -10 -7 -10 -27z"/>
<path d="M2410 6210 c0 -5 5 -10 10 -10 6 0 10 5 10 10 0 6 -4 10 -10 10 -5 0
-10 -4 -10 -10z"/>
<path d="M2545 6210 c-7 -12 2 -30 16 -30 12 0 12 27 0 35 -5 3 -12 1 -16 -5z"/>
<path d="M2605 6160 c3 -5 8 -10 11 -10 2 0 4 5 4 10 0 6 -5 10 -11 10 -5 0
-7 -4 -4 -10z"/>
<path d="M2000 6130 c0 -5 5 -10 10 -10 6 0 10 5 10 10 0 6 -4 10 -10 10 -5 0
-10 -4 -10 -10z"/>
<path d="M2247 6103 c-12 -11 -8 -23 8 -23 8 0 15 7 15 15 0 16 -12 20 -23 8z"/>
<path d="M1934 6056 c-8 -22 3 -33 18 -18 9 9 9 15 0 24 -9 9 -13 7 -18 -6z"/>
<path d="M2220 6000 c0 -11 5 -20 10 -20 6 0 10 9 10 20 0 11 -4 20 -10 20 -5
0 -10 -9 -10 -20z"/>
<path d="M2012 5828 c-17 -17 -15 -63 3 -78 8 -7 15 -21 15 -30 0 -26 11 -50
22 -50 11 0 7 42 -10 118 -11 51 -15 55 -30 40z"/>
<path d="M1879 5761 c-62 -64 -87 -167 -57 -238 l11 -28 10 45 c18 90 49 185
63 193 15 8 19 43 7 50 -5 3 -20 -8 -34 -22z"/>
<path d="M1742 5700 c-16 -27 -15 -57 3 -64 22 -8 37 27 25 58 -11 31 -12 31
-28 6z"/>
<path d="M1977 5624 c-4 -4 -7 -20 -7 -36 0 -25 4 -29 23 -26 17 2 22 10 22
33 0 29 -22 45 -38 29z"/>
<path d="M1887 5573 c-4 -3 -7 -24 -7 -46 0 -32 3 -38 16 -33 9 3 18 6 20 6 6
0 5 46 -2 64 -7 17 -16 20 -27 9z"/>
<path d="M2235 5560 c-3 -5 -1 -10 4 -10 6 0 11 5 11 10 0 6 -2 10 -4 10 -3 0
-8 -4 -11 -10z"/>
<path d="M2011 5477 c-6 -16 -11 -67 -11 -114 0 -76 -2 -84 -16 -72 -21 17
-44 63 -44 88 0 21 -64 93 -74 83 -13 -13 -4 -79 14 -107 11 -16 20 -38 20
-48 0 -11 9 -21 20 -24 16 -4 20 -14 20 -49 0 -40 19 -110 25 -89 31 119 53
125 56 15 1 -25 8 -56 15 -70 8 -14 18 -38 24 -53 9 -24 12 -26 30 -17 12 6
23 25 27 41 5 27 7 28 23 14 24 -22 30 -19 30 14 0 41 -35 66 -63 46 -51 -36
-85 37 -67 143 21 118 22 144 1 187 l-19 40 -11 -28z"/>
<path d="M702 5450 c0 -19 2 -27 5 -17 2 9 2 25 0 35 -3 9 -5 1 -5 -18z"/>
<path d="M2241 5414 c0 -11 3 -14 6 -6 3 7 2 16 -1 19 -3 4 -6 -2 -5 -13z"/>
<path d="M736 5383 c-3 -10 -5 -43 -5 -74 1 -32 -2 -71 -6 -88 -5 -25 -2 -35
19 -56 20 -20 26 -36 26 -70 0 -38 3 -45 19 -45 24 0 30 -15 23 -57 -5 -36 11
-63 38 -63 11 0 20 -10 24 -25 4 -14 24 -37 45 -51 22 -14 42 -32 45 -40 7
-19 -18 -70 -39 -77 -19 -8 -20 -46 -1 -53 8 -3 23 -1 34 5 27 14 31 -5 18
-76 -8 -45 -7 -56 9 -73 23 -25 62 -26 67 -3 4 20 -25 153 -48 223 -8 25 -19
62 -25 83 -5 21 -19 51 -31 67 -13 19 -23 50 -26 85 -6 68 -30 76 -55 18 l-16
-38 5 71 c8 101 -11 182 -64 276 -24 43 -46 78 -47 78 -2 0 -6 -8 -9 -17z"/>
<path d="M2077 5324 c-14 -14 -7 -51 13 -69 24 -22 35 -15 27 17 -8 31 -31 61
-40 52z"/>
<path d="M1950 5050 c0 -43 26 -90 50 -90 29 0 28 56 0 65 -11 3 -23 17 -26
31 -9 34 -24 30 -24 -6z"/>
<path d="M2180 4957 c0 -29 3 -35 15 -31 11 4 13 13 9 28 -12 39 -24 41 -24 3z"/>
<path d="M2330 4946 c0 -8 5 -18 10 -21 6 -3 10 3 10 14 0 12 -4 21 -10 21 -5
0 -10 -6 -10 -14z"/>
<path d="M2060 4914 c0 -17 12 -36 35 -57 19 -17 35 -38 35 -46 1 -19 24 -51
37 -51 12 0 33 44 33 69 0 9 -7 26 -15 37 -8 10 -15 27 -15 37 0 18 -40 25
-40 7 0 -19 -39 -10 -45 10 -9 28 -25 25 -25 -6z"/>
<path d="M2235 4873 c8 -31 13 -39 20 -31 9 9 -6 58 -17 58 -6 0 -7 -11 -3
-27z"/>
<path d="M2620 4819 c0 -5 5 -7 10 -4 6 3 10 8 10 11 0 2 -4 4 -10 4 -5 0 -10
-5 -10 -11z"/>
<path d="M2275 4773 c8 -32 13 -39 21 -30 10 9 -5 57 -17 57 -7 0 -9 -10 -4
-27z"/>
<path d="M2060 4757 c0 -8 7 -28 15 -43 l15 -29 0 31 c0 17 -7 37 -15 44 -12
10 -15 10 -15 -3z"/>
<path d="M2088 4615 c-4 -76 7 -99 47 -93 31 5 32 54 1 87 -14 14 -29 37 -34
51 -8 21 -10 12 -14 -45z"/>
<path d="M2890 4590 c0 -5 5 -10 10 -10 6 0 10 5 10 10 0 6 -4 10 -10 10 -5 0
-10 -4 -10 -10z"/>
<path d="M2422 4496 c2 -15 8 -26 13 -26 15 0 12 43 -3 48 -10 3 -13 -4 -10
-22z"/>
<path d="M2136 4455 c-12 -29 -13 -40 -3 -56 6 -10 15 -19 19 -19 4 0 10 -17
14 -37 4 -21 10 -43 15 -48 4 -6 13 -32 20 -58 14 -57 26 -64 70 -42 18 10 53
18 78 19 27 0 46 6 46 13 0 18 -98 100 -103 85 -2 -6 -12 -22 -22 -34 l-19
-23 -25 25 c-13 14 -26 36 -28 50 -3 22 1 26 32 30 25 4 36 11 38 25 4 29 -32
81 -60 87 -12 3 -31 9 -40 13 -13 5 -20 -2 -32 -30z"/>
<path d="M1035 4447 c-8 -30 6 -54 24 -43 15 10 14 28 -3 52 -14 18 -15 18
-21 -9z"/>
<path d="M2870 4376 c0 -8 5 -18 10 -21 6 -3 10 3 10 14 0 12 -4 21 -10 21 -5
0 -10 -6 -10 -14z"/>
<path d="M1310 4287 c0 -8 7 -28 15 -43 l15 -29 0 28 c0 16 -7 35 -15 43 -13
13 -15 13 -15 1z"/>
<path d="M2730 4265 c0 -8 5 -15 10 -15 6 0 10 7 10 15 0 8 -4 15 -10 15 -5 0
-10 -7 -10 -15z"/>
<path d="M2542 4243 c2 -22 8 -28 28 -28 20 0 25 5 25 25 0 20 -6 26 -28 28
-26 3 -28 1 -25 -25z"/>
<path d="M1342 4160 c0 -14 2 -19 5 -12 2 6 2 18 0 25 -3 6 -5 1 -5 -13z"/>
<path d="M1347 4023 c-4 -3 -7 -25 -7 -47 -1 -23 -5 -61 -10 -86 -7 -36 -5
-54 10 -87 29 -67 44 -56 34 25 -4 37 -8 95 -9 129 0 60 -5 79 -18 66z"/>
<path d="M3020 3975 c0 -8 5 -15 10 -15 6 0 10 7 10 15 0 8 -4 15 -10 15 -5 0
-10 -7 -10 -15z"/>
<path d="M2745 3920 c-9 -15 4 -50 19 -50 18 0 36 21 36 42 0 20 -44 26 -55 8z"/>
<path d="M2519 3781 l-24 -20 38 -31 c20 -17 37 -40 37 -51 0 -22 7 -25 68
-32 38 -5 42 -3 42 17 0 17 -10 27 -39 38 -28 11 -40 23 -45 44 -15 57 -38 67
-77 35z"/>
<path d="M1420 3753 c0 -19 41 -83 53 -83 12 0 8 67 -5 77 -27 20 -48 23 -48
6z"/>
<path d="M2700 3740 c0 -11 8 -23 18 -26 9 -3 29 -12 44 -20 14 -8 35 -14 46
-14 10 0 31 -9 46 -21 22 -18 26 -28 26 -74 0 -57 14 -75 58 -75 27 0 38 32
17 45 -46 28 -48 32 -46 86 1 34 -4 62 -13 74 -12 17 -17 18 -41 7 -25 -11
-34 -10 -80 13 -63 30 -75 31 -75 5z"/>
<path d="M1450 3605 c-21 -25 7 -154 30 -140 16 10 12 130 -4 144 -10 9 -16 8
-26 -4z"/>
<path d="M2996 3593 c-14 -15 -4 -35 23 -44 17 -6 34 -22 41 -40 14 -34 18
-35 47 -10 28 23 39 64 21 78 -15 12 -123 24 -132 16z"/>
<path d="M3162 3584 c1 -9 9 -19 16 -22 9 -3 13 2 10 14 -1 9 -9 19 -16 22 -9
3 -13 -2 -10 -14z"/>
<path d="M1331 3504 c0 -11 3 -14 6 -6 3 7 2 16 -1 19 -3 4 -6 -2 -5 -13z"/>
<path d="M1590 3415 c1 -26 2 -28 11 -12 8 14 8 22 0 30 -8 8 -11 3 -11 -18z"/>
<path d="M3080 3369 c0 -14 30 -38 48 -39 17 0 15 15 -4 34 -18 19 -44 21 -44
5z"/>
<path d="M3160 3295 c0 -9 12 -28 26 -42 19 -19 28 -23 37 -14 9 9 8 18 -3 39
-18 31 -60 43 -60 17z"/>
<path d="M3255 3290 c-8 -26 4 -48 16 -29 12 19 11 49 0 49 -5 0 -12 -9 -16
-20z"/>
<path d="M1529 3199 c-8 -16 -8 -28 0 -45 15 -34 41 -31 41 5 0 59 -20 78 -41
40z"/>
<path d="M1407 3158 c-4 -12 -4 -24 -1 -27 6 -7 24 20 24 37 0 21 -17 13 -23
-10z"/>
<path d="M1600 3115 c0 -22 49 -125 60 -125 13 0 -1 70 -20 104 -18 34 -40 45
-40 21z"/>
<path d="M3270 3045 c0 -20 5 -25 23 -25 16 0 37 -15 62 -45 20 -25 49 -48 64
-51 14 -4 32 -11 39 -17 9 -7 12 -2 12 22 0 24 -6 34 -23 40 -13 5 -35 25 -51
45 -22 29 -34 36 -61 36 -19 0 -37 5 -40 10 -11 18 -25 10 -25 -15z"/>
<path d="M3640 2943 c0 -21 3 -24 9 -14 5 8 7 20 4 28 -8 21 -13 15 -13 -14z"/>
<path d="M3536 2943 c-11 -11 -6 -23 9 -23 8 0 15 4 15 9 0 13 -16 22 -24 14z"/>
<path d="M3453 2834 c-16 -77 -16 -106 0 -129 21 -28 25 -8 18 95 l-6 95 -12
-61z"/>
<path d="M1610 2738 c-7 -16 -17 -28 -22 -28 -4 0 -8 -8 -8 -19 0 -13 9 -20
30 -23 28 -4 30 -2 29 26 0 17 -4 40 -8 51 -8 19 -9 18 -21 -7z"/>
<path d="M3574 2635 c4 -20 16 -56 27 -81 10 -25 19 -57 19 -71 0 -17 7 -27
20 -30 11 -3 23 -17 26 -32 6 -25 28 -78 62 -148 8 -18 19 -33 24 -33 13 0 10
38 -6 68 -8 15 -17 49 -21 75 -4 26 -16 59 -27 73 -15 19 -19 35 -15 64 6 43
-5 63 -62 116 -46 43 -55 42 -47 -1z"/>
<path d="M3705 2579 c-10 -15 3 -25 16 -12 7 7 7 13 1 17 -6 3 -14 1 -17 -5z"/>
<path d="M1607 2534 c-11 -11 -8 -102 2 -109 16 -9 32 33 29 72 -3 35 -17 51
-31 37z"/>
<path d="M3771 2114 c0 -11 3 -14 6 -6 3 7 2 16 -1 19 -3 4 -6 -2 -5 -13z"/>
<path d="M3807 2054 c-4 -4 -7 -14 -7 -23 0 -11 3 -12 11 -4 6 6 10 16 7 23
-2 6 -7 8 -11 4z"/>
<path d="M3851 1924 c0 -11 3 -14 6 -6 3 7 2 16 -1 19 -3 4 -6 -2 -5 -13z"/>
<path d="M3887 1607 c-3 -23 -9 -57 -12 -74 -5 -22 -3 -33 4 -33 6 0 11 8 11
18 0 9 7 30 15 46 14 27 12 71 -5 81 -4 3 -10 -14 -13 -38z"/>
<path d="M3884 1426 c-4 -9 -2 -27 3 -39 l10 -22 12 24 c11 19 10 26 -3 39
-14 14 -16 14 -22 -2z"/>
<path d="M3777 802 c-11 -12 -17 -31 -15 -49 l3 -28 18 33 c24 44 20 73 -6 44z"/>
<path d="M3705 680 c-3 -11 -3 -25 1 -31 10 -16 35 18 27 37 -7 20 -21 17 -28
-6z"/>
</g>
</svg>
