<?xml version="1.0" standalone="no"?>
<!DOCTYPE svg PUBLIC "-//W3C//DTD SVG 20010904//EN"
 "http://www.w3.org/TR/2001/REC-SVG-20010904/DTD/svg10.dtd">
<svg version="1.0" xmlns="http://www.w3.org/2000/svg"
 width="438.000000pt" height="1093.000000pt" viewBox="0 0 438.000000 1093.000000"
 preserveAspectRatio="xMidYMid meet">

<g transform="translate(0.000000,1093.000000) scale(0.100000,-0.100000)"
fill="#000000" stroke="none">
<path d="M2450 10838 c-112 -8 -241 -31 -265 -48 -5 -3 -30 -12 -55 -20 -25
-7 -64 -21 -87 -31 -24 -11 -45 -19 -48 -19 -3 0 -35 -16 -71 -35 -36 -19 -74
-35 -84 -35 -10 0 -20 -3 -22 -7 -1 -5 -23 -18 -48 -31 -25 -12 -63 -38 -85
-57 -22 -19 -45 -35 -52 -35 -6 0 -22 -12 -35 -28 -12 -15 -38 -34 -55 -41
-21 -8 -44 -31 -63 -62 -26 -43 -33 -49 -54 -43 -20 5 -34 -3 -73 -43 -27 -26
-61 -65 -76 -85 -16 -21 -34 -38 -42 -38 -16 0 -85 -67 -185 -180 -36 -40 -86
-94 -112 -120 -25 -26 -54 -63 -64 -81 -9 -19 -27 -47 -40 -62 -13 -16 -27
-41 -30 -55 -10 -40 -44 -103 -52 -98 -20 12 -41 -26 -73 -131 -7 -22 -21 -38
-44 -49 -35 -16 -47 -39 -59 -115 -4 -21 -19 -47 -36 -64 -30 -28 -50 -78 -70
-168 -6 -27 -21 -59 -34 -72 -15 -15 -29 -46 -36 -79 -6 -30 -22 -71 -36 -91
-25 -37 -43 -99 -44 -148 0 -16 -10 -42 -21 -59 -15 -20 -24 -53 -29 -102 -4
-39 -14 -85 -23 -103 -12 -21 -17 -57 -17 -107 0 -49 -5 -79 -13 -88 -8 -7
-17 -47 -20 -89 -4 -41 -13 -91 -21 -110 -11 -26 -12 -46 -6 -75 13 -53 12
-111 0 -135 -8 -13 -8 -37 0 -78 7 -37 7 -67 1 -83 -26 -69 -4 -491 43 -843 9
-66 19 -127 21 -135 3 -8 12 -66 20 -127 9 -62 22 -131 30 -154 8 -23 15 -58
15 -78 0 -37 34 -210 66 -335 15 -59 16 -87 8 -195 -17 -231 20 -793 66 -996
36 -161 158 -512 219 -632 10 -21 27 -65 37 -98 10 -33 28 -70 39 -82 11 -12
27 -34 35 -50 41 -82 136 -236 156 -252 17 -13 24 -30 26 -67 4 -66 23 -54 22
14 -1 28 2 52 7 52 21 0 79 -35 84 -50 3 -10 14 -25 25 -35 16 -14 20 -31 20
-77 0 -52 -3 -59 -23 -67 -35 -13 -74 -2 -97 28 -34 45 -70 101 -84 134 -8 18
-31 50 -51 72 -20 22 -43 57 -52 78 -8 21 -24 43 -34 51 -12 8 -23 35 -30 72
-7 32 -16 63 -20 68 -15 16 -10 -96 6 -149 9 -27 18 -95 21 -150 2 -55 9 -131
14 -170 5 -38 12 -119 15 -180 3 -60 10 -171 16 -245 6 -74 10 -158 10 -187
-1 -28 3 -70 9 -93 7 -28 8 -52 1 -77 -8 -30 -6 -45 11 -85 19 -45 20 -55 9
-100 -10 -38 -11 -66 -2 -126 6 -42 16 -140 22 -217 5 -77 14 -176 18 -220 5
-44 16 -150 25 -235 10 -85 21 -171 26 -190 6 -19 10 -60 10 -91 0 -31 7 -78
15 -105 8 -27 15 -67 15 -88 0 -24 6 -43 16 -50 17 -13 33 -78 34 -141 0 -36
54 -186 78 -218 4 -7 21 -46 36 -87 39 -103 143 -260 173 -260 15 0 28 -11 39
-32 25 -48 93 -138 105 -138 5 0 19 -9 31 -20 12 -11 34 -20 49 -20 15 0 31
-4 34 -10 3 -5 17 -10 29 -10 13 0 29 -7 36 -15 7 -8 18 -15 26 -15 7 0 20
-10 28 -22 11 -16 26 -22 55 -22 27 -1 45 -7 54 -19 11 -16 26 -19 86 -18 58
0 79 -4 101 -19 33 -23 138 -28 170 -8 15 9 23 10 28 2 30 -46 152 -45 243 2
28 15 124 9 146 -9 14 -10 103 11 103 25 0 4 6 8 13 8 7 0 23 9 35 20 23 22
71 27 89 9 8 -8 17 -8 31 0 11 6 37 11 57 11 20 0 49 8 63 18 15 10 43 25 62
34 117 54 169 82 195 104 16 13 39 27 51 30 12 3 30 21 40 39 10 19 27 39 38
45 12 6 32 26 45 45 13 19 38 43 56 53 19 12 35 31 39 48 4 16 30 63 58 104
30 44 58 101 69 139 10 35 25 73 32 85 8 12 18 46 22 76 4 30 14 73 22 95 7
22 18 76 23 120 5 44 14 103 19 130 12 63 12 313 0 465 -5 63 -13 187 -19 275
-5 88 -14 173 -20 189 -5 16 -10 44 -10 62 0 18 -7 75 -15 126 -8 51 -26 165
-39 253 -14 88 -43 275 -65 415 -69 441 -81 531 -96 699 -15 174 -28 219 -38
127 -4 -44 -18 -77 -66 -158 -33 -57 -67 -111 -77 -120 -9 -10 -22 -27 -28
-39 -11 -22 -26 -33 -58 -43 -9 -2 -31 -27 -48 -53 -18 -27 -45 -55 -60 -61
-16 -7 -47 -37 -70 -67 -41 -53 -41 -54 -34 -117 7 -58 6 -62 -9 -49 -11 8
-17 28 -17 51 0 60 -7 70 -50 70 -35 0 -42 5 -72 46 -18 26 -43 50 -55 55 -24
9 -63 101 -63 148 0 16 -14 61 -30 101 -17 40 -28 75 -26 77 2 2 16 -2 31 -9
24 -11 29 -10 41 7 8 10 17 35 20 54 4 20 19 68 35 106 15 39 31 88 34 110 4
22 17 51 30 65 12 14 34 47 49 73 46 80 39 48 -14 -69 -51 -112 -69 -193 -70
-303 0 -37 -7 -64 -21 -88 -52 -83 -6 -226 89 -280 24 -14 92 -18 92 -5 0 4
13 13 28 20 16 7 33 22 39 35 72 154 72 153 171 245 98 91 100 94 175 244 162
326 292 682 347 948 18 85 43 196 57 245 39 140 83 327 83 354 0 13 6 47 14
75 23 82 44 194 58 301 17 134 17 615 0 720 -50 321 -48 284 -24 361 53 171
101 438 129 724 21 223 24 764 4 960 -7 74 -16 176 -20 225 -4 50 -19 146 -34
215 -15 69 -38 181 -52 250 -53 268 -140 549 -207 670 -17 30 -37 69 -45 85
-8 17 -19 39 -25 50 -6 11 -22 41 -35 66 -14 26 -35 52 -48 59 -13 7 -29 26
-34 42 -12 34 -95 145 -129 173 -14 11 -36 32 -50 48 -14 15 -31 27 -39 27 -7
0 -13 4 -13 10 0 5 -21 24 -47 41 -27 18 -49 36 -51 41 -2 4 -10 8 -17 8 -7 0
-15 7 -19 15 -3 8 -11 12 -19 9 -8 -3 -20 2 -27 11 -7 8 -23 15 -36 15 -12 0
-26 5 -29 10 -3 6 -15 10 -26 10 -10 0 -19 5 -19 10 0 6 -11 10 -25 10 -14 0
-35 5 -48 12 -12 6 -30 15 -39 20 -10 4 -43 8 -74 8 -30 0 -63 4 -72 9 -24 12
-208 17 -322 9z m505 -259 c5 -5 17 -9 27 -9 24 0 23 -12 -2 -27 -22 -15 -74
-7 -91 13 -27 33 33 54 66 23z m165 -24 c0 -34 -23 -41 -54 -18 -34 24 -32 31
7 36 17 2 35 5 40 5 4 1 7 -9 7 -23z m-346 -14 c3 -5 -1 -14 -9 -21 -12 -10
-18 -10 -30 0 -13 11 -13 15 -3 21 17 11 35 11 42 0z m-386 -33 c-3 -7 -17
-14 -31 -16 -21 -3 -26 0 -21 12 7 19 58 22 52 4z m-74 -7 c3 -5 -3 -20 -13
-32 -18 -22 -20 -22 -26 -6 -13 33 22 67 39 38z m-126 -13 c-3 -7 -12 -14 -21
-16 -12 -2 -15 1 -11 12 7 19 38 22 32 4z m1067 -115 c55 4 77 2 85 -8 6 -8
21 -15 32 -17 28 -4 35 -26 11 -34 -10 -3 -29 -11 -42 -17 -18 -9 -25 -9 -28
-1 -2 6 -10 20 -17 30 -13 18 -15 18 -33 2 -24 -22 -121 -28 -133 -7 -5 7 -17
14 -26 14 -10 0 -19 6 -22 14 -3 9 1 11 15 7 13 -4 26 1 38 14 14 15 21 17 32
9 9 -8 39 -10 88 -6z m-225 -37 c0 -23 -48 -59 -70 -53 -13 3 -23 0 -27 -9 -4
-10 -15 -12 -44 -8 -26 4 -44 2 -55 -7 -9 -7 -32 -12 -51 -11 -19 2 -41 -2
-48 -8 -8 -7 -21 -7 -36 -1 -19 7 -29 4 -49 -14 -20 -18 -30 -21 -49 -14 l-24
9 27 25 c15 14 36 25 46 25 10 0 22 5 25 10 3 6 17 10 30 10 13 0 27 5 30 10
3 6 26 10 51 10 25 0 56 7 69 16 14 9 32 13 45 9 12 -4 26 -2 33 3 13 11 65
20 85 14 6 -2 12 -10 12 -16z m-502 -34 c2 -6 -6 -10 -17 -9 -22 1 -26 8 -14
21 9 9 26 3 31 -12z m-174 -58 c22 -9 20 -27 -7 -52 -38 -35 -58 2 -24 46 11
14 10 14 31 6z m89 -18 c8 -19 -15 -37 -32 -26 -17 10 -7 40 13 40 7 0 16 -6
19 -14z m-748 -71 c0 -17 -6 -19 -35 -17 -43 5 -46 7 -30 27 19 23 65 16 65
-10z m318 -38 c-6 -34 -28 -65 -39 -54 -4 3 1 22 10 41 9 19 16 39 16 46 0 6
4 8 10 5 5 -3 7 -20 3 -38z m852 33 c3 -5 15 -10 26 -10 22 0 58 -36 59 -59 0
-11 -3 -11 -16 0 -13 10 -17 10 -24 -2 -8 -11 -13 -12 -29 -2 -10 6 -28 9 -40
6 -18 -4 -21 -1 -21 24 0 40 29 68 45 43z m275 -15 c0 -14 -4 -25 -10 -25 -5
0 -10 11 -10 25 0 14 5 25 10 25 6 0 10 -11 10 -25z m205 15 c9 -14 119 -12
133 2 9 9 15 9 24 0 7 -7 31 -12 55 -12 24 0 43 -4 43 -8 0 -17 -37 -42 -53
-36 -11 4 -19 0 -23 -10 -7 -18 -35 -21 -50 -6 -13 13 -110 15 -173 5 -44 -7
-60 2 -61 32 0 28 91 56 105 33z m-272 -61 c-17 -17 -37 -1 -22 17 8 10 15 12
23 4 7 -7 7 -13 -1 -21z m123 -16 c-10 -10 -19 5 -10 18 6 11 8 11 12 0 2 -7
1 -15 -2 -18z m-553 2 c4 -8 2 -17 -3 -20 -6 -4 -10 3 -10 14 0 25 6 27 13 6z
m-379 -129 c-9 -16 -14 -37 -11 -52 7 -36 -50 -101 -79 -90 -27 10 -28 10 -36
-16 -4 -17 -6 -11 -7 21 -1 33 2 42 13 38 8 -3 19 5 26 18 7 12 23 28 35 35
13 7 29 27 36 44 7 17 17 37 23 45 19 25 19 -14 0 -43z m1226 18 c12 -31 6
-44 -20 -44 -21 0 -37 40 -25 59 11 19 35 12 45 -15z m-472 -7 c2 -10 -4 -30
-14 -44 -16 -25 -17 -26 -30 -8 -8 10 -14 26 -14 35 0 38 51 53 58 17z m-119
-3 c25 -5 31 -11 29 -28 -2 -13 -9 -20 -18 -17 -35 8 -45 4 -54 -24 -14 -41
-16 -42 -29 -24 -7 8 -25 24 -40 34 -28 18 -28 18 -7 32 18 13 60 29 81 32 4
1 21 -2 38 -5z m502 -22 c-14 -27 -39 -45 -51 -37 -20 13 -9 35 23 44 17 5 33
10 35 10 1 1 -2 -7 -7 -17z m186 2 c3 -8 17 -20 31 -25 14 -5 22 -13 18 -17
-9 -8 -65 -12 -88 -6 -22 6 -31 33 -17 50 15 19 48 18 56 -2z m-1032 -14 c4
-6 -1 -31 -11 -55 -18 -48 -48 -61 -59 -26 -5 15 -15 19 -50 19 -36 0 -47 -4
-60 -24 -13 -21 -23 -25 -53 -22 -35 3 -37 5 -37 37 0 32 3 35 50 49 28 8 78
15 112 16 34 0 65 4 69 9 11 10 32 9 39 -3z m135 -16 c0 -21 -38 -38 -56 -23
-21 17 -17 37 9 41 30 5 47 -1 47 -18z m-690 -3 c0 -6 -4 -13 -10 -16 -5 -3
-10 1 -10 9 0 9 5 16 10 16 6 0 10 -4 10 -9z m970 -86 c0 -8 -4 -15 -10 -15
-5 0 -10 7 -10 15 0 8 5 15 10 15 6 0 10 -7 10 -15z m585 -5 c4 -6 15 -8 26
-5 14 5 21 0 29 -20 17 -44 4 -72 -38 -79 -31 -5 -40 -2 -57 19 -23 28 -62 33
-79 9 -10 -12 -17 -13 -41 -4 -17 6 -39 19 -50 29 -11 10 -27 21 -35 23 -10 3
-5 9 15 19 38 18 220 25 230 9z m167 -36 c-4 -22 -34 -44 -62 -44 -11 0 -21
45 -14 64 6 17 53 26 70 14 6 -5 9 -20 6 -34z m-2343 9 c37 -22 39 -30 6 -45
-19 -8 -28 -8 -40 2 -12 10 -19 9 -40 -4 -27 -18 -55 -21 -55 -6 0 15 -36 12
-50 -5 -17 -21 -30 -19 -30 4 0 22 19 31 68 31 20 0 51 9 67 20 37 24 36 24
74 3z m351 -13 c0 -29 -29 -70 -50 -70 -16 0 -41 46 -34 64 3 9 17 16 29 16
13 0 27 5 30 10 12 20 25 9 25 -20z m1340 15 c14 -17 43 -19 70 -5 12 7 38 7
67 3 42 -7 48 -12 51 -36 4 -32 -6 -34 -40 -8 -24 20 -25 20 -57 0 -24 -14
-37 -17 -51 -9 -10 5 -27 10 -37 10 -29 0 -57 25 -50 44 8 20 31 21 47 1z
m-1552 -41 c-24 -24 -44 -7 -22 17 12 13 21 16 28 9 7 -7 5 -15 -6 -26z m109
10 c-9 -9 -28 6 -21 18 4 6 10 6 17 -1 6 -6 8 -13 4 -17z m1136 -36 c12 -7 45
-34 72 -60 28 -25 61 -48 74 -50 55 -7 81 -91 81 -259 0 -88 -2 -99 -20 -109
-26 -14 -26 -56 0 -95 11 -16 20 -43 20 -58 0 -59 8 -63 116 -55 179 13 201
16 223 23 12 3 37 1 57 -5 25 -9 38 -9 48 -1 7 6 34 14 60 17 44 6 46 6 46
-18 0 -40 -24 -54 -70 -41 -32 8 -40 7 -45 -5 -4 -10 -14 -13 -34 -9 -23 5
-39 -2 -82 -33 -54 -41 -77 -48 -96 -29 -15 15 -75 -27 -71 -50 3 -12 13 -15
43 -13 22 2 76 5 120 7 44 3 121 7 170 11 186 12 227 10 239 -8 12 -20 2 -44
-28 -62 -14 -9 -22 -5 -41 19 l-24 29 -10 -28 c-6 -15 -11 -32 -11 -37 0 -14
-16 -11 -30 6 -9 11 -24 14 -54 10 -76 -10 -93 -16 -125 -39 -19 -14 -40 -22
-51 -19 -34 9 -25 -34 10 -52 23 -12 38 -13 67 -6 21 6 54 14 74 19 20 5 74 6
119 2 59 -5 90 -4 107 5 25 13 111 9 127 -5 17 -16 -4 -55 -39 -74 -32 -18
-36 -18 -53 -3 -13 12 -21 14 -29 6 -8 -8 -36 -8 -94 -1 -72 9 -87 8 -101 -5
-11 -10 -26 -13 -43 -9 -21 5 -27 2 -35 -19 -5 -14 -16 -25 -24 -25 -8 0 -31
-10 -51 -21 -26 -16 -35 -27 -33 -43 2 -13 9 -19 18 -17 8 3 31 5 51 5 20 1
43 9 53 19 20 19 32 22 41 7 3 -5 29 -12 56 -16 60 -8 81 -35 61 -79 -15 -33
-29 -32 -50 5 -13 23 -22 29 -37 25 -21 -7 -51 -13 -72 -14 -14 -1 -27 -54
-19 -79 11 -33 151 -51 223 -28 15 5 31 -3 57 -28 33 -30 36 -38 31 -72 -3
-22 -1 -46 4 -54 8 -12 14 -10 35 13 14 15 34 27 45 27 11 0 29 12 40 26 l21
27 0 -28 c0 -28 28 -85 42 -85 13 0 9 -28 -4 -32 -7 -3 -24 1 -38 9 -32 16
-68 16 -100 0 -21 -11 -30 -10 -57 6 -27 15 -33 16 -33 4 0 -8 -11 -26 -25
-41 -14 -15 -25 -38 -25 -52 0 -17 -8 -27 -26 -34 -20 -8 -25 -16 -22 -38 3
-26 5 -27 51 -24 27 2 54 -2 62 -8 9 -8 17 -4 29 15 19 28 51 33 60 9 5 -13
14 -14 47 -9 46 8 59 -2 59 -45 0 -62 -84 -113 -177 -108 -37 2 -57 -1 -60 -9
-3 -8 8 -11 34 -10 65 2 137 -3 151 -11 7 -5 14 -19 17 -32 7 -35 15 -37 15
-4 0 39 10 74 21 74 6 0 7 -27 3 -63 -5 -52 -3 -69 11 -90 21 -32 14 -54 -17
-59 -20 -3 -24 -10 -28 -58 -3 -30 -11 -65 -18 -77 -10 -18 -10 -28 -1 -44 7
-14 9 -39 4 -68 -4 -25 -6 -90 -5 -143 1 -60 -2 -98 -8 -98 -11 0 -17 18 -53
150 -43 164 -163 516 -222 655 -73 173 -181 397 -217 450 -15 22 -48 72 -73
110 -90 134 -155 216 -200 252 -13 10 -36 37 -51 61 -15 23 -34 42 -44 42 -10
0 -24 9 -32 20 -8 11 -21 20 -29 20 -7 0 -21 8 -30 18 -9 9 -28 23 -43 31 -32
16 -39 51 -27 141 13 94 18 110 33 110 8 0 27 25 42 55 23 49 26 64 22 128 -5
79 -40 156 -82 180 -48 27 -141 56 -150 47 -6 -6 -23 -10 -38 -10 -15 0 -28
-4 -28 -10 0 -5 -7 -10 -15 -10 -8 0 -15 -4 -15 -10 0 -5 -5 -10 -10 -10 -20
0 -61 -50 -75 -91 -8 -23 -15 -73 -15 -111 0 -74 14 -110 59 -157 22 -23 23
-30 17 -100 -3 -41 -12 -81 -19 -89 -8 -7 -45 -14 -93 -16 -43 -2 -91 -7 -106
-11 -24 -6 -29 -3 -38 19 -11 30 -17 31 -39 13 -9 -7 -34 -19 -55 -25 -45 -13
-76 -2 -76 27 0 10 -7 24 -15 31 -13 11 -20 9 -39 -9 -17 -16 -31 -21 -45 -16
-14 4 -26 -1 -42 -19 -27 -31 -39 -25 -39 18 0 53 33 76 105 72 33 -2 67 -7
76 -10 9 -4 32 2 53 13 20 12 48 21 61 21 14 0 25 5 25 10 0 6 40 10 100 10
84 0 101 3 108 18 12 23 4 42 -18 42 -24 0 -30 19 -30 95 0 35 -4 67 -10 70
-13 8 -13 70 0 113 5 19 27 54 50 78 22 24 48 60 57 79 11 23 24 35 37 35 12
0 32 9 46 20 14 11 37 20 52 20 15 0 30 5 33 10 8 13 11 13 38 -2z m-553 -27
c0 -22 -25 -45 -40 -36 -11 7 -14 38 -3 48 14 15 43 7 43 -12z m210 15 c0 -2
-34 -37 -75 -79 -41 -41 -75 -69 -75 -62 0 7 6 15 14 18 7 3 16 22 19 43 8 50
42 84 84 84 18 0 33 -2 33 -4z m777 -96 c1 -24 4 -58 8 -76 6 -36 -8 -46 -23
-16 -13 23 -24 120 -16 133 13 22 29 0 31 -41z m-171 29 c8 -14 -11 -33 -25
-25 -11 7 -4 36 9 36 5 0 12 -5 16 -11z m682 5 c49 -6 52 -8 52 -36 0 -16 -5
-38 -11 -49 -10 -19 -11 -19 -40 6 -35 29 -45 31 -65 10 -24 -24 -60 -18 -83
13 -11 15 -17 33 -13 39 13 21 72 27 160 17z m-220 -37 c2 -10 1 -30 -2 -43
-6 -23 -11 -25 -54 -22 -43 3 -47 5 -50 31 -6 50 3 58 55 55 37 -2 49 -7 51
-21z m-1648 -72 c0 -61 -1 -65 -22 -65 -13 0 -33 -3 -45 -6 -33 -9 -31 24 2
36 18 7 28 21 36 55 6 25 15 45 20 45 5 0 9 -29 9 -65z m-260 1 c0 -62 -7 -72
-32 -49 -19 17 -21 17 -50 0 -35 -20 -64 -22 -71 -4 -4 7 -8 4 -12 -10 -4 -12
-13 -19 -20 -17 -7 3 -24 0 -36 -7 -33 -17 -61 19 -57 75 l3 41 70 1 c39 0 80
5 92 10 13 5 43 10 68 11 l45 2 0 -53z m140 8 c0 -45 -24 -42 -28 4 -2 24 1
32 12 32 12 0 16 -10 16 -36z m-577 3 c11 11 135 15 141 4 13 -21 -22 -81 -58
-98 -41 -19 -61 -9 -71 38 -9 40 -23 37 -23 -5 0 -19 -3 -39 -6 -44 -3 -5 -33
-10 -66 -11 -50 -1 -62 2 -72 19 -17 27 -23 25 -38 -9 -6 -16 -21 -38 -32 -48
-20 -17 -20 -17 -12 22 13 74 30 110 50 110 10 0 25 4 32 8 8 5 19 3 29 -5 13
-10 17 -10 20 0 3 6 15 12 28 12 13 0 27 5 30 10 4 7 12 7 24 0 10 -5 21 -7
24 -3z m980 -71 c27 -25 36 -60 17 -71 -6 -3 -13 1 -16 9 -3 8 -21 24 -40 35
-39 23 -53 49 -33 61 15 10 34 1 72 -34z m90 8 c4 -4 -3 -15 -15 -26 -25 -21
-32 -18 -23 11 6 20 25 28 38 15z m1155 -36 c3 -23 0 -28 -20 -28 -29 0 -38
-7 -67 -48 -17 -25 -26 -30 -36 -22 -9 7 -16 6 -25 -5 -26 -32 -41 31 -18 79
10 23 12 24 23 9 12 -16 14 -16 39 1 15 9 30 24 33 32 4 10 16 14 37 12 25 -2
32 -8 34 -30z m418 17 c4 -9 1 -29 -6 -45 -11 -27 -16 -29 -51 -26 -31 3 -46
-1 -70 -21 -16 -14 -33 -23 -36 -19 -4 3 -14 -1 -24 -10 -13 -12 -22 -13 -37
-5 -25 13 -68 99 -56 111 5 5 60 11 122 12 63 1 116 6 118 10 9 14 34 9 40 -7z
m-2056 -79 c0 -29 -85 -119 -108 -114 -28 6 -19 78 13 105 14 12 32 20 39 17
8 -3 17 -1 21 5 12 20 35 12 35 -13z m-171 -2 c7 -7 20 -107 15 -116 -3 -4
-23 -8 -45 -8 -21 0 -39 -4 -39 -10 0 -5 -20 -10 -45 -10 l-45 0 16 -25 c9
-14 24 -25 33 -26 10 0 11 -2 3 -6 -6 -2 -9 -9 -6 -15 4 -5 15 -1 28 10 21 20
55 29 136 38 25 3 54 9 65 14 42 18 74 17 91 -1 21 -23 37 -24 54 -4 20 24 40
18 40 -11 0 -35 -19 -67 -35 -60 -8 3 -23 -6 -34 -19 -13 -17 -29 -25 -49 -25
-17 0 -33 -4 -36 -9 -7 -10 -47 -19 -141 -31 -38 -5 -101 -14 -140 -20 -38 -6
-105 -9 -147 -5 -61 4 -83 2 -102 -10 -23 -15 -25 -14 -54 21 -29 35 -30 36
-41 15 -9 -16 -21 -21 -53 -21 -25 0 -49 -7 -60 -17 -17 -15 -19 -15 -32 2
-11 16 -16 17 -29 6 -13 -10 -17 -9 -26 8 -14 25 -14 88 0 96 5 4 19 -1 30
-11 10 -9 22 -14 26 -11 3 4 13 -3 21 -14 17 -25 32 -10 32 34 0 22 4 27 24
27 14 0 35 -4 48 -9 15 -5 42 -5 69 1 24 5 86 14 138 19 94 9 131 23 112 42
-6 6 -23 11 -38 13 -59 6 -136 31 -148 47 -16 23 -23 21 -27 -5 -2 -18 -10
-22 -43 -23 -22 -1 -47 -5 -54 -10 -10 -5 -20 -1 -31 13 -17 21 -17 21 -26
-10 -11 -38 -30 -47 -39 -19 -3 12 -15 21 -26 21 -10 0 -19 5 -19 10 0 20 -19
9 -22 -12 -2 -13 -11 -24 -22 -26 -17 -4 -18 1 -14 61 7 78 14 93 35 76 11
-10 22 -10 50 0 23 9 38 10 45 3 5 -5 27 -7 49 -5 23 3 45 1 53 -6 11 -9 17
-8 28 7 10 15 30 20 87 24 41 3 88 2 106 -3 22 -6 42 -5 63 4 28 11 159 12
171 1z m261 -65 c0 -4 -7 -15 -16 -23 -29 -30 -46 4 -23 46 11 21 12 21 25 3
8 -10 14 -22 14 -26z m564 5 c7 -19 -9 -82 -28 -107 -7 -9 -33 -21 -57 -27
-76 -16 -136 -35 -150 -47 -11 -9 -19 -7 -36 7 -13 10 -23 25 -23 33 0 8 -7
28 -15 43 -17 33 -20 74 -5 74 21 0 42 -49 35 -81 -5 -22 -4 -29 4 -25 6 4 11
17 11 29 0 44 23 71 70 83 25 6 59 9 75 7 17 -3 46 2 65 11 44 19 47 19 54 0z
m1156 -37 c0 -29 -5 -35 -42 -52 -24 -11 -49 -18 -56 -17 -7 2 -28 -6 -46 -17
-18 -12 -43 -21 -54 -21 -11 0 -24 -4 -27 -10 -9 -14 -78 -13 -93 2 -8 8 -15
8 -24 1 -7 -6 -23 -13 -36 -16 -17 -4 -23 0 -28 20 -5 19 1 31 28 56 19 18 39
41 45 51 12 22 30 14 43 -20 10 -25 38 -32 58 -12 8 8 15 8 24 1 7 -6 27 -14
45 -18 27 -5 36 -2 54 19 13 14 28 26 35 26 6 0 22 9 35 20 33 27 39 25 39
-13z m113 -32 c-1 -16 -9 -36 -18 -44 -15 -15 -17 -14 -30 3 -13 16 -12 23 3
48 21 37 48 33 45 -7z m-2863 -121 c0 -33 -33 -30 -38 4 -3 17 2 22 17 22 16
0 21 -6 21 -26z m3080 -56 c0 -19 -13 -33 -30 -33 -9 0 -17 -14 -21 -38 -7
-44 -5 -42 -51 -62 -41 -17 -42 -17 -58 43 -11 42 -10 45 17 70 22 22 39 28
86 30 42 2 57 0 57 -10z m-1983 -16 c18 -11 32 -57 23 -72 -5 -8 -15 -10 -26
-6 -12 5 -24 -1 -39 -20 -26 -32 -80 -52 -163 -61 -34 -3 -65 -10 -68 -14 -3
-5 -23 -9 -44 -9 -21 0 -42 -4 -45 -10 -9 -15 -268 -13 -302 2 -36 16 -43 26
-43 64 0 52 -3 52 265 71 39 3 76 10 83 15 9 8 18 6 31 -6 16 -15 23 -16 43
-5 13 7 52 16 88 20 87 10 159 24 167 32 8 9 15 9 30 -1z m-1137 -81 c69 7
147 3 177 -10 25 -10 36 -10 55 0 12 7 49 14 80 16 l57 3 11 -38 c12 -46 12
-45 0 -77 -10 -26 -11 -27 -36 -10 -17 11 -29 13 -37 7 -27 -22 -149 -35 -180
-19 -11 5 -23 5 -30 -1 -24 -19 -83 -23 -97 -7 -7 8 -10 15 -6 15 3 0 -3 9
-14 20 -11 11 -20 24 -20 30 0 16 -46 23 -69 10 -18 -9 -21 -8 -21 10 0 24 58
63 80 54 8 -4 31 -5 50 -3z m1578 -38 c3 -21 -21 -43 -82 -73 -16 -8 -48 -34
-71 -57 -32 -32 -51 -43 -87 -48 -26 -4 -48 -3 -52 3 -3 5 -27 7 -54 4 -50 -4
-66 5 -73 42 -7 35 -28 29 -45 -13 -8 -22 -27 -47 -41 -56 -24 -16 -26 -16
-48 5 l-24 23 -25 -30 c-22 -26 -36 -31 -111 -42 -48 -7 -147 -14 -221 -15
-115 -2 -138 0 -162 16 -34 23 -51 23 -59 1 -13 -35 -45 -54 -77 -46 -17 4
-42 6 -56 4 -99 -9 -152 -13 -197 -13 -29 1 -61 1 -70 1 -10 0 -66 -3 -125 -5
-95 -5 -108 -8 -113 -25 -4 -10 -13 -19 -21 -19 -18 0 -18 -2 7 78 26 82 50
106 101 99 20 -3 40 -2 43 2 9 9 376 16 448 8 24 -2 41 1 49 10 8 10 25 12 63
8 32 -4 61 -3 73 4 12 6 68 14 124 16 189 10 214 12 239 25 13 8 53 14 89 15
36 2 72 5 80 8 44 16 267 47 339 47 31 0 60 8 86 24 47 29 69 29 73 -1z m1562
-50 c0 -14 -11 -40 -24 -57 -21 -28 -28 -31 -65 -28 -40 4 -41 5 -41 41 0 60
43 83 72 39 16 -24 38 -17 38 13 0 10 5 19 10 19 6 0 10 -12 10 -27z m-1463
-190 c-2 -16 -4 -3 -4 27 0 30 2 43 4 28 2 -16 2 -40 0 -55z m1478 37 c3 -6 3
-20 0 -31 -6 -19 -9 -20 -22 -6 -9 9 -13 23 -10 31 7 18 23 21 32 6z m-1875
-15 c0 -24 -66 -105 -85 -105 -3 0 -24 -18 -46 -40 -23 -22 -48 -40 -55 -40
-8 0 -26 -19 -40 -42 -15 -23 -65 -81 -113 -129 -47 -47 -97 -102 -111 -120
-34 -46 -127 -139 -139 -139 -5 0 -14 -15 -20 -33 -12 -35 -138 -177 -158
-177 -6 0 -19 -20 -29 -45 -10 -26 -43 -73 -81 -113 -35 -37 -72 -85 -83 -107
-23 -47 -87 -135 -110 -152 -8 -6 -38 -54 -65 -106 -31 -60 -58 -100 -72 -106
-14 -7 -23 -19 -23 -33 0 -13 -10 -39 -22 -58 -12 -19 -50 -93 -86 -165 -35
-71 -74 -146 -86 -165 -11 -19 -26 -53 -32 -75 -7 -22 -23 -71 -36 -110 -14
-38 -38 -113 -53 -165 -33 -108 -50 -138 -41 -70 3 25 9 73 12 108 6 59 5 64
-15 69 -23 6 -27 32 -11 63 6 10 13 43 17 72 11 91 10 93 -14 91 -21 -3 -23 1
-23 51 0 29 -5 68 -11 85 -7 18 -8 36 -3 40 5 4 41 5 79 1 53 -5 73 -4 81 7 6
7 31 14 55 16 55 3 49 22 -6 23 -22 0 -51 6 -63 13 -12 7 -26 10 -31 7 -5 -3
-14 1 -21 9 -10 13 -6 25 24 70 29 44 41 54 63 54 16 -1 45 4 66 10 20 6 53
15 73 20 44 11 62 27 48 41 -6 6 -35 4 -84 -6 -41 -8 -88 -13 -105 -11 -20 3
-40 -2 -58 -15 l-27 -20 -36 31 c-19 17 -39 31 -44 31 -5 0 -14 -18 -20 -40
-6 -22 -15 -40 -20 -40 -6 0 -5 12 1 28 6 15 14 51 18 81 5 50 9 55 35 62 35
10 56 -4 56 -35 0 -12 6 -30 13 -40 12 -16 14 -16 26 -3 14 18 11 84 -4 79 -5
-2 -16 18 -25 45 -12 38 -22 51 -50 64 -19 10 -39 15 -44 12 -13 -8 -26 18
-26 54 0 29 3 32 38 38 21 3 43 5 50 3 6 -2 17 5 25 16 11 15 17 16 35 7 12
-7 43 -8 80 -5 39 4 62 3 66 -5 10 -16 51 -14 66 4 8 10 31 15 66 15 29 0 56
5 59 10 3 6 26 10 50 10 60 0 145 33 145 57 0 17 -55 11 -96 -10 -16 -8 -35
-12 -42 -10 -7 3 -21 -2 -31 -11 -15 -14 -44 -17 -173 -17 -113 -1 -161 2
-176 12 -18 11 -26 11 -42 1 -25 -15 -53 -15 -69 1 -10 10 -15 8 -27 -7 -8
-11 -14 -28 -14 -38 0 -10 -4 -18 -10 -18 -13 0 -13 32 1 106 15 81 20 86 98
83 36 -1 121 4 189 11 68 6 133 9 144 6 13 -3 31 3 46 15 18 14 40 19 76 18
72 -1 117 6 144 20 13 7 36 10 51 6 32 -7 85 10 76 25 -3 5 -17 10 -31 10 -14
0 -35 11 -49 26 l-24 25 -16 -25 c-10 -14 -25 -26 -34 -26 -9 0 -34 -7 -56
-14 -22 -8 -52 -12 -66 -9 -14 3 -40 -2 -57 -11 -22 -11 -44 -14 -72 -10 -22
4 -66 1 -98 -5 -60 -12 -137 -21 -185 -21 -33 0 -77 26 -77 46 0 8 -7 14 -15
14 -17 0 -48 54 -43 77 2 11 18 15 61 16 33 1 61 -2 64 -6 3 -5 14 0 25 10 16
14 36 17 114 16 52 -1 94 2 94 6 0 13 215 13 244 0 20 -10 30 -9 51 5 16 11
34 14 52 10 19 -5 30 -2 40 11 7 11 13 13 13 7 0 -26 30 -23 60 6 l30 30 -98
-5 c-123 -6 -106 -6 -250 -1 -67 3 -125 2 -127 -2 -3 -4 -24 -11 -47 -14 -40
-6 -57 -7 -118 -6 -14 0 -38 -5 -53 -11 -21 -9 -34 -9 -53 0 -17 8 -31 8 -44
1 -15 -8 -20 -6 -25 10 -10 31 6 110 24 119 17 9 130 21 221 23 30 0 61 5 67
11 7 5 70 11 140 12 71 2 128 4 128 5 0 1 36 3 79 5 44 2 116 8 160 14 45 6
108 13 141 16 92 7 156 21 166 36 11 19 -4 32 -38 31 -15 -1 -96 -3 -180 -6
-83 -2 -160 -9 -171 -15 -11 -6 -54 -13 -96 -15 -43 -3 -91 -12 -107 -20 -22
-11 -80 -15 -244 -17 -241 -3 -241 -3 -247 64 -3 48 18 67 78 67 24 0 46 4 49
10 3 6 94 9 228 8 122 0 235 3 251 7 21 6 39 3 64 -11 34 -18 35 -18 51 1 22
28 75 43 151 43 95 1 203 13 216 23 6 5 46 12 89 14 79 5 99 11 91 24 -8 13
-256 11 -276 -1 -12 -8 -28 -8 -51 -2 -24 7 -41 6 -59 -2 -27 -14 -172 -45
-205 -45 -11 0 -51 5 -90 9 -54 7 -84 6 -133 -6 -50 -13 -67 -14 -82 -4 -27
17 -53 15 -88 -5 -40 -23 -62 -6 -62 49 0 37 -2 39 -27 36 -23 -2 -29 1 -31
20 -4 25 25 31 46 10 9 -9 15 -10 20 -2 20 32 218 53 402 44 65 -3 223 14 262
29 11 4 38 3 59 -3 27 -7 48 -6 76 2 36 12 74 17 223 28 36 3 74 9 85 14 11 5
36 11 55 14 70 10 130 23 137 29 8 8 53 9 53 2z m196 -155 l-25 -75 2 80 c2
53 10 93 22 120 l19 40 4 -45 c2 -30 -6 -72 -22 -120z m113 133 c0 -10 -4 -27
-9 -38 -7 -16 -9 -13 -9 18 -1 20 4 37 9 37 6 0 10 -8 9 -17z m651 -99 c-14
-59 -40 -94 -40 -54 0 29 21 101 34 119 17 22 20 -6 6 -65z m99 -65 c-12 -21
-14 -22 -17 -6 -6 28 6 53 19 40 8 -8 7 -18 -2 -34z m669 16 c3 -2 -8 -15 -24
-27 -16 -13 -37 -31 -46 -40 -10 -10 -23 -18 -28 -18 -18 0 -30 48 -19 76 9
25 12 26 61 21 28 -4 53 -9 56 -12z m170 -19 c1 -2 0 -10 -4 -19 -4 -13 -11
-14 -32 -6 -41 14 -72 32 -72 39 0 6 101 -7 108 -14z m-1822 -63 c-2 -36 -10
-70 -16 -77 -10 -8 -11 -2 -6 29 3 22 6 59 6 83 0 26 4 41 10 37 6 -3 8 -34 6
-72z m1037 -115 c-17 -86 -40 -108 -30 -30 9 68 27 126 37 116 5 -5 1 -44 -7
-86z m-1189 -82 c-4 -17 -10 -24 -16 -18 -5 5 -6 21 -2 36 4 17 10 24 16 18 5
-5 6 -21 2 -36z m1861 33 c4 -6 5 -12 2 -15 -7 -7 -37 7 -37 17 0 13 27 11 35
-2z m-1965 -74 c0 -19 -4 -35 -10 -35 -11 0 -14 53 -3 63 11 12 13 8 13 -28z
m368 -7 c19 -19 14 -28 -13 -28 -18 0 -25 5 -25 20 0 22 20 26 38 8z m472 -21
c132 -63 256 -283 457 -817 104 -277 302 -865 357 -1060 146 -518 201 -908
157 -1100 -6 -25 -20 -97 -32 -160 -25 -137 -100 -351 -140 -402 -16 -20 -29
-42 -29 -47 0 -6 -5 -11 -10 -11 -17 0 -1 113 27 205 14 44 52 142 84 218 58
136 72 197 46 197 -12 0 -89 -109 -131 -185 -9 -16 -29 -46 -44 -66 -15 -20
-45 -60 -68 -90 -22 -30 -47 -65 -54 -79 -15 -30 -50 -70 -62 -70 -11 0 -10
71 1 88 4 8 19 19 31 25 15 8 30 31 41 66 10 29 24 59 30 67 6 7 8 18 4 24 -8
12 8 122 32 220 9 40 13 82 9 112 -5 38 -3 48 11 57 15 8 17 21 15 81 -3 59 0
74 14 85 16 11 17 20 7 91 -8 63 -7 83 4 99 19 28 17 84 -4 92 -9 4 -19 1 -21
-5 -2 -7 -10 -19 -18 -27 -8 -8 -24 -34 -34 -58 -11 -25 -26 -50 -35 -57 -21
-18 -60 -91 -80 -151 -10 -28 -24 -63 -31 -78 -8 -14 -14 -32 -14 -38 0 -16
-5 -16 -30 -1 -15 10 -22 10 -32 0 -6 -6 -22 -12 -34 -12 -13 0 -26 -5 -30
-11 -4 -6 -21 -9 -43 -6 -80 12 -151 15 -156 6 -9 -13 -79 -11 -93 3 -17 17
-15 69 3 95 11 15 26 21 58 21 41 1 44 -1 56 -34 l13 -36 29 35 c31 38 21 35
207 50 21 1 32 7 32 17 0 13 -20 15 -130 12 -94 -3 -135 0 -146 9 -11 9 -18 9
-26 1 -7 -7 -34 -12 -60 -12 -27 0 -63 -6 -81 -14 -18 -7 -47 -11 -65 -8 -18
2 -38 0 -45 -6 -6 -5 -67 -10 -135 -11 -67 -1 -128 -4 -136 -7 -8 -3 -28 5
-45 17 -27 20 -33 21 -58 9 -16 -7 -34 -12 -41 -11 -8 1 -24 -5 -37 -13 -14
-9 -41 -16 -60 -16 -32 0 -36 -3 -33 -22 3 -22 7 -23 73 -20 38 2 74 7 80 12
5 4 75 10 153 13 132 5 146 3 163 -14 25 -25 32 -24 55 6 14 19 28 25 55 25
34 0 38 -3 51 -44 14 -42 14 -44 -11 -74 -21 -24 -34 -30 -68 -31 -23 0 -46
-2 -50 -3 -5 -2 -23 4 -42 11 -26 11 -37 12 -52 3 -24 -15 -122 -15 -137 0 -8
8 -15 8 -27 -2 -13 -11 -20 -11 -40 0 -22 12 -27 11 -38 -3 -10 -15 -17 -15
-43 -5 -45 17 -66 5 -62 -34 3 -30 6 -33 38 -33 34 0 35 -1 33 -35 -1 -20 -9
-40 -20 -47 -21 -16 -23 -84 -3 -108 8 -10 10 -33 5 -74 -7 -60 -1 -101 15
-101 5 0 12 9 15 21 5 15 13 19 28 15 29 -7 70 24 62 46 -4 9 -15 18 -26 21
-15 4 -19 14 -19 45 0 44 8 56 30 42 10 -6 21 -3 33 8 12 11 39 17 82 19 55 2
66 -1 75 -17 12 -23 3 -48 -28 -77 -29 -27 -31 -27 -59 -8 -21 15 -23 14 -43
-25 -11 -22 -25 -40 -30 -40 -6 0 -10 -15 -10 -34 0 -39 -33 -86 -60 -86 -10
0 -26 10 -34 22 -15 21 -16 21 -16 2 0 -26 -29 -66 -43 -61 -7 2 -20 -2 -29
-11 -15 -12 -22 -13 -48 -2 -16 7 -30 19 -30 26 0 10 -8 13 -25 10 -22 -4 -26
0 -35 35 -6 22 -13 46 -16 53 -4 9 11 13 58 13 50 0 66 -4 79 -20 15 -20 16
-18 23 30 4 34 1 63 -9 93 -8 23 -15 60 -15 82 0 49 -24 62 -51 27 l-18 -24
-21 28 c-32 40 -84 38 -105 -4 -15 -29 -18 -30 -35 -14 -17 15 -18 14 -29 -16
-13 -36 -8 -49 20 -49 22 0 25 -22 5 -40 -8 -6 -20 -27 -26 -46 -13 -37 -44
-56 -78 -47 -11 2 -23 0 -26 -6 -10 -15 -123 -14 -128 1 -3 9 -11 9 -35 -1
-32 -13 -151 -12 -159 1 -3 5 -15 8 -26 8 -12 0 -30 8 -41 17 -18 17 -19 17
-32 0 -6 -9 -24 -17 -39 -17 -14 0 -26 -4 -26 -9 0 -5 -13 -14 -29 -21 -24
-10 -33 -9 -54 4 -22 15 -25 15 -38 0 -21 -25 -76 -45 -104 -38 -32 8 -78 -3
-73 -18 5 -14 145 -21 153 -8 9 15 56 12 76 -5 15 -14 18 -14 34 2 18 17 45
22 133 26 30 1 48 8 58 21 14 19 14 19 28 1 12 -16 25 -19 92 -17 44 2 97 5
119 7 55 5 68 -5 68 -55 0 -48 -32 -91 -55 -73 -15 12 -142 12 -154 0 -4 -4
-20 -7 -36 -7 -24 0 -29 -4 -26 -21 5 -32 32 -46 60 -31 24 13 54 18 73 11 6
-1 45 1 87 5 43 4 82 5 87 2 5 -3 -5 -30 -22 -60 -27 -46 -37 -55 -66 -58 -26
-3 -39 1 -58 21 l-23 26 -6 -22 c-8 -27 -58 -47 -85 -32 -17 9 -19 6 -19 -37
0 -51 -17 -93 -58 -141 -26 -32 -28 -33 -65 -21 -26 8 -43 8 -60 1 -12 -6 -40
-15 -62 -19 -31 -7 -41 -14 -43 -33 -6 -40 9 -44 105 -31 173 24 167 22 173
59 7 45 28 52 36 12 9 -42 17 -45 74 -26 27 9 70 15 97 13 41 -3 48 -6 51 -26
2 -15 -5 -31 -21 -46 -13 -12 -28 -30 -34 -40 -8 -15 -24 -19 -82 -21 l-71 -2
-12 38 c-16 56 -28 48 -28 -21 0 -68 -1 -68 -75 -46 -38 12 -54 12 -84 3 -20
-7 -36 -19 -36 -27 0 -19 149 -33 180 -16 18 10 40 13 115 17 14 1 52 0 85 -2
l60 -4 0 -44 c0 -61 -26 -78 -61 -38 l-25 29 -49 -49 c-27 -26 -50 -56 -50
-65 0 -15 9 -17 83 -12 45 3 90 7 100 9 13 2 17 -4 17 -28 0 -18 -4 -37 -8
-43 -10 -15 -49 -27 -96 -29 -24 -1 -41 -7 -48 -18 -5 -10 -21 -17 -37 -17
-25 0 -30 5 -35 33 -3 18 -21 50 -40 70 -27 30 -41 37 -70 37 -21 0 -36 -5
-36 -12 0 -19 32 -48 53 -48 18 0 19 -4 12 -57 -11 -85 -9 -122 10 -183 24
-78 25 -202 2 -227 -9 -11 -25 -44 -35 -74 -20 -56 -22 -58 -125 -103 -50 -21
-57 -20 -89 9 -15 14 -38 25 -51 25 -31 0 -47 18 -47 53 0 27 2 29 27 23 16
-4 33 -14 39 -22 6 -7 16 -14 23 -14 6 0 11 -4 11 -10 0 -13 77 -13 93 0 7 5
26 21 44 35 32 26 54 79 68 158 8 48 -1 63 -25 42 -16 -15 -19 -15 -34 0 -20
20 -20 34 0 131 26 124 18 156 -97 389 -27 55 -68 129 -90 165 -22 36 -54 92
-71 125 -16 33 -47 89 -68 125 -22 36 -39 75 -39 87 -1 12 -11 41 -23 64 -22
43 -28 115 -13 158 7 22 6 23 -18 19 -24 -5 -28 -1 -42 40 -20 59 -19 75 4 96
14 12 35 16 82 15 65 -1 155 11 176 24 6 4 14 3 18 -3 8 -13 122 -13 130 0 3
6 26 10 51 10 39 0 44 3 44 23 0 43 -10 47 -89 35 -44 -6 -75 -16 -78 -24 -8
-22 -29 -16 -41 11 -14 31 -15 31 -76 0 -27 -14 -65 -25 -83 -25 -19 0 -45 -7
-58 -16 -16 -11 -34 -14 -55 -9 -19 4 -36 2 -45 -5 -17 -14 -35 -5 -35 18 -1
29 -64 205 -87 242 -12 19 -27 58 -34 85 -15 65 -36 105 -53 105 -9 0 -15 17
-18 51 -4 35 -11 55 -22 61 -13 8 -17 20 -14 51 2 23 -1 43 -7 45 -5 1 -11
-10 -13 -25 -1 -15 -7 -53 -13 -83 -12 -63 2 -200 25 -235 7 -11 23 -51 36
-90 12 -38 37 -106 56 -150 18 -44 35 -98 39 -120 3 -22 10 -49 15 -60 15 -35
40 -118 40 -132 0 -8 9 -33 20 -55 22 -45 26 -78 10 -78 -14 0 -12 -56 3 -68
6 -5 23 -12 37 -14 32 -4 44 -58 12 -58 -10 0 -27 -9 -37 -20 -17 -19 -19 -19
-37 -4 -10 10 -18 23 -18 31 0 15 -26 18 -35 3 -4 -6 -23 7 -44 30 -24 26 -43
39 -52 35 -15 -6 -39 30 -39 59 0 7 -9 21 -20 31 -25 22 -43 79 -76 235 -23
108 -27 150 -28 315 -1 236 17 334 114 610 41 118 202 444 223 453 4 2 7 8 7
14 0 9 76 129 102 163 5 6 34 48 65 95 31 47 62 88 69 93 7 4 23 24 35 45 18
30 146 196 184 238 22 25 51 61 80 99 16 22 39 50 50 62 11 12 25 28 30 35 26
34 71 87 104 123 20 22 54 63 76 90 22 28 53 64 70 82 16 18 48 53 70 79 22
25 56 63 75 84 19 20 48 54 64 74 29 36 115 130 224 244 28 30 52 57 52 59 0
8 87 90 120 113 19 13 44 33 55 43 18 16 37 26 110 58 46 19 169 17 215 -4z
m523 -47 c4 -17 3 -19 -9 -9 -8 6 -14 18 -14 26 0 20 16 8 23 -17z m-1103 -50
c-11 -20 -62 -60 -78 -60 -5 0 -12 10 -15 21 -5 17 -11 20 -31 15 -22 -5 -26
-3 -26 14 0 16 5 20 18 16 65 -19 93 -18 108 3 19 26 39 18 24 -9z m-417 -21
c3 -12 2 -31 -3 -42 -8 -21 -9 -21 -10 -2 0 11 -3 30 -6 43 -4 12 -2 22 4 22
5 0 12 -9 15 -21z m1357 -101 c0 -16 -3 -19 -11 -11 -6 6 -8 16 -5 22 11 17
16 13 16 -11z m270 -23 c7 -8 24 -15 37 -15 22 0 24 -2 13 -15 -18 -22 -46
-18 -64 7 -26 36 -13 56 14 23z m-126 -66 c13 -12 7 -15 -41 -22 -37 -4 -43
-2 -43 13 0 10 6 20 13 23 15 6 59 -3 71 -14z m-1346 -25 c39 -11 27 -42 -24
-64 -58 -25 -61 -25 -66 5 -9 46 33 74 90 59z m-128 -170 c0 -63 -38 -81 -90
-42 -36 26 -38 38 -7 38 12 1 33 7 47 15 37 21 50 18 50 -11z m2220 -208 c0
-2 -3 -11 -6 -20 -9 -23 -24 -20 -24 4 0 11 7 20 15 20 8 0 15 -2 15 -4z
m-2740 -30 c0 -8 -18 -23 -41 -34 l-40 -20 3 26 c2 18 11 28 28 33 40 11 50
10 50 -5z m2377 -101 c8 -22 -6 -33 -17 -15 -13 20 -12 30 0 30 6 0 13 -7 17
-15z m-147 -72 c0 -5 -5 -15 -10 -23 -8 -12 -10 -11 -10 8 0 12 5 22 10 22 6
0 10 -3 10 -7z m41 -76 c-17 -17 -25 21 -10 51 l13 27 4 -34 c2 -18 -1 -38 -7
-44z m209 -42 c9 -11 5 -17 -19 -29 -28 -15 -31 -15 -41 3 -18 35 -13 48 20
43 16 -2 34 -10 40 -17z m-3242 -7 c-5 -32 -28 -35 -28 -4 0 17 5 26 16 26 10
0 14 -7 12 -22z m2962 -7 c0 -5 10 -11 22 -13 28 -4 34 -27 14 -53 -13 -18
-16 -18 -30 -5 -20 20 -33 80 -17 80 6 0 11 -4 11 -9z m148 -45 c4 -19 -23
-66 -38 -66 -20 0 -23 50 -4 71 20 22 37 20 42 -5z m127 -86 c3 -5 14 -10 23
-10 9 0 26 -7 36 -15 16 -12 17 -17 6 -30 -7 -8 -26 -15 -41 -15 -22 0 -32 6
-39 26 -6 14 -10 32 -10 40 0 16 16 19 25 4z m-75 -75 c0 -45 -19 -85 -41 -85
-31 0 -32 20 -3 75 31 59 44 62 44 10z m-116 -18 c10 -28 2 -47 -13 -31 -5 5
-13 22 -17 38 -9 37 17 32 30 -7z m280 -121 c32 -18 47 -21 55 -13 8 8 11 6
11 -8 -1 -38 -43 -71 -75 -58 -19 7 -45 55 -45 83 0 25 2 25 54 -4z m-110 -22
c10 -27 7 -51 -10 -65 -9 -8 -28 -31 -41 -52 -24 -38 -43 -41 -43 -8 0 10 9
26 20 36 10 9 27 37 36 61 18 47 28 54 38 28z m-2833 -55 c-9 -23 -10 -23 -10
-2 -1 12 2 30 6 40 6 15 8 15 11 2 1 -8 -2 -26 -7 -40z m-91 11 c0 -5 -4 -10
-10 -10 -5 0 -10 5 -10 10 0 6 5 10 10 10 6 0 10 -4 10 -10z m3077 -125 c17
-9 37 -23 44 -31 11 -14 10 -18 -6 -30 -32 -24 -55 -17 -71 21 -8 20 -12 40
-9 45 8 13 6 13 42 -5z m-3080 -37 c-3 -7 -5 -2 -5 12 0 14 2 19 5 13 2 -7 2
-19 0 -25z m2964 -31 c-8 -8 -11 -7 -11 4 0 20 13 34 18 19 3 -7 -1 -17 -7
-23z m146 -164 c-3 -10 -5 -4 -5 12 0 17 2 24 5 18 2 -7 2 -21 0 -30z m-137 2
c0 -10 -10 -15 -30 -15 -16 0 -30 5 -30 11 0 6 6 9 13 6 8 -3 20 -1 28 4 19
12 19 11 19 -6z m-3160 -19 c0 -3 -4 -8 -10 -11 -5 -3 -10 -1 -10 4 0 6 5 11
10 11 6 0 10 -2 10 -4z m3331 -58 c30 -33 33 -45 23 -72 -16 -43 -64 16 -64
79 0 32 5 32 41 -7z m-3272 -88 c0 -26 -2 -31 -9 -20 -5 8 -9 35 -9 60 1 37 2
41 9 20 4 -14 8 -41 9 -60z m3171 30 c0 -17 -9 -38 -22 -50 -27 -24 -32 -25
-54 -2 -17 16 -17 17 1 21 10 1 29 16 42 32 14 16 27 29 29 29 2 0 4 -13 4
-30z m116 -137 c16 -21 18 -63 4 -63 -13 0 -30 34 -30 59 0 26 9 27 26 4z
m-80 -51 c-12 -11 -18 7 -10 30 l8 23 4 -23 c2 -13 1 -26 -2 -30z m24 -164 c0
-19 -18 -43 -25 -36 -9 9 4 48 16 48 5 0 9 -6 9 -12z m-655 -583 c-3 -14 -7
-36 -10 -50 -7 -32 -21 -32 -29 1 -6 24 -9 25 -24 11 -25 -21 -98 -29 -113
-11 -20 25 -3 42 48 46 26 3 54 0 61 -5 9 -7 19 -4 35 11 28 29 39 28 32 -3z
m-305 -11 c24 -63 5 -79 -52 -44 -45 27 -60 25 -83 -13 -11 -18 -27 -32 -35
-32 -11 0 -17 -15 -21 -50 -7 -58 -22 -100 -45 -123 -15 -15 -18 -14 -30 3 -8
10 -14 36 -14 57 0 34 3 38 25 38 32 0 34 31 3 62 l-21 21 -18 -21 c-21 -27
-39 -28 -72 -2 -27 21 -47 26 -47 11 0 -5 -8 -11 -17 -14 -10 -2 -25 -8 -34
-11 -11 -5 -19 1 -27 19 -15 33 -15 55 -1 55 6 0 24 11 41 25 32 27 86 33 106
13 10 -10 17 -10 33 0 16 10 24 10 35 1 10 -9 17 -9 28 0 9 7 43 10 95 8 57
-3 86 0 99 9 26 20 41 17 52 -12z m-544 -6 c30 2 43 -47 18 -65 -10 -7 -24
-13 -31 -13 -7 0 -13 -4 -13 -10 0 -20 -38 -10 -44 13 -14 54 3 94 34 81 8 -4
25 -6 36 -6z m784 -150 c-1 -34 -50 -58 -75 -38 -17 15 -11 28 19 40 31 13 56
12 56 -2z m-296 -11 c17 -12 17 -18 7 -50 -7 -21 -16 -37 -19 -37 -7 0 -42 78
-42 93 0 12 35 8 54 -6z m-778 -50 c3 -3 3 -14 0 -25 -7 -21 -61 -46 -77 -36
-11 6 -12 58 -2 67 7 8 70 3 79 -6z m544 -122 c0 -6 -9 -20 -20 -30 -11 -10
-20 -26 -20 -37 0 -11 -7 -18 -20 -18 -12 0 -32 -7 -45 -16 -23 -15 -27 -15
-49 0 -23 15 -43 66 -32 84 8 13 82 8 100 -7 16 -14 36 -7 36 13 0 18 21 35
36 29 8 -3 14 -11 14 -18z m110 -21 c0 -9 -5 -25 -11 -37 l-12 -21 -8 23 c-6
13 -5 30 2 42 11 21 29 17 29 -7z m-770 -54 c9 -21 11 -55 7 -100 -6 -76 1
-90 28 -60 11 12 31 20 52 20 28 0 35 -5 47 -32 l14 -33 11 29 c7 17 15 25 20
20 15 -15 31 -88 22 -97 -16 -16 -46 -2 -49 22 -3 18 -6 21 -12 11 -5 -8 -25
-14 -44 -14 -31 0 -37 -4 -49 -35 -8 -20 -18 -62 -21 -93 -5 -40 -12 -58 -22
-58 -20 0 -28 43 -15 83 14 40 6 67 -19 67 -11 0 -25 16 -38 47 l-20 48 34 33
c40 39 48 80 12 61 -13 -7 -29 -19 -37 -26 -11 -12 -15 -12 -22 -1 -18 28 -9
64 27 101 44 45 58 46 74 7z m423 -114 c3 -8 9 -43 12 -78 l6 -63 -19 22 c-20
23 -38 105 -27 123 9 14 22 12 28 -4z m89 -26 c8 0 23 6 34 14 13 10 23 11 31
4 19 -16 16 -46 -6 -58 -11 -5 -23 -19 -26 -31 -5 -16 -10 -18 -21 -8 -8 6
-14 20 -14 31 0 10 -11 29 -25 42 -14 13 -25 30 -25 37 1 9 7 6 19 -8 11 -13
25 -23 33 -23z m-158 21 c10 -16 17 -93 10 -113 -4 -13 -13 -18 -27 -16 -20 3
-22 8 -20 58 2 30 5 61 8 68 5 14 21 16 29 3z m420 -58 c3 -32 9 -89 12 -128
3 -38 12 -77 19 -85 15 -18 3 -60 -18 -60 -8 0 -26 9 -40 20 l-25 20 19 37
c26 51 26 129 -1 143 -11 6 -31 8 -45 4 -18 -4 -27 -2 -32 12 -7 19 46 74 72
74 8 0 15 5 15 10 0 6 4 10 9 10 5 0 12 -26 15 -57z m-288 -74 c3 -6 1 -16 -5
-22 -9 -9 -14 -8 -21 3 -9 15 -4 30 10 30 5 0 12 -5 16 -11z m764 -27 c0 -4
-9 -13 -20 -20 -19 -12 -20 -11 -8 8 13 20 28 27 28 12z m-838 -53 c9 -49 34
-89 66 -104 12 -5 22 -17 22 -27 0 -19 -22 -37 -27 -22 -2 6 -21 29 -42 52
-37 39 -39 40 -55 23 -11 -12 -26 -16 -47 -13 -36 5 -45 22 -29 54 15 29 82
89 95 85 5 -2 13 -23 17 -48z m-502 -2 c0 -7 -8 -17 -19 -24 -11 -7 -21 -29
-25 -57 -6 -36 -11 -46 -26 -46 -10 0 -22 5 -25 10 -4 6 -16 8 -27 4 -12 -4
-24 -1 -29 7 -6 11 -12 11 -33 0 -13 -8 -32 -11 -41 -7 -9 3 -26 -1 -38 -9
-12 -8 -27 -15 -33 -15 -12 0 -25 65 -17 85 5 16 80 34 137 33 27 0 59 6 72
13 19 10 26 9 39 -1 13 -11 19 -11 33 3 19 20 32 22 32 4z m248 -15 c37 -24
23 -72 -22 -72 -10 0 -35 -12 -54 -27 l-35 -26 5 58 c4 44 10 63 27 76 23 18
39 17 79 -9z m557 -23 c6 -24 3 -27 -27 -32 -18 -2 -34 -3 -36 -2 -2 1 7 19
19 39 23 39 33 38 44 -5z m-99 16 c4 -8 4 -22 0 -30 -7 -19 -36 -8 -36 14 0
32 26 43 36 16z m-348 -25 c4 -23 -15 -43 -30 -34 -10 6 -11 48 -1 58 12 12
28 0 31 -24z m-1438 -131 c0 -11 -4 -17 -10 -14 -5 3 -10 15 -10 26 0 11 5 17
10 14 6 -3 10 -15 10 -26z m1206 -21 c-9 -12 -16 -35 -16 -51 0 -35 -16 -67
-35 -67 -23 0 -28 20 -14 62 10 31 10 44 1 59 -16 25 -15 27 11 22 12 -2 31 3
42 11 17 12 20 13 23 1 2 -8 -4 -25 -12 -37z m162 26 c4 -26 -14 -74 -28 -74
-11 0 -13 42 -4 78 8 27 28 24 32 -4z m-112 -48 c8 -32 2 -58 -13 -64 -9 -2
-13 10 -13 42 0 49 16 62 26 22z m394 12 c0 -7 3 -23 6 -36 5 -18 1 -24 -25
-33 -23 -8 -34 -20 -42 -49 l-12 -39 -19 24 c-11 14 -26 25 -34 25 -17 0 -20
65 -3 75 6 4 21 -2 33 -14 30 -28 42 -26 51 6 11 43 45 74 45 41z m235 -8 c3
-6 17 -7 30 -4 44 11 89 -34 49 -50 -26 -10 -64 -7 -64 5 0 8 -14 10 -42 5
-24 -3 -61 -9 -83 -12 -24 -4 -50 -16 -64 -31 -19 -20 -25 -22 -32 -11 -11 16
-12 58 -1 59 4 0 27 2 52 4 70 5 114 16 123 31 9 16 23 18 32 4z m-570 -103
c-24 -18 -26 -23 -20 -77 4 -45 2 -60 -10 -70 -8 -7 -18 -10 -22 -6 -5 5 -43
104 -43 112 0 1 16 9 35 18 19 9 35 23 35 31 0 8 10 25 23 38 l22 22 3 -24 c3
-18 -4 -30 -23 -44z m100 13 c4 -6 13 -5 25 3 15 9 25 9 38 1 30 -19 26 -52
-13 -100 -39 -48 -65 -57 -65 -23 0 12 -5 39 -11 60 -12 38 -7 69 10 69 5 0
13 -4 16 -10z m550 -129 c3 -5 1 -12 -5 -16 -13 -8 -50 3 -50 16 0 12 47 12
55 0z m-845 -55 c0 -8 -4 -18 -10 -21 -5 -3 -10 3 -10 14 0 12 5 21 10 21 6 0
10 -6 10 -14z m476 -11 c8 -34 -3 -75 -21 -75 -8 0 -15 -4 -15 -9 0 -16 -59
-24 -75 -11 -12 10 -19 10 -32 -1 -27 -23 -83 -4 -83 27 0 18 40 54 61 54 9 0
22 -6 28 -14 15 -18 62 -2 93 31 27 29 36 29 44 -2z m124 -20 c0 -33 -10 -55
-25 -55 -20 0 -24 23 -9 59 15 36 34 34 34 -4z m-463 -16 c8 -8 17 -8 31 0 17
9 23 7 36 -11 29 -40 16 -89 -13 -54 -9 11 -18 12 -42 3 -36 -14 -62 -1 -67
33 -5 33 31 53 55 29z m-77 -19 c8 -14 8 -26 0 -41 -16 -30 -35 -18 -38 24 -2
28 1 37 12 37 8 0 20 -9 26 -20z m-910 -79 c8 -15 6 -29 -7 -55 -22 -44 -33
-45 -33 -3 0 69 19 96 40 58z m860 -31 c3 -41 1 -50 -15 -50 -10 0 -15 10 -15
29 0 61 26 78 30 21z m234 -41 c7 -31 40 -44 57 -23 6 8 19 14 29 14 9 0 25 9
35 20 10 11 24 20 30 20 7 0 25 7 41 14 34 18 44 13 44 -24 0 -21 -9 -36 -35
-56 -32 -24 -40 -26 -95 -20 -53 6 -60 5 -70 -14 -14 -25 -30 -26 -30 0 0 29
-29 41 -61 24 -15 -7 -29 -20 -32 -29 -4 -8 -12 -15 -18 -15 -8 0 -10 14 -5
46 7 55 22 77 47 69 12 -4 22 1 30 17 12 22 12 22 20 3 4 -11 10 -32 13 -46z
m366 8 c0 -25 -17 -47 -37 -47 -16 0 -17 24 -1 50 17 27 38 25 38 -3z m-682
-29 c-2 -18 -10 -23 -33 -23 -26 -1 -32 -6 -43 -42 -15 -47 -28 -54 -119 -62
-71 -7 -70 -8 -79 75 -6 46 -4 54 10 54 9 0 16 -5 16 -11 0 -7 16 -9 48 -5
117 13 172 22 178 29 14 14 25 7 22 -15z m29 -40 c-3 -8 -6 -5 -6 6 -1 11 2
17 5 13 3 -3 4 -12 1 -19z m93 -12 c0 -33 -35 -96 -57 -104 -22 -7 -15 46 7
58 11 6 20 19 20 30 0 25 10 50 21 50 5 0 9 -15 9 -34z m500 -11 c0 -24 -5
-35 -15 -35 -10 0 -15 11 -15 35 0 24 5 35 15 35 10 0 15 -11 15 -35z m-56
-60 c30 -45 -12 -117 -55 -95 -10 6 -31 10 -48 10 -47 0 -40 31 17 73 57 43
65 44 86 12z m-578 -37 c4 -6 -4 -20 -19 -33 -46 -36 -34 -128 18 -137 30 -5
25 -32 -7 -36 -21 -3 -36 6 -64 35 -31 33 -37 36 -46 22 -9 -13 -18 -14 -53
-6 -41 9 -43 12 -47 51 -6 50 -1 66 17 60 7 -3 16 -1 20 5 3 6 23 11 43 11 20
0 53 8 72 19 42 23 57 25 66 9z m229 -12 c17 -26 12 -68 -11 -86 -10 -9 -23
-9 -50 0 -34 12 -36 14 -31 47 3 19 11 41 18 49 18 22 57 17 74 -10z m188 12
c5 -16 -20 -68 -33 -68 -17 0 -20 17 -9 49 11 31 34 41 42 19z m474 -47 c7 -9
13 -33 13 -55 0 -31 -3 -37 -16 -32 -9 3 -22 6 -29 6 -8 0 -17 9 -20 20 -3 11
-13 20 -20 20 -21 0 -35 31 -24 52 7 13 17 15 47 11 20 -4 42 -13 49 -22z
m-577 -7 c0 -8 -4 -14 -10 -14 -5 0 -10 9 -10 21 0 11 5 17 10 14 6 -3 10 -13
10 -21z m465 -85 c13 -39 20 -48 30 -39 17 14 24 -4 18 -46 -4 -26 -1 -33 17
-39 22 -7 44 10 34 27 -6 9 34 30 45 23 5 -3 12 -19 16 -35 5 -22 1 -37 -14
-56 -12 -15 -21 -32 -21 -39 0 -7 -14 -18 -30 -25 -26 -11 -33 -10 -50 5 -11
10 -20 28 -21 39 0 17 -4 14 -17 -12 -13 -27 -20 -32 -39 -27 -13 3 -33 0 -46
-6 -21 -12 -46 -16 -142 -23 -27 -2 -58 -7 -68 -11 -13 -6 -20 0 -32 27 -21
51 -22 63 -5 59 37 -8 46 -7 60 9 18 20 135 36 145 19 4 -5 21 -7 41 -3 28 5
34 3 34 -11 0 -22 19 -15 44 18 19 25 19 27 2 46 -27 30 -76 35 -99 11 -15
-17 -22 -19 -33 -9 -8 6 -23 9 -35 6 -12 -3 -30 -1 -40 6 -14 9 -21 9 -31 -1
-6 -6 -26 -12 -43 -12 -17 0 -40 -7 -51 -15 -28 -19 -122 -19 -195 0 -19 5
-28 2 -33 -10 -5 -13 -15 -15 -57 -10 -32 4 -56 2 -65 -5 -28 -24 -30 73 -2
107 7 9 16 10 29 2 13 -7 32 -6 60 1 23 6 69 13 103 15 33 3 88 7 121 11 33 4
75 6 94 6 19 0 44 6 55 14 28 19 115 19 121 -1 16 -51 16 -50 25 -35 6 8 10
27 10 42 0 26 15 39 37 31 7 -3 19 -27 28 -54z m-989 -58 c5 -4 24 -11 42 -14
24 -5 32 -3 32 8 0 8 4 15 9 15 18 0 51 -53 51 -81 0 -26 -4 -29 -30 -29 -18
0 -33 -6 -36 -15 -4 -11 -21 -15 -58 -15 -29 0 -57 -5 -63 -11 -8 -8 -15 -3
-27 19 -27 52 -19 79 34 115 28 19 32 20 46 8z m1593 -90 c17 -11 7 -41 -13
-41 -15 0 -29 27 -20 41 7 11 15 11 33 0z m-2149 -51 c0 -9 -62 -30 -71 -24
-12 7 -11 28 2 41 8 8 19 8 40 0 16 -6 29 -14 29 -17z m1064 11 c4 -5 21 -5
41 2 47 14 62 0 43 -40 -11 -23 -20 -28 -51 -29 -24 0 -44 -8 -57 -21 -46 -50
-130 -33 -130 27 0 20 7 33 22 41 49 26 122 37 132 20z m-296 -41 c18 0 22 -5
22 -33 0 -25 -8 -41 -30 -60 -20 -19 -30 -37 -30 -56 0 -17 -4 -32 -9 -35 -4
-3 -8 -23 -8 -44 0 -58 -19 -85 -51 -77 -29 7 -42 21 -42 46 0 9 -6 22 -14 28
-11 9 -15 5 -20 -23 -4 -19 -13 -40 -22 -47 -23 -19 -69 19 -69 57 0 25 5 29
40 36 21 5 45 6 51 4 7 -3 15 2 18 10 4 10 13 13 26 9 42 -13 93 34 86 80 -3
17 -8 50 -11 74 -7 43 -7 44 16 38 13 -4 34 -7 47 -7z m1053 -45 c5 -38 43
-125 55 -125 3 0 12 7 21 15 12 12 18 13 29 4 18 -15 20 -12 31 31 l9 35 13
-62 c11 -50 11 -68 1 -93 -15 -35 -21 -37 -38 -10 -13 22 -51 27 -69 9 -8 -8
-14 0 -23 27 -14 40 -43 95 -72 133 -21 28 -23 52 -6 69 23 23 43 9 49 -33z
m-1128 10 c2 -14 1 -40 -2 -58 -6 -26 -12 -32 -33 -32 -14 0 -30 -4 -34 -8 -5
-4 -15 2 -24 13 -14 18 -20 20 -45 10 -17 -6 -47 -22 -67 -36 -30 -21 -40 -24
-57 -14 -12 6 -71 12 -131 14 -114 4 -140 13 -140 47 0 17 5 18 40 13 29 -5
47 -2 65 10 15 10 34 14 46 11 11 -4 33 1 52 12 26 15 50 18 131 17 67 -1 107
3 125 12 41 22 68 18 74 -11z m1196 6 c8 -14 7 -20 -3 -24 -17 -7 -40 18 -31
33 10 15 23 12 34 -9z m-155 -21 c31 -12 25 -36 -10 -43 -27 -5 -40 12 -30 38
6 18 7 18 40 5z m-109 -24 c41 10 61 -9 57 -55 -4 -38 -6 -41 -36 -43 -17 0
-53 -2 -80 -3 -31 -2 -54 -9 -61 -18 -7 -10 -20 -14 -32 -11 -11 3 -24 1 -27
-5 -10 -16 -78 -13 -115 5 -38 19 -61 6 -61 -33 0 -23 35 -47 53 -36 5 3 40 9
79 14 39 5 77 14 84 20 8 6 14 9 14 6 0 -3 3 -12 6 -20 3 -9 -3 -16 -15 -20
-14 -3 -21 -13 -21 -29 0 -12 -4 -29 -9 -37 -12 -19 -72 -21 -94 -2 -13 11
-20 12 -29 3 -19 -19 -31 -14 -57 23 -37 55 -101 57 -101 3 0 -10 -7 -35 -16
-56 -14 -33 -17 -35 -24 -17 -11 28 -1 67 23 88 17 15 18 21 9 43 -17 35 -42
42 -63 16 -16 -21 -59 -31 -59 -14 0 13 -128 6 -145 -8 -21 -18 -28 5 -18 66
l8 49 45 2 c25 2 65 5 90 7 25 2 63 5 85 7 22 1 46 7 54 13 7 5 48 11 90 12
92 2 237 19 271 32 15 6 35 6 48 1 13 -5 34 -6 47 -3z m-1502 -58 c9 -13 3
-24 -31 -57 -23 -23 -44 -41 -47 -41 -10 0 -5 81 6 101 13 24 57 22 72 -3z
m697 -15 c0 -10 -7 -27 -15 -37 -8 -11 -15 -27 -15 -36 0 -9 -9 -25 -21 -36
-17 -16 -22 -16 -29 -4 -17 27 -12 42 37 97 32 36 43 40 43 16z m1234 -12 c3
-5 -3 -11 -14 -14 -13 -3 -20 0 -20 9 0 15 26 19 34 5z m-268 -56 c3 -14 10
-25 16 -25 5 0 20 -11 33 -25 32 -31 34 -81 4 -90 -26 -8 -37 5 -45 58 -9 50
-19 47 -30 -10 -11 -57 -23 -61 -39 -14 -14 44 -32 50 -45 17 -8 -22 -14 -25
-34 -20 -18 4 -27 1 -36 -15 -6 -12 -17 -21 -24 -21 -7 0 -25 -9 -39 -20 -16
-13 -28 -16 -32 -10 -10 16 6 118 20 130 7 6 42 13 79 17 53 5 67 10 72 25 4
15 12 18 34 13 16 -3 31 -2 35 4 11 18 24 12 31 -14z m-1355 -27 c14 -25 0
-50 -25 -44 -16 4 -25 -2 -38 -24 -22 -38 -39 -38 -61 0 -10 17 -22 30 -28 30
-14 0 -11 21 5 39 21 23 134 22 147 -1z m-183 -10 c7 -7 12 -23 12 -37 l0 -25
-16 22 c-19 28 -37 28 -49 0 -15 -32 -35 -34 -35 -4 0 17 7 29 18 32 9 3 24 9
32 14 21 12 24 12 38 -2z m-195 -42 c15 -12 15 -15 2 -26 -10 -9 -25 -9 -52
-3 l-38 9 30 16 c38 20 37 20 58 4z m1923 -11 c9 -8 27 -15 41 -15 19 0 24 -4
19 -16 -3 -9 -6 -21 -6 -28 0 -7 -6 -21 -14 -32 -14 -19 -15 -19 -40 5 -23 21
-28 23 -55 11 -18 -7 -34 -24 -40 -42 -6 -16 -21 -38 -33 -48 -19 -15 -21 -22
-13 -46 7 -20 18 -29 34 -30 41 -2 57 -59 16 -59 -11 0 -26 -12 -35 -29 -23
-46 -61 -75 -96 -76 -24 0 -34 -6 -43 -27 -12 -26 -14 -26 -25 -10 -11 14 -29
17 -95 17 -65 0 -83 3 -88 16 -5 13 -10 12 -32 -8 -39 -36 -68 -44 -151 -41
-41 1 -93 3 -115 4 -41 1 -181 -14 -245 -27 -19 -4 -41 -15 -48 -26 -7 -10
-18 -16 -23 -13 -16 10 -10 42 16 92 31 58 61 71 162 72 40 1 75 6 79 12 3 6
15 9 25 6 10 -3 46 -1 81 4 35 5 101 12 147 14 71 5 87 3 103 -12 19 -17 20
-17 38 7 15 20 28 25 77 27 56 2 60 1 77 -28 14 -24 20 -28 32 -18 8 6 14 21
14 33 0 19 4 22 29 18 27 -4 30 -1 40 34 14 52 14 69 -3 83 -12 10 -19 8 -35
-8 -24 -24 -31 -10 -19 36 10 39 40 58 67 44 22 -12 31 -4 51 47 11 27 48 57
88 71 2 1 10 -6 18 -14z m-910 -16 c12 -4 24 -19 28 -33 10 -41 -21 -85 -39
-56 -9 15 -41 12 -59 -5 -33 -33 -86 -10 -99 43 -9 36 2 52 37 53 17 0 40 4
51 9 19 8 37 6 81 -11z m-222 -36 c-8 -59 -12 -66 -32 -58 -9 3 -26 -5 -43
-21 -15 -14 -31 -24 -36 -21 -5 3 -22 -5 -38 -19 -30 -26 -73 -32 -79 -11 -3
6 -7 38 -10 70 -5 48 -4 57 10 57 8 0 22 -7 31 -15 14 -14 17 -14 34 1 12 11
38 18 69 19 39 1 54 6 66 23 25 36 36 26 28 -25z m1342 -48 c-7 -18 -26 -20
-26 -2 0 18 24 41 28 27 2 -6 1 -17 -2 -25z m-1643 11 c7 -18 -2 -84 -15 -108
-12 -24 -33 -23 -69 4 l-31 23 -20 -28 c-11 -15 -29 -27 -42 -27 -28 0 -62 36
-68 73 -5 23 -1 30 19 38 13 5 41 9 62 9 20 0 46 7 57 15 25 19 100 20 107 1z
m1172 -45 c-5 -16 -13 -20 -38 -18 -27 2 -31 -2 -37 -29 -11 -49 -19 -56 -53
-48 -24 5 -33 2 -48 -17 -15 -21 -20 -22 -53 -12 -37 12 -76 7 -76 -8 0 -21
-50 -6 -88 27 -43 36 -62 37 -62 4 0 -29 -37 -49 -77 -43 -19 3 -44 1 -56 -5
-12 -6 -57 -13 -99 -15 -59 -4 -80 -2 -89 9 -6 8 -20 12 -30 9 -13 -5 -18 0
-21 21 -4 37 -28 44 -28 9 0 -41 -17 -64 -55 -71 -20 -3 -41 -15 -48 -25 -10
-14 -27 -18 -80 -18 -64 0 -69 2 -78 26 -7 20 -6 35 6 59 20 44 48 58 99 51
26 -4 50 -1 66 8 14 8 39 14 57 15 23 0 33 6 38 20 7 21 20 26 30 10 9 -15
181 -10 202 6 10 7 39 14 64 14 32 0 55 7 73 21 24 19 31 20 52 9 20 -11 27
-11 42 3 28 26 32 21 32 -33 0 -58 10 -63 32 -16 12 23 25 35 45 39 15 3 38 8
51 12 19 6 22 4 22 -19 0 -31 24 -35 40 -7 6 12 26 22 52 26 24 4 54 13 68 20
32 17 56 -1 45 -34z m-1466 -10 c29 -40 39 -91 18 -91 -8 0 -22 11 -30 23 -10
15 -31 27 -59 33 -27 6 -43 14 -43 24 0 8 7 15 15 15 8 1 24 6 35 13 30 18 42
15 64 -17z m-165 -30 c9 -14 -20 -32 -53 -33 -37 -1 -46 5 -38 27 7 16 82 22
91 6z m1882 -76 c-3 -11 -9 -44 -12 -73 -10 -80 -29 -60 -27 28 3 94 9 112 29
85 8 -11 13 -29 10 -40z m-1406 -69 c0 -55 -13 -75 -37 -58 -32 22 -45 25 -63
14 -13 -8 -24 -7 -44 3 -25 13 -28 12 -37 -8 -11 -24 -73 -57 -107 -57 -28 0
-92 62 -92 90 0 21 3 22 40 16 32 -5 43 -2 59 15 11 12 25 18 31 14 11 -7 30
-1 82 26 25 13 65 11 88 -3 16 -11 23 -10 37 5 17 17 19 17 30 0 7 -9 13 -35
13 -57z m1659 44 c53 0 54 0 36 -20 -21 -23 -40 -25 -95 -8 -42 14 -59 45 -17
34 12 -3 46 -6 76 -6z m-149 -10 c0 -6 -12 -23 -26 -37 -24 -24 -27 -25 -36
-9 -5 9 -7 23 -4 31 4 12 14 16 59 24 4 0 7 -4 7 -9z m250 0 c0 -5 -4 -10 -10
-10 -5 0 -10 5 -10 10 0 6 5 10 10 10 6 0 10 -4 10 -10z m-2190 -64 c0 -34
-12 -45 -41 -39 -21 4 -35 0 -49 -12 -19 -17 -20 -16 -31 9 -11 23 -10 28 7
41 26 19 114 20 114 1z m724 -73 c-9 -66 -16 -76 -66 -99 -30 -14 -58 -19 -93
-17 -27 2 -63 4 -80 4 -16 0 -39 6 -52 14 -13 9 -24 11 -28 5 -10 -16 -56 -12
-76 6 -21 19 -39 11 -39 -16 0 -25 -43 -54 -68 -46 -14 5 -24 -1 -36 -19 -13
-20 -25 -25 -56 -25 -21 0 -42 5 -45 10 -9 14 -148 13 -162 -1 -9 -9 -16 -2
-27 26 -22 51 -21 52 22 58 20 3 64 11 97 20 33 8 84 14 113 13 31 -1 58 4 63
11 6 6 35 15 65 19 30 3 57 10 60 15 3 5 27 7 54 3 40 -5 53 -3 77 15 23 18
41 22 84 19 53 -3 54 -4 60 -38 l6 -35 13 33 c14 37 62 72 98 72 22 0 23 -3
16 -47z m1383 -46 c16 -12 5 -37 -17 -37 -9 0 -25 9 -35 20 -24 27 -41 25 -61
-5 -15 -23 -18 -24 -34 -10 -28 25 -67 19 -84 -13 -8 -15 -26 -33 -40 -40 -14
-6 -26 -19 -26 -28 0 -16 -2 -15 -20 1 -24 21 -26 63 -5 71 8 4 15 12 15 19 0
34 81 58 152 45 30 -6 48 -4 62 6 19 13 43 6 93 -29z m-347 -17 c0 -45 -2 -50
-25 -56 -14 -3 -30 -14 -35 -24 -7 -14 -20 -18 -52 -16 -24 1 -49 -2 -56 -8
-29 -21 -36 56 -10 107 10 20 39 22 56 5 9 -9 17 -7 34 9 21 19 44 29 76 32 8
1 12 -15 12 -49z m508 28 c-6 -18 -28 -21 -28 -4 0 9 7 16 16 16 9 0 14 -5 12
-12z m-718 -37 c0 -34 -36 -95 -65 -110 -11 -6 -47 -13 -80 -16 -33 -2 -80 -8
-105 -12 -25 -5 -90 -5 -145 -1 -56 3 -107 2 -116 -3 -24 -12 -66 -11 -90 2
-16 8 -30 5 -64 -11 -77 -37 -105 -19 -90 57 8 46 49 63 153 63 43 0 82 4 88
9 5 6 61 11 124 12 63 2 121 7 128 12 7 6 59 10 115 9 56 -1 109 3 117 8 24
16 30 12 30 -19z m-832 -119 c4 -36 -3 -40 -30 -16 -19 18 -20 17 -33 -39 -6
-28 -7 -29 -55 -22 -37 5 -54 3 -75 -11 -22 -14 -31 -15 -46 -6 -10 7 -41 12
-69 12 -46 0 -52 -3 -72 -35 -20 -31 -28 -35 -66 -35 -36 0 -44 4 -52 26 -22
57 0 104 50 104 15 0 30 3 34 7 17 17 79 29 171 32 55 1 125 6 155 11 79 11
85 9 88 -28z m1317 8 c3 -5 28 -10 55 -10 27 0 51 -4 55 -10 9 -15 -23 -80
-40 -80 -8 0 -25 11 -37 25 -21 24 -22 24 -35 5 -8 -11 -21 -20 -29 -20 -8 0
-22 -9 -31 -20 -23 -26 -47 -25 -66 3 l-15 22 -25 -23 c-17 -16 -32 -22 -45
-18 -11 4 -23 2 -27 -4 -3 -5 -19 -10 -35 -10 -28 0 -40 15 -40 51 0 10 -4 19
-10 19 -5 0 -10 -9 -10 -20 0 -36 -22 -70 -46 -70 -13 0 -26 -4 -29 -10 -3 -5
-28 -10 -54 -10 -26 0 -52 -5 -57 -10 -6 -6 -100 -12 -230 -14 -120 -3 -244
-8 -275 -11 -52 -6 -58 -5 -73 17 l-17 23 -18 -24 -18 -24 -32 24 c-17 12 -31
28 -31 34 0 38 63 65 164 70 35 1 72 7 82 13 13 7 25 7 38 0 13 -7 35 -7 70 1
107 23 355 42 374 28 7 -6 17 -5 25 1 24 20 130 39 164 29 24 -7 38 -6 56 5
22 15 85 12 145 -6 9 -3 28 3 42 14 28 22 46 25 55 10z m249 -32 c17 -24 22
-68 7 -68 -5 0 -16 11 -25 25 -9 14 -26 25 -37 25 -28 0 -61 19 -54 31 4 5 26
9 50 9 34 0 47 -5 59 -22z m-2354 -79 c0 -11 -4 -19 -9 -19 -10 0 -21 24 -21
47 0 13 3 13 15 3 8 -7 15 -21 15 -31z m85 1 c0 -7 -6 -15 -12 -17 -8 -3 -13
4 -13 17 0 13 5 20 13 18 6 -3 12 -11 12 -18z m703 -42 c19 -19 14 -82 -9
-112 -26 -32 -40 -33 -70 -1 -28 29 -42 31 -59 10 -7 -8 -24 -15 -39 -15 -14
-1 -37 -7 -51 -15 -34 -20 -40 -19 -40 8 0 12 -4 28 -9 36 -7 11 -11 5 -16
-22 -4 -21 -11 -40 -16 -42 -4 -3 -39 -6 -78 -7 -53 -1 -75 -5 -90 -20 -31
-28 -57 -23 -68 15 l-11 32 -7 -33 c-9 -39 -18 -46 -43 -33 -13 7 -22 7 -30
-1 -9 -9 -15 -9 -24 0 -8 8 -15 8 -23 2 -14 -12 -45 -3 -45 12 0 14 -60 -43
-70 -67 -8 -17 -9 -16 -9 10 -1 17 -4 47 -7 67 -5 27 -3 39 7 42 8 2 34 10 58
17 40 12 45 11 57 -6 14 -19 15 -19 37 8 18 23 30 28 65 29 23 0 45 4 48 9 3
5 30 9 61 9 34 0 82 10 122 24 39 14 78 22 94 19 15 -3 40 0 57 7 16 7 57 12
90 13 33 0 63 4 66 9 8 12 38 10 52 -4z m1152 -38 c0 -5 20 -10 44 -10 25 0
48 5 51 10 10 15 62 12 68 -5 5 -11 18 -13 57 -8 41 5 50 3 50 -9 0 -9 6 -21
14 -27 11 -9 17 -6 30 14 15 22 23 25 81 25 55 0 65 -3 70 -20 3 -11 3 -29 0
-40 -6 -18 -12 -20 -43 -14 -20 3 -41 10 -45 14 -5 4 -21 4 -35 -1 -15 -4 -53
-16 -85 -26 -57 -17 -59 -17 -69 1 -10 18 -11 18 -24 1 -8 -10 -31 -19 -59
-22 -25 -3 -48 -10 -51 -14 -3 -5 -46 -9 -96 -9 -85 0 -136 -9 -180 -31 -23
-12 -191 -12 -203 0 -6 5 -28 12 -51 16 -37 6 -41 4 -52 -19 -14 -32 -51 -34
-110 -6 -44 21 -156 28 -167 10 -3 -5 -14 -10 -24 -10 -54 0 -150 -81 -187
-158 -25 -51 -28 -67 -27 -158 l2 -101 50 -75 c28 -41 51 -82 51 -91 0 -19
-22 -24 -161 -36 -115 -11 -177 -24 -254 -52 -37 -14 -81 -19 -175 -20 -69 -1
-133 -7 -142 -12 -12 -8 -28 -5 -62 12 -41 22 -46 22 -61 8 -24 -25 -95 9 -95
46 0 18 5 19 56 14 42 -4 56 -2 61 9 3 8 19 14 37 14 18 0 37 5 44 12 6 6 33
11 59 10 26 0 50 4 54 9 3 5 43 14 90 20 46 6 106 18 132 26 27 7 57 11 67 8
11 -3 35 1 55 11 20 9 64 17 103 18 76 2 92 9 92 37 0 17 -7 19 -63 19 -43 0
-77 -6 -105 -20 -29 -14 -61 -20 -111 -20 -45 0 -84 -6 -113 -18 -63 -27 -158
-36 -183 -18 -24 18 -84 11 -135 -16 -44 -23 -63 -23 -85 2 -11 13 -15 27 -11
44 7 30 34 58 47 50 6 -3 19 2 29 11 18 16 92 27 171 25 20 0 58 7 84 16 27 9
62 14 79 11 18 -3 37 1 47 9 8 7 41 15 72 17 31 2 60 6 63 10 4 4 22 7 40 7
17 0 44 6 60 14 15 9 40 12 56 9 24 -5 28 -2 28 16 0 21 -3 22 -105 20 -58 -1
-108 -6 -111 -11 -3 -4 -15 -8 -28 -8 -13 0 -37 -7 -54 -16 -18 -8 -44 -14
-59 -13 -16 2 -45 -5 -66 -14 -29 -13 -42 -15 -58 -7 -14 8 -29 8 -53 0 -46
-15 -114 -3 -121 21 -9 27 -31 24 -52 -7 -10 -14 -28 -37 -40 -52 l-22 -27
-16 23 c-13 18 -23 22 -45 17 -25 -5 -28 -3 -34 26 -5 27 -1 38 21 62 21 21
35 27 53 24 13 -3 38 2 54 10 24 12 33 13 52 2 20 -10 27 -10 42 4 11 10 45
18 92 22 149 12 185 17 195 26 5 5 17 9 27 9 10 0 18 4 18 9 0 9 54 18 170 27
36 3 74 9 85 14 11 5 36 11 55 12 23 2 35 8 35 18 0 16 -8 16 -112 4 -54 -6
-65 -4 -93 16 -27 19 -36 21 -51 12 -10 -7 -34 -12 -53 -12 -20 0 -36 -6 -39
-14 -6 -15 -62 -46 -83 -46 -7 0 -26 8 -43 18 -31 17 -31 17 -55 -10 -43 -51
-117 -33 -116 29 1 37 25 52 101 63 41 6 89 16 107 23 29 10 36 9 46 -5 12
-16 14 -16 24 7 9 19 19 25 45 25 18 0 38 5 44 11 6 6 43 10 84 10 40 0 76 4
80 10 3 6 28 12 55 15 27 3 63 8 79 10 17 3 53 7 80 8 28 2 70 9 95 16 55 16
197 27 273 20 15 -1 169 16 262 30 39 5 114 13 168 16 54 4 100 11 103 15 7
12 34 11 34 -1z m261 -193 c39 1 52 -3 60 -18 13 -25 27 -24 55 6 16 17 34 25
58 25 19 0 38 5 41 10 10 16 25 1 25 -25 0 -39 -10 -54 -55 -76 -34 -17 -46
-19 -63 -10 -26 14 -79 14 -87 1 -3 -5 -26 -10 -50 -10 -34 0 -47 5 -55 20
-14 27 -22 25 -42 -10 -17 -30 -18 -30 -106 -30 -48 0 -92 -4 -97 -9 -10 -9
-36 -12 -252 -28 -106 -8 -119 -13 -110 -37 5 -12 21 -14 83 -10 42 3 85 9 94
14 10 5 56 9 102 8 45 0 112 2 148 5 36 4 80 7 98 7 17 1 39 2 47 2 67 2 169
2 210 1 63 -3 125 2 148 12 27 11 22 -38 -9 -74 -20 -25 -33 -31 -62 -30 -20
1 -50 -4 -67 -11 -17 -7 -90 -15 -165 -17 -74 -3 -141 -9 -147 -15 -7 -6 -32
-11 -56 -13 -23 -1 -51 -6 -62 -10 -11 -5 -95 -9 -187 -10 -93 0 -168 -4 -168
-8 0 -5 -4 -5 -10 -2 -5 3 -10 35 -10 70 0 35 -4 66 -9 70 -5 3 -12 19 -16 35
-4 17 -22 48 -41 71 -19 22 -34 47 -34 54 0 13 48 18 285 31 50 2 102 9 116
15 14 5 80 8 153 6 96 -2 129 0 138 10 9 11 14 10 30 -4 13 -11 35 -17 69 -16z
m-1957 -45 c3 -5 -2 -21 -10 -36 -7 -16 -14 -37 -14 -47 0 -29 -38 -24 -52 6
-14 30 -22 31 -55 5 -14 -11 -34 -20 -44 -20 -10 0 -24 -10 -30 -22 -7 -13
-19 -28 -28 -35 -23 -16 -30 2 -22 56 5 40 10 47 51 68 28 15 54 22 70 18 14
-3 32 -1 40 5 18 12 87 13 94 2z m883 -164 c-3 -8 -6 -5 -6 6 -1 11 2 17 5 13
3 -3 4 -12 1 -19z m303 -17 c13 -25 13 -57 -1 -82 -10 -19 -12 -19 -45 16 -18
20 -38 34 -43 30 -5 -3 -12 -1 -16 5 -3 5 -1 10 5 10 7 0 23 9 37 20 32 25 49
25 63 1z m1056 -87 c5 -20 2 -31 -13 -43 -11 -9 -23 -28 -27 -43 -5 -22 -12
-28 -34 -28 -15 0 -40 -7 -56 -15 -18 -10 -41 -13 -57 -10 -16 4 -42 0 -61 -9
-89 -40 -117 -43 -407 -45 -156 -1 -292 -6 -302 -12 -10 -5 -27 -9 -38 -9 -25
0 -28 39 -7 91 7 19 16 43 20 53 6 19 7 19 20 0 12 -16 17 -17 38 -6 13 8 68
14 129 16 58 1 112 7 120 11 20 13 394 16 448 4 30 -7 47 -6 57 1 7 7 37 10
66 8 51 -3 53 -2 67 30 18 39 28 41 37 6z m-2416 -154 c0 -5 -7 -10 -15 -10
-8 0 -15 5 -15 10 0 6 7 10 15 10 8 0 15 -4 15 -10z m2420 -40 c0 -11 -8 -27
-19 -37 -10 -10 -24 -35 -30 -55 -14 -43 -29 -57 -36 -34 -18 56 -18 56 -29 4
-7 -33 -65 -54 -98 -37 -14 7 -28 7 -46 0 -17 -6 -145 -10 -335 -10 -189 0
-313 -3 -320 -9 -7 -6 -48 -13 -92 -16 -315 -24 -342 -27 -355 -47 -3 -4 -61
-9 -130 -10 -69 -2 -128 -7 -131 -12 -3 -5 -21 -10 -40 -11 -19 -2 -44 -8 -56
-14 -12 -7 -42 -12 -66 -12 -24 0 -58 -7 -76 -16 -28 -14 -185 -34 -274 -35
-15 0 -40 -5 -55 -11 -15 -6 -44 -12 -64 -15 -29 -3 -39 0 -48 17 -11 21 -44
27 -55 10 -11 -18 -23 -11 -33 19 -11 31 -7 41 15 41 7 0 22 8 33 17 11 10 42
19 72 21 29 2 60 8 70 13 9 5 36 9 60 9 24 1 60 7 82 15 21 7 53 11 71 8 19
-3 35 0 39 6 4 6 27 11 50 11 25 0 48 6 55 14 13 15 70 24 201 32 47 2 94 9
105 13 57 25 91 30 214 29 83 0 137 4 144 11 6 6 19 11 29 11 10 0 18 3 18 8
0 12 49 31 56 21 7 -12 251 -12 259 1 3 5 39 9 80 9 42 0 91 5 110 11 24 8 40
8 48 2 15 -12 125 -13 133 -1 8 13 88 11 102 -3 9 -9 18 -9 37 0 32 15 102 16
110 1 4 -6 14 -8 22 -5 8 3 23 2 33 -4 13 -7 21 -5 31 6 8 10 21 13 39 9 24
-5 29 -2 39 25 11 33 31 33 31 0z m-590 -201 c32 -7 55 -7 63 -2 15 12 85 14
92 3 3 -5 56 -6 117 -4 77 4 119 1 134 -7 19 -10 26 -9 39 5 21 20 44 20 73 0
22 -15 24 -15 37 2 7 11 17 16 21 11 4 -4 -1 -13 -11 -20 -15 -11 -17 -24 -13
-75 4 -54 2 -61 -15 -66 -11 -2 -28 1 -38 7 -14 9 -26 9 -49 0 -26 -10 -32 -9
-45 9 -12 18 -16 19 -31 7 -11 -9 -39 -12 -95 -10 -74 3 -79 1 -79 -18 0 -25
13 -33 59 -37 72 -7 84 -6 93 10 11 20 73 21 109 2 16 -8 32 -10 42 -5 13 8
14 3 5 -34 -5 -23 -7 -63 -4 -88 5 -37 3 -48 -10 -53 -27 -10 -34 -7 -44 19
-10 26 -35 34 -42 14 -3 -8 -14 -6 -37 6 -25 13 -47 15 -90 10 -31 -3 -94 -8
-141 -11 -47 -3 -91 -10 -97 -16 -9 -7 -17 -7 -28 2 -11 9 -48 11 -142 6 -283
-13 -359 -18 -375 -27 -9 -5 -30 -9 -47 -9 -16 0 -33 -4 -36 -10 -4 -6 -61
-10 -139 -10 -84 0 -136 -4 -143 -11 -13 -13 -76 -29 -143 -35 -25 -3 -54 -9
-65 -13 -40 -17 -103 -31 -139 -31 -20 0 -55 -9 -79 -19 -23 -11 -65 -22 -94
-25 -48 -5 -54 -3 -73 21 -15 20 -20 38 -18 67 3 35 7 41 28 44 14 2 34 7 45
12 23 10 70 19 135 26 25 3 54 9 65 14 22 10 60 17 150 29 62 9 138 31 151 44
4 4 39 7 78 7 39 1 118 8 176 16 119 17 384 36 538 38 90 1 103 3 108 20 10
30 -20 52 -54 40 -15 -5 -94 -11 -177 -13 -82 -1 -154 -6 -160 -9 -5 -4 -50
-9 -100 -13 -49 -4 -108 -12 -130 -19 -22 -7 -101 -16 -175 -20 -100 -5 -150
-12 -194 -28 -33 -12 -76 -22 -96 -22 -21 0 -54 -7 -74 -15 -20 -8 -55 -15
-78 -15 -73 1 -161 -9 -172 -20 -5 -5 -27 -10 -47 -10 -21 0 -41 -4 -44 -10
-3 -5 -26 -10 -51 -10 -39 0 -47 4 -64 33 -44 72 -16 99 115 112 39 4 76 12
83 18 7 5 37 9 67 8 29 0 57 4 60 9 3 6 22 10 41 10 20 0 44 4 54 10 10 5 40
12 66 15 26 4 53 9 58 13 6 4 45 10 86 14 41 3 104 12 140 18 36 7 90 16 120
22 55 9 181 20 445 36 112 7 191 21 232 41 1 1 25 -4 53 -10z m427 -373 c9 -9
12 -165 4 -170 -3 -2 -31 1 -61 6 -30 5 -77 11 -103 13 -27 2 -55 9 -63 16
-10 9 -25 9 -58 0 -27 -6 -140 -11 -280 -11 -146 0 -237 -4 -241 -10 -3 -5
-33 -10 -65 -10 -32 0 -61 -4 -64 -9 -3 -5 -69 -9 -147 -10 -107 -1 -145 -4
-162 -16 -12 -8 -34 -15 -49 -15 -15 0 -30 -4 -33 -10 -3 -5 -30 -10 -60 -10
-30 0 -56 -4 -59 -9 -3 -4 -22 -11 -43 -14 -21 -4 -59 -11 -86 -16 -30 -7 -56
-7 -72 -1 -21 8 -25 16 -25 54 0 50 19 69 80 79 90 15 106 19 127 29 13 6 46
8 77 5 38 -4 60 -1 73 8 10 8 37 15 61 15 24 0 56 7 73 15 21 12 54 15 114 14
47 -2 89 2 97 8 18 15 87 23 283 33 170 10 266 17 271 22 6 7 405 0 411 -6z
m-2008 -75 c24 -34 26 -50 8 -75 -26 -35 -77 5 -89 68 -3 18 15 29 54 35 4 1
16 -12 27 -28z m1637 -102 c6 -11 94 -6 151 7 39 10 45 -24 18 -92 -22 -55
-26 -59 -57 -60 -44 -1 -80 -14 -75 -28 17 -45 16 -55 -9 -92 -15 -21 -31 -51
-36 -66 -6 -16 -16 -28 -23 -28 -21 0 -26 16 -10 30 8 7 15 23 15 35 0 19 -7
24 -45 29 -25 4 -45 11 -45 17 0 5 -11 9 -25 9 -14 0 -25 3 -25 8 1 19 19 27
63 28 58 1 88 23 67 49 -14 17 -110 15 -285 -6 -83 -10 -212 -15 -260 -11 -48
5 -162 -12 -184 -26 -13 -9 -39 -15 -57 -14 -19 2 -44 -2 -55 -9 -16 -8 -27
-8 -45 2 -18 9 -30 10 -49 1 -14 -6 -25 -16 -25 -22 0 -5 -6 -10 -14 -10 -8 0
-18 16 -23 37 -5 21 -15 37 -25 39 -9 1 -24 6 -33 11 -13 8 -10 12 22 28 21
10 46 22 55 26 10 5 37 9 61 9 24 0 47 4 52 9 6 5 39 11 75 14 36 2 92 11 124
20 33 8 64 13 70 11 6 -2 79 3 161 11 83 9 212 20 288 25 76 4 141 11 144 14
10 10 31 7 39 -5z m-1526 -39 c0 -25 -37 -100 -49 -100 -11 0 -61 61 -61 74 0
6 21 18 48 27 64 22 62 22 62 -1z m1223 -188 c11 -10 14 -18 7 -22 -6 -4 -19
-29 -28 -56 l-18 -49 -54 -5 c-54 -5 -68 -3 -141 19 -45 14 -136 14 -144 1 -9
-14 -51 -12 -63 3 -6 6 -13 29 -17 50 l-7 37 55 0 c30 0 67 6 81 14 16 8 62
14 114 15 48 0 101 5 117 10 36 11 73 4 98 -17z m107 -2 c0 -5 -7 -10 -15 -10
-8 0 -15 5 -15 10 0 6 7 10 15 10 8 0 15 -4 15 -10z m-589 -49 c6 -14 5 -20
-1 -16 -6 3 -10 2 -10 -4 0 -14 -41 -51 -56 -51 -34 0 -22 63 16 85 32 17 41
14 51 -14z m-131 -30 c0 -23 -16 -36 -25 -21 -9 14 1 40 15 40 5 0 10 -9 10
-19z m823 -26 c7 -18 -9 -29 -30 -21 -12 5 -13 9 -3 21 16 19 26 19 33 0z
m-1049 -50 c6 -32 9 -34 28 -24 16 9 24 8 36 -4 22 -23 8 -47 -28 -47 -51 0
-117 87 -77 103 27 11 35 6 41 -28z m936 -20 c0 -8 -43 -55 -51 -55 -9 0 -17
32 -12 48 4 11 63 18 63 7z m-425 -36 c0 -28 -23 -32 -39 -6 -8 14 -8 20 4 27
22 14 35 6 35 -21z"/>
<path d="M3654 8284 c-7 -27 -50 -73 -69 -74 -5 0 -19 14 -30 30 -24 36 -27
36 -41 6 -15 -31 -6 -81 17 -102 18 -17 22 -17 74 0 43 13 55 21 55 38 0 16 5
19 24 16 16 -3 27 0 30 9 7 18 -16 74 -37 91 -14 12 -17 10 -23 -14z"/>
<path d="M3765 7672 c-3 -3 -5 -11 -5 -19 0 -14 33 -16 62 -5 14 6 10 10 -17
18 -19 6 -37 9 -40 6z"/>
<path d="M3808 7473 c7 -3 16 -2 19 1 4 3 -2 6 -13 5 -11 0 -14 -3 -6 -6z"/>
<path d="M1150 8740 c0 -19 3 -21 12 -12 9 9 9 15 0 24 -9 9 -12 7 -12 -12z"/>
<path d="M1310 8105 c-27 -28 -22 -40 12 -31 33 9 61 33 53 45 -11 19 -40 12
-65 -14z"/>
<path d="M454 7556 c-8 -21 3 -49 16 -41 5 3 10 15 10 25 0 25 -18 36 -26 16z"/>
<path d="M865 7501 c-6 -5 -35 -12 -65 -14 -74 -7 -153 -21 -166 -30 -7 -4
-17 -1 -23 7 -12 15 -40 11 -75 -10 -27 -16 -10 -34 32 -34 20 0 51 -1 67 -1
17 0 55 5 85 11 30 6 78 14 105 18 28 4 59 12 70 19 16 9 17 13 6 27 -15 18
-23 20 -36 7z"/>
<path d="M525 6850 c-3 -5 1 -10 9 -10 9 0 16 5 16 10 0 6 -4 10 -9 10 -6 0
-13 -4 -16 -10z"/>
<path d="M2583 7743 c-38 -3 -53 -8 -53 -19 0 -20 117 -19 156 1 l29 15 -27 0
c-14 0 -32 1 -40 3 -7 2 -37 2 -65 0z"/>
<path d="M2479 7726 c-3 -3 -31 -6 -64 -8 -79 -5 -88 -28 -10 -28 56 0 95 12
95 30 0 10 -13 13 -21 6z"/>
<path d="M2550 7565 c-7 -8 -18 -15 -26 -15 -26 0 -24 -19 3 -20 99 -2 171 3
211 16 26 7 62 14 80 14 17 0 32 5 32 11 0 9 -22 10 -82 4 -94 -9 -148 -10
-182 -1 -15 4 -28 0 -36 -9z"/>
<path d="M2425 7539 c-11 -4 -36 -8 -55 -8 -20 -1 -40 -5 -46 -11 -5 -5 -27
-11 -49 -12 -22 -2 -39 -7 -37 -11 1 -4 2 -11 2 -17 0 -14 16 -13 53 4 18 8
48 17 67 20 19 3 52 9 73 12 20 4 37 10 37 14 0 13 -24 18 -45 9z"/>
<path d="M2635 7390 c-3 -5 -25 -10 -48 -10 -49 0 -78 -13 -52 -24 26 -10 75
-7 75 4 0 6 33 10 78 10 42 0 95 7 117 15 40 14 39 14 -62 15 -58 0 -105 -4
-108 -10z"/>
<path d="M1957 7313 c-4 -3 -7 -15 -7 -25 0 -26 24 -17 28 10 3 21 -8 29 -21
15z"/>
<path d="M2035 7310 c3 -5 8 -10 11 -10 2 0 4 5 4 10 0 6 -5 10 -11 10 -5 0
-7 -4 -4 -10z"/>
<path d="M2807 7223 c-2 -1 -50 -7 -108 -12 -156 -15 -181 -21 -177 -40 4 -20
34 -26 62 -12 22 11 211 30 365 37 52 2 99 8 105 13 6 5 20 11 31 14 11 3 -47
4 -128 4 -81 -1 -149 -2 -150 -4z"/>
<path d="M2257 7180 c-3 -11 -19 -25 -37 -31 -38 -14 -34 -35 6 -31 16 2 54 5
84 8 30 3 59 10 65 15 5 5 20 9 35 9 32 0 55 14 46 29 -8 13 -58 15 -71 2 -6
-5 -30 -11 -54 -14 -37 -5 -44 -3 -48 14 -7 25 -19 24 -26 -1z"/>
<path d="M2150 7135 c0 -8 7 -15 15 -15 8 0 15 4 15 9 0 5 -7 11 -15 15 -9 3
-15 0 -15 -9z"/>
<path d="M2993 7043 c-9 -23 9 -35 41 -29 17 4 49 10 70 14 22 4 41 12 43 19
6 16 -148 13 -154 -4z"/>
<path d="M2840 7042 c-52 -2 -99 -7 -104 -12 -6 -6 -54 -10 -109 -10 -88 0
-98 -2 -95 -17 3 -16 15 -18 93 -16 130 2 310 27 320 43 8 14 -5 15 -105 12z"/>
<path d="M1980 7000 c0 -5 7 -10 15 -10 8 0 15 5 15 10 0 6 -7 10 -15 10 -8 0
-15 -4 -15 -10z"/>
<path d="M2433 6988 c-28 -13 -30 -28 -4 -28 30 0 51 11 51 26 0 16 -16 17
-47 2z"/>
<path d="M1840 6975 c-7 -8 -10 -18 -8 -21 10 -9 59 8 55 20 -6 18 -33 18 -47
1z"/>
<path d="M1795 6950 c3 -5 8 -10 11 -10 2 0 4 5 4 10 0 6 -5 10 -11 10 -5 0
-7 -4 -4 -10z"/>
<path d="M3090 6871 c-57 -5 -75 -10 -75 -21 0 -24 130 -27 173 -4 17 9 32 21
32 26 0 8 -4 8 -130 -1z"/>
<path d="M2862 6860 c-23 -5 -77 -11 -120 -14 -158 -11 -191 -19 -192 -48 0
-13 95 -9 108 4 6 6 74 15 157 21 124 9 145 13 143 26 -4 19 -37 22 -96 11z"/>
<path d="M1971 6831 c-13 -9 -132 -28 -206 -34 -20 -1 -31 -8 -33 -20 -3 -17
0 -18 30 -12 38 9 73 13 176 21 55 5 75 11 82 24 15 28 -16 41 -49 21z"/>
<path d="M2166 6801 c-10 -11 -16 -27 -12 -36 5 -14 18 -16 74 -12 37 3 78 7
92 10 14 3 67 12 118 18 86 12 109 21 80 31 -29 10 -257 -11 -284 -25 -28 -14
-29 -14 -39 10 l-10 25 -19 -21z"/>
<path d="M1667 6781 c-3 -11 -1 -23 3 -26 14 -8 22 13 12 31 -8 14 -10 14 -15
-5z"/>
<path d="M3260 6691 c-8 -5 -59 -9 -113 -8 -103 0 -131 -9 -108 -37 9 -11 18
-13 31 -6 9 5 20 7 22 4 3 -2 33 3 68 12 35 9 76 13 91 10 16 -3 31 -1 35 5 9
16 -9 29 -26 20z"/>
<path d="M2860 6670 c-8 -5 -33 -10 -55 -10 -23 0 -45 -4 -51 -10 -5 -5 -52
-10 -104 -12 -76 -2 -95 -6 -95 -18 0 -12 16 -15 90 -14 50 1 113 6 140 12 32
6 56 6 68 0 14 -7 24 -5 36 6 10 9 25 14 33 11 17 -7 43 19 33 35 -8 13 -75
13 -95 0z"/>
<path d="M2035 6659 c-11 -17 0 -20 21 -4 17 13 17 14 2 15 -9 0 -20 -5 -23
-11z"/>
<path d="M1847 6628 c-7 -4 -24 -8 -38 -8 -14 0 -43 -11 -64 -25 -20 -15 -38
-25 -40 -23 -1 2 -8 13 -14 26 -15 29 -32 28 -66 -4 -17 -16 -34 -23 -44 -19
-30 12 -36 10 -36 -10 0 -14 7 -20 22 -20 12 0 25 -4 29 -8 4 -4 18 0 32 9 22
14 27 14 59 -1 33 -16 36 -16 56 3 13 12 44 23 72 27 64 9 176 46 169 56 -6
10 -121 7 -137 -3z"/>
<path d="M2405 6633 c-39 -4 -55 -16 -55 -40 0 -15 56 -18 65 -3 3 6 20 10 36
10 24 0 30 4 27 17 -4 20 -14 22 -73 16z"/>
<path d="M2286 6593 c-5 -11 0 -22 11 -31 15 -11 20 -10 31 5 11 15 10 20 -5
30 -23 17 -30 16 -37 -4z"/>
<path d="M3075 6489 c-4 -10 -3 -23 0 -29 8 -13 50 -13 73 -1 9 5 44 13 77 18
89 12 64 28 -47 30 -88 1 -98 -1 -103 -18z"/>
<path d="M2925 6480 c-4 -7 -62 -10 -170 -9 -90 1 -168 -2 -174 -6 -16 -9 -13
-55 4 -61 8 -4 31 1 51 11 20 9 64 18 98 19 33 2 112 7 174 11 95 7 112 11
110 24 -4 19 -82 28 -93 11z"/>
<path d="M2413 6452 c-19 -25 -25 -27 -87 -26 -57 2 -67 -1 -64 -15 2 -9 12
-15 23 -13 11 2 63 4 115 5 92 2 95 3 98 26 4 27 -4 36 -39 44 -20 5 -30 1
-46 -21z"/>
<path d="M1930 6448 c-25 -4 -51 -6 -59 -3 -8 3 -37 -2 -65 -11 -28 -9 -57
-18 -64 -20 -9 -3 -11 -11 -6 -26 9 -33 14 -35 28 -16 14 19 99 40 171 42 28
0 55 4 61 8 7 4 17 1 24 -7 15 -18 60 -20 60 -2 0 26 -17 38 -43 32 -14 -4
-33 -3 -44 2 -10 6 -37 6 -63 1z"/>
<path d="M1605 6430 c-3 -5 -14 -10 -25 -10 -20 0 -32 -22 -24 -45 7 -17 20
-20 29 -5 3 6 15 10 25 10 21 0 40 28 33 48 -6 14 -29 16 -38 2z"/>
<path d="M1492 6379 c1 -13 8 -23 13 -21 15 3 12 35 -3 40 -9 3 -13 -3 -10
-19z"/>
<path d="M2220 6374 c0 -8 5 -12 10 -9 6 3 10 10 10 16 0 5 -4 9 -10 9 -5 0
-10 -7 -10 -16z"/>
<path d="M1230 6360 c0 -5 5 -10 10 -10 6 0 10 5 10 10 0 6 -4 10 -10 10 -5 0
-10 -4 -10 -10z"/>
<path d="M2120 6301 c-44 -25 -47 -32 -25 -55 13 -13 19 -13 43 -1 15 7 41 17
57 22 23 6 31 15 33 36 3 25 1 27 -32 25 -20 -2 -54 -14 -76 -27z"/>
<path d="M2700 6310 c0 -5 -19 -10 -42 -10 -49 0 -107 -37 -93 -60 9 -15 108
-8 129 9 9 7 36 8 82 2 38 -4 97 -6 132 -3 58 4 62 6 62 28 0 24 -3 24 -62 23
-70 -2 -166 6 -175 15 -10 10 -33 7 -33 -4z"/>
<path d="M3247 6306 c-12 -10 -42 -12 -110 -9 -96 4 -124 -4 -114 -32 5 -11
13 -14 28 -10 33 11 76 16 167 22 71 4 83 7 80 21 -4 22 -28 25 -51 8z"/>
<path d="M1984 6270 c-16 -16 -35 -20 -122 -21 -56 -1 -105 -6 -108 -11 -3 -5
-2 -22 1 -39 6 -27 10 -30 32 -24 14 3 30 2 36 -4 16 -12 158 32 169 54 5 8
15 15 23 15 23 0 26 16 7 33 -17 15 -20 15 -38 -3z"/>
<path d="M2445 6250 c-3 -5 -1 -10 4 -10 6 0 11 5 11 10 0 6 -2 10 -4 10 -3 0
-8 -4 -11 -10z"/>
<path d="M2495 6251 c-3 -5 -1 -12 5 -16 5 -3 10 1 10 9 0 18 -6 21 -15 7z"/>
<path d="M2340 6241 c0 -11 38 -21 56 -14 8 3 11 9 8 14 -7 12 -64 12 -64 0z"/>
<path d="M1557 6204 c-18 -21 -21 -22 -43 -7 -42 27 -93 -1 -78 -42 5 -11 15
-14 39 -9 18 3 42 1 53 -5 25 -13 142 7 149 26 3 7 2 24 -1 38 -6 24 -11 26
-53 23 -34 -1 -52 -8 -66 -24z"/>
<path d="M2710 6134 c-36 -7 -83 -20 -105 -29 -22 -9 -48 -18 -57 -21 -16 -6
-15 -8 6 -25 26 -20 66 -25 82 -10 5 6 45 11 89 13 45 3 87 8 95 13 8 6 44 10
80 10 l65 0 0 30 c0 28 -3 30 -44 33 -33 2 -49 -2 -65 -17 -21 -20 -23 -20
-51 -3 -27 17 -36 17 -95 6z"/>
<path d="M3010 6117 c0 -36 17 -46 53 -34 18 5 38 12 45 13 25 7 1 24 -34 24
-19 0 -34 5 -34 10 0 6 -7 10 -15 10 -9 0 -15 -9 -15 -23z"/>
<path d="M3325 6129 c-27 -5 -78 -6 -113 -4 -51 4 -64 2 -69 -11 -10 -26 11
-31 117 -27 96 4 170 22 170 43 0 12 -34 11 -105 -1z"/>
<path d="M1995 6117 c-4 -9 -4 -33 -1 -52 5 -26 13 -36 31 -41 18 -4 25 -13
25 -30 0 -28 12 -31 31 -8 10 12 25 15 59 11 27 -3 62 1 90 10 25 9 75 16 112
17 36 1 70 4 74 9 4 4 17 7 29 7 12 0 30 6 40 14 16 12 17 16 6 30 -16 20 -58
20 -91 1 -34 -19 -35 -19 -49 11 -10 23 -16 26 -43 20 -18 -3 -39 -13 -48 -21
-24 -21 -100 -31 -111 -14 -7 11 -12 12 -29 2 -33 -21 -62 -15 -91 20 -24 28
-28 30 -34 14z"/>
<path d="M1240 6110 c-12 -8 -12 -10 3 -16 21 -8 35 2 21 16 -5 5 -15 6 -24 0z"/>
<path d="M1644 6072 c-8 -12 -22 -16 -51 -14 l-41 3 -6 -46 c-9 -58 -25 -50
-19 10 7 55 -16 71 -50 36 -18 -18 -20 -24 -9 -41 19 -31 15 -50 -12 -50 -36
0 -41 -37 -8 -65 25 -21 27 -21 44 -5 11 10 39 20 64 24 24 3 57 12 73 20 21
11 31 12 39 4 19 -19 26 18 12 70 -18 67 -23 75 -36 54z"/>
<path d="M1766 6072 c-3 -3 -6 -35 -6 -71 0 -50 3 -62 12 -53 7 7 33 12 58 12
25 0 50 4 56 9 5 6 29 11 54 13 36 2 46 7 48 23 5 35 -19 52 -80 58 -55 5 -57
4 -66 -21 l-10 -27 -10 26 c-10 25 -44 44 -56 31z"/>
<path d="M1280 6002 c0 -45 3 -50 25 -56 18 -5 23 -11 18 -24 -3 -9 8 -2 26
17 22 24 31 44 31 68 0 37 -24 46 -35 13 -8 -26 -18 -25 -30 2 -19 42 -35 33
-35 -20z"/>
<path d="M3540 5961 c-6 -16 -10 -40 -8 -53 4 -20 7 -17 26 22 20 42 21 60 3
60 -5 0 -14 -13 -21 -29z"/>
<path d="M2434 5936 c-11 -25 -24 -48 -31 -50 -7 -3 -64 -8 -127 -12 -87 -5
-119 -4 -131 6 -20 17 -43 6 -55 -25 -13 -34 -28 -23 -36 26 -4 21 -9 39 -13
39 -3 0 -16 -16 -29 -35 -22 -34 -24 -35 -80 -33 -32 1 -72 -4 -89 -11 -23 -9
-37 -10 -51 -2 -24 13 -32 5 -32 -28 0 -39 14 -56 29 -37 7 8 25 15 39 15 114
0 197 9 422 42 36 5 115 11 177 14 61 3 123 9 137 15 14 5 90 10 168 11 79 0
149 4 158 9 8 4 98 10 199 13 142 5 188 9 199 21 8 8 11 19 8 25 -9 14 -71 14
-96 1 -21 -11 -30 -12 -205 -12 -71 0 -152 -2 -180 -5 -27 -2 -111 -5 -185 -6
l-135 -2 -5 30 c-8 47 -35 43 -56 -9z"/>
<path d="M1605 5812 c-10 -11 -110 -19 -121 -11 -7 6 -16 4 -24 -6 -7 -8 -19
-15 -26 -15 -8 0 -14 -6 -14 -14 0 -18 42 -27 100 -21 25 2 74 7 110 10 69 6
92 17 73 36 -13 13 -90 29 -98 21z"/>
<path d="M1266 5788 c-10 -39 -7 -46 27 -54 17 -4 36 -7 41 -6 4 2 14 -3 22
-9 12 -9 14 -4 14 29 l0 41 -35 -6 c-26 -4 -36 -2 -41 11 -9 23 -21 20 -28 -6z"/>
<path d="M2982 5754 c-21 -14 -58 -15 -147 -4 -24 4 -202 -12 -220 -19 -57
-23 -115 -31 -140 -19 -19 9 -34 9 -58 1 -18 -6 -86 -12 -152 -12 -66 -1 -124
-6 -129 -11 -19 -19 -64 -11 -72 12 l-7 22 -17 -22 c-10 -12 -25 -22 -34 -22
-8 0 -17 -4 -21 -9 -3 -6 -38 -10 -78 -9 -100 0 -97 2 -97 -33 0 -31 1 -31 38
-25 20 4 62 7 93 6 50 -1 59 2 78 26 17 21 24 24 35 15 11 -9 41 -11 103 -7
48 4 137 8 197 11 61 3 114 9 120 15 16 16 67 12 87 -6 17 -15 20 -15 43 0 29
18 97 21 113 5 9 -9 19 -6 42 10 25 18 47 23 120 25 50 1 93 5 97 9 4 4 13 2
20 -4 9 -7 19 -6 35 3 17 10 23 10 26 1 3 -7 17 -13 33 -13 16 0 30 6 33 13 2
6 19 12 38 12 23 0 34 5 34 15 0 18 -109 25 -143 8 -18 -9 -25 -8 -35 5 -11
16 -14 16 -35 1z"/>
<path d="M837 5725 c6 -17 25 -15 31 3 2 7 -5 12 -17 12 -14 0 -19 -5 -14 -15z"/>
<path d="M897 5734 c-9 -10 2 -24 19 -24 8 0 14 7 14 15 0 15 -21 21 -33 9z"/>
<path d="M1362 5661 c-13 -36 -37 -49 -63 -33 -27 17 -29 16 -29 -22 0 -48 19
-61 67 -46 51 17 56 22 56 70 0 55 -17 71 -31 31z"/>
<path d="M1616 5628 c-27 -15 -97 -20 -112 -7 -9 7 -20 6 -39 -7 -32 -21 -27
-40 11 -37 16 1 61 2 100 3 82 1 117 17 95 44 -16 19 -29 20 -55 4z"/>
<path d="M1168 5593 c-64 -7 -44 -43 23 -43 24 0 29 4 29 25 0 14 -3 24 -7 23
-5 -1 -25 -3 -45 -5z"/>
<path d="M1045 5570 c-18 -20 -17 -20 12 -20 36 0 47 9 32 27 -15 18 -23 17
-44 -7z"/>
<path d="M937 5573 c-4 -3 -7 -15 -7 -25 0 -13 7 -17 26 -16 40 4 52 26 19 38
-31 12 -30 12 -38 3z"/>
<path d="M1675 5533 c-7 -6 -18 -25 -25 -42 -10 -25 -18 -31 -44 -31 -17 0
-47 -4 -66 -10 -22 -6 -38 -6 -44 0 -15 15 -23 12 -29 -11 -9 -33 2 -50 24
-39 21 12 121 23 193 22 39 -1 53 4 67 21 20 24 24 63 9 87 -11 18 -69 20 -85
3z"/>
<path d="M1938 5524 c-13 -13 -20 -14 -38 -4 -24 13 -44 0 -83 -54 l-21 -29
105 6 c89 5 106 9 118 27 7 11 22 20 32 20 23 0 25 28 3 37 -8 3 -20 1 -27 -6
-15 -15 -37 -14 -57 4 -14 13 -18 13 -32 -1z"/>
<path d="M1346 5455 c-11 -8 -40 -15 -64 -15 -41 0 -43 -1 -40 -27 3 -24 8
-28 40 -31 20 -2 46 2 57 7 16 9 22 8 30 -6 8 -15 11 -16 15 -3 3 8 7 24 7 35
5 56 -8 68 -45 40z"/>
<path d="M1147 5434 c-21 -12 -32 -13 -42 -4 -10 9 -15 6 -20 -10 -11 -34 8
-44 57 -34 29 6 44 15 46 28 6 28 -10 36 -41 20z"/>
<path d="M2055 5415 c-16 -9 -37 -24 -47 -35 -21 -25 -30 -25 -53 0 -10 11
-22 20 -26 20 -5 0 -20 -22 -34 -49 -13 -27 -29 -52 -34 -55 -5 -4 -13 14 -16
39 -4 25 -13 45 -19 45 -15 0 -50 -95 -42 -115 4 -12 10 -13 31 -3 20 9 28 8
43 -5 16 -14 21 -15 38 -3 11 8 49 17 86 21 56 6 67 5 75 -10 8 -14 13 -12 36
19 31 40 37 105 11 130 -19 19 -13 19 -49 1z"/>
<path d="M943 5401 c-86 -14 -57 -38 32 -26 41 5 53 10 48 21 -5 15 -14 15
-80 5z"/>
<path d="M1353 5338 c-4 -7 -13 -22 -18 -33 -6 -10 -27 -23 -47 -28 -36 -9
-56 -35 -43 -57 9 -14 61 -13 84 2 15 9 26 9 47 0 33 -15 34 -14 41 38 5 33 2
45 -17 65 -26 28 -35 30 -47 13z"/>
<path d="M1697 5294 c-17 -23 -23 -24 -122 -24 -98 0 -105 -1 -105 -20 0 -19
6 -20 106 -18 58 1 107 6 110 10 3 4 16 5 30 2 20 -5 24 -3 24 18 0 13 -6 32
-12 41 -12 14 -15 14 -31 -9z"/>
<path d="M1146 5245 c-7 -29 0 -48 15 -40 12 8 12 65 0 65 -5 0 -12 -11 -15
-25z"/>
<path d="M1035 5251 c-6 -5 -30 -16 -55 -25 -35 -12 -40 -15 -20 -16 14 -1 47
-3 73 -5 52 -3 70 12 47 40 -14 17 -32 19 -45 6z"/>
<path d="M860 5210 c0 -5 4 -10 9 -10 6 0 13 5 16 10 3 6 -1 10 -9 10 -9 0
-16 -4 -16 -10z"/>
<path d="M1613 5129 c-12 -31 -13 -32 -65 -26 -29 4 -63 9 -75 13 -20 6 -23 3
-23 -25 l0 -31 63 1 c34 0 103 4 152 8 57 6 95 5 103 -1 9 -8 12 -6 12 6 0 19
-27 76 -36 76 -3 0 -20 -11 -39 -25 l-33 -26 -24 31 -24 30 -11 -31z"/>
<path d="M1287 4783 c-30 -3 -41 -10 -50 -31 -13 -29 -11 -29 -142 -34 -62 -3
-70 -5 -70 -23 0 -19 5 -20 84 -16 88 4 147 8 246 17 64 6 85 21 85 60 0 17
-8 23 -37 28 -38 6 -48 6 -116 -1z"/>
<path d="M1389 4633 c-6 -16 -13 -39 -15 -53 -5 -24 -9 -25 -67 -23 -80 2
-167 -26 -167 -53 0 -22 18 -25 63 -10 33 11 54 12 87 5 34 -8 46 -7 59 5 9 8
34 16 56 18 37 3 41 6 54 44 13 38 13 45 -2 68 -23 35 -55 34 -68 -1z"/>
<path d="M1507 4084 c-10 -11 -8 -44 2 -44 6 0 13 4 16 10 8 12 -9 43 -18 34z"/>
<path d="M3058 1173 c-49 -3 -58 -7 -58 -23 0 -26 17 -34 81 -36 46 -2 57 1
68 19 12 18 11 22 -5 34 -10 7 -20 12 -23 11 -3 -1 -32 -3 -63 -5z"/>
</g>
</svg>
