<?xml version="1.0" standalone="no"?>
<!DOCTYPE svg PUBLIC "-//W3C//DTD SVG 20010904//EN"
 "http://www.w3.org/TR/2001/REC-SVG-20010904/DTD/svg10.dtd">
<svg version="1.0" xmlns="http://www.w3.org/2000/svg"
 width="433.000000pt" height="1124.000000pt" viewBox="0 0 433.000000 1124.000000"
 preserveAspectRatio="xMidYMid meet">

<g transform="translate(0.000000,1124.000000) scale(0.100000,-0.100000)"
fill="#000000" stroke="none">
<path d="M2355 11081 c-26 -5 -31 -12 -40 -56 -8 -34 -17 -51 -28 -53 -9 -2
-17 -8 -17 -13 0 -20 -41 -8 -50 15 -13 34 -27 40 -40 16 -13 -24 -35 -26 -44
-4 -5 13 -12 8 -34 -22 -16 -22 -32 -52 -36 -67 -6 -24 -9 -27 -21 -17 -8 7
-15 26 -15 42 0 16 -5 38 -10 48 -10 19 -11 19 -46 0 -19 -11 -43 -20 -52 -20
-10 0 -22 -4 -28 -9 -5 -5 -22 -11 -39 -13 -39 -4 -46 -35 -14 -59 l23 -17
-67 -69 c-45 -45 -71 -81 -78 -106 -11 -41 -2 -71 13 -43 8 14 27 17 116 17
59 0 125 1 147 2 31 2 40 -2 43 -15 3 -14 -3 -18 -26 -18 -27 0 -82 -40 -82
-61 0 -4 -33 -5 -72 -3 -83 6 -97 0 -106 -45 -11 -51 -26 -41 -36 24 -5 33
-10 61 -11 63 -1 1 -15 -4 -30 -12 -16 -8 -32 -13 -37 -10 -4 3 -19 -3 -33
-12 -17 -11 -35 -14 -56 -10 -29 5 -55 -4 -91 -32 -9 -8 -42 -14 -74 -14 -32
0 -63 -6 -69 -12 -43 -45 -215 -287 -215 -302 0 -2 -9 -14 -20 -26 -30 -32
-26 -61 12 -77 28 -13 33 -12 47 5 13 15 31 20 88 22 41 1 74 -2 78 -8 9 -14
58 -13 73 2 9 9 15 9 24 0 7 -7 37 -12 68 -12 46 0 61 -4 78 -23 12 -13 22
-26 22 -29 0 -12 -107 -20 -126 -10 -13 6 -41 6 -82 0 -42 -6 -73 -6 -92 1
-24 8 -34 6 -53 -9 -24 -19 -25 -19 -42 0 -51 56 -42 -17 10 -85 19 -26 35
-54 35 -63 0 -35 14 -44 46 -30 16 7 35 18 42 25 18 17 41 16 76 -2 15 -8 37
-15 47 -15 12 0 21 -10 25 -26 5 -21 0 -31 -27 -54 -29 -24 -46 -29 -118 -35
-55 -5 -90 -4 -102 3 -9 6 -26 8 -37 5 -14 -3 -24 2 -31 16 -10 17 -21 21 -60
21 -33 0 -53 -5 -62 -16 -11 -14 -27 -15 -105 -10 l-91 7 -30 -34 c-16 -18
-34 -46 -40 -63 -59 -151 -82 -215 -92 -249 -6 -23 -20 -50 -31 -62 -11 -12
-20 -29 -20 -38 0 -17 50 -85 62 -85 5 0 32 -22 60 -50 29 -27 71 -65 93 -84
l39 -34 -15 -48 c-11 -38 -20 -50 -37 -52 -14 -2 -27 -14 -33 -30 -6 -15 -16
-34 -23 -42 -16 -18 -30 -70 -19 -70 5 0 14 9 21 20 7 11 21 20 32 20 11 0 20
6 20 13 0 7 7 23 16 35 14 20 17 21 37 7 12 -8 34 -15 49 -15 17 0 31 -7 38
-20 6 -11 15 -20 21 -20 15 0 79 -62 79 -76 0 -33 -51 -38 -300 -34 l-135 2
-26 -32 -27 -32 -14 29 c-12 26 -18 28 -80 31 -60 3 -68 1 -79 -19 -17 -32
-66 -208 -90 -324 -12 -55 -23 -109 -26 -120 -7 -30 28 -65 66 -65 25 0 35 7
55 39 34 54 42 56 77 27 17 -14 39 -26 49 -26 10 0 31 -7 46 -15 17 -9 40 -13
57 -9 15 3 34 1 42 -6 10 -9 21 -8 44 4 16 9 42 16 57 16 37 0 94 21 119 43
19 18 21 17 43 -10 l23 -28 20 28 c24 32 59 35 77 7 9 -15 23 -20 60 -20 26 0
56 -7 66 -15 13 -10 43 -15 82 -15 62 0 63 0 72 33 6 17 13 58 17 89 5 42 12
62 27 72 24 17 18 46 -10 46 -10 0 -35 17 -57 37 -21 20 -40 32 -42 27 -8 -23
-44 -74 -52 -74 -18 0 -23 41 -10 91 15 59 8 77 -39 99 -32 15 -50 49 -37 69
12 20 35 11 81 -31 44 -41 47 -42 60 -23 8 10 14 27 14 36 0 10 13 53 29 96
98 268 121 336 121 362 0 38 -13 46 -35 21 -23 -25 -37 -25 -60 0 -10 11 -23
20 -29 20 -6 0 -17 9 -24 20 -29 47 -102 8 -102 -56 0 -18 -10 -57 -21 -86
-12 -29 -26 -75 -30 -102 -8 -49 -32 -86 -46 -73 -4 4 -1 22 6 40 7 18 21 59
31 92 10 33 25 81 33 106 12 39 12 52 1 78 -11 25 -19 31 -44 31 -23 0 -30 4
-30 20 0 15 7 20 28 20 15 0 32 4 37 8 6 5 30 17 54 26 41 16 45 16 54 1 8
-15 12 -14 34 7 l25 23 19 -25 c11 -14 39 -44 61 -68 l41 -43 71 3 71 3 22 45
c26 56 63 139 63 144 0 2 -21 26 -46 52 l-45 49 -16 -22 c-28 -41 -35 -26 -27
60 5 61 12 89 28 108 12 15 26 35 32 45 11 18 13 18 40 -7 34 -31 88 -46 109
-29 11 9 29 36 108 164 7 11 20 29 29 40 10 11 24 32 30 48 7 15 16 28 19 28
4 0 12 14 19 31 10 24 10 35 0 54 -17 32 -7 54 22 48 18 -3 29 6 53 39 36 52
37 53 79 102 l33 39 13 -39 c18 -56 34 -68 27 -20 -4 22 -17 55 -31 74 -13 19
-22 40 -19 47 9 25 34 26 54 3 l18 -23 1 23 c0 13 -5 33 -11 44 -15 29 4 47
31 30 30 -19 47 -15 78 18 16 17 33 30 38 30 5 0 23 12 41 28 72 64 67 62 169
62 76 0 99 -3 112 -17 16 -16 17 -15 20 15 2 24 -5 41 -30 72 -18 22 -41 40
-50 40 -9 0 -20 5 -23 10 -11 18 -102 11 -140 -10 -20 -11 -44 -20 -55 -20
-10 0 -32 -11 -48 -25 -17 -14 -37 -25 -45 -25 -8 0 -17 -5 -19 -11 -2 -5 -22
-13 -45 -16 -36 -5 -43 -2 -58 21 -10 14 -26 26 -36 26 -10 0 -20 4 -23 9 -6
9 49 21 101 21 17 0 50 10 72 22 31 16 44 19 53 10 8 -8 22 -2 53 24 23 18 52
34 64 34 12 0 38 7 58 15 32 14 38 14 53 0 9 -8 23 -15 31 -15 25 -1 78 -58
109 -117 26 -51 29 -63 20 -98 -14 -57 -12 -69 9 -93 10 -12 26 -42 35 -67 13
-32 23 -45 37 -45 10 0 19 5 19 10 0 16 26 12 65 -10 21 -12 54 -20 81 -20 42
0 46 -2 60 -35 8 -19 23 -41 34 -47 21 -13 27 -61 11 -87 -13 -20 -29 -5 -41
37 -14 51 -25 66 -44 59 -21 -8 -20 -33 3 -71 10 -17 22 -47 26 -66 26 -137
74 -326 92 -362 15 -30 59 -39 69 -15 3 8 20 20 39 27 39 15 45 41 20 76 -8
12 -28 72 -45 135 -18 63 -36 118 -41 124 -12 12 -12 35 0 35 5 0 16 -7 25
-15 13 -13 19 -13 36 -3 11 7 20 16 20 20 0 5 13 8 29 8 19 0 42 -12 67 -35
34 -31 43 -35 91 -34 62 2 73 -5 50 -28 -15 -16 -18 -16 -35 0 -13 12 -28 15
-56 10 -22 -3 -46 -1 -61 7 -27 14 -53 8 -62 -15 -6 -17 19 -143 41 -205 6
-19 19 -36 29 -38 13 -3 17 4 17 32 l0 36 43 -6 c23 -4 50 -14 60 -22 17 -15
22 -15 66 1 27 9 56 17 64 17 9 0 35 18 57 40 22 22 43 40 45 40 2 0 16 11 30
24 15 14 40 28 56 31 49 11 57 49 24 110 -16 28 -43 86 -61 130 -45 111 -123
243 -161 272 l-32 25 -21 -35 c-19 -32 -24 -35 -60 -31 -31 3 -49 13 -80 45
-22 23 -43 52 -46 65 -3 13 -19 29 -35 36 -32 14 -49 52 -31 70 7 7 24 4 54
-11 55 -26 54 -26 73 3 20 31 10 59 -20 52 -22 -6 -55 12 -90 50 -12 13 -30
22 -40 21 -17 -2 -20 5 -21 41 -2 51 -8 59 -29 42 -12 -10 -16 -9 -21 6 -13
36 -25 45 -41 33 -10 -9 -17 -9 -25 -1 -7 7 -27 12 -44 12 -18 0 -36 5 -39 10
-3 6 -17 10 -30 10 -13 0 -27 -4 -30 -10 -3 -5 -10 -10 -14 -10 -14 0 -69 57
-76 79 -7 23 -57 51 -92 51 -12 0 -23 4 -23 8 0 4 -21 13 -47 20 -43 12 -48
11 -72 -11 -30 -27 -54 -25 -68 6 -9 20 -18 22 -89 23 -44 1 -92 -1 -109 -5z
m465 -135 c0 -35 -40 -56 -106 -56 -41 0 -64 6 -85 21 -24 17 -33 18 -44 9
-18 -15 -65 -15 -127 -1 -26 6 -61 8 -78 4 -27 -5 -31 -3 -29 11 3 14 21 17
114 21 61 2 115 4 120 5 6 1 47 -1 93 -4 64 -5 88 -3 104 8 26 18 38 12 38
-18z m69 -179 c0 -21 -1 -21 -9 -2 -12 28 -12 37 0 30 6 -3 10 -16 9 -28z m21
-37 c0 -5 -2 -10 -4 -10 -3 0 -8 5 -11 10 -3 6 -1 10 4 10 6 0 11 -4 11 -10z
m92 -216 c10 -22 17 -25 46 -21 30 5 33 4 30 -16 -4 -31 -79 -38 -100 -9 -7
10 -25 22 -40 26 -19 4 -28 13 -28 26 0 17 7 20 40 20 34 0 42 -4 52 -26z
m-1002 -138 c0 -8 -7 -16 -15 -20 -15 -5 -21 14 -8 27 11 12 23 8 23 -7z
m1150 -104 c0 -16 -6 -37 -14 -48 -14 -18 -15 -18 -21 8 -7 27 8 68 25 68 6 0
10 -13 10 -28z m-1520 -282 c0 -19 -49 -104 -56 -97 -5 5 41 117 49 117 4 0 7
-9 7 -20z m-677 -437 c-7 -2 -21 -2 -30 0 -10 3 -4 5 12 5 17 0 24 -2 18 -5z
m367 -28 c0 -14 -9 -33 -21 -43 -11 -9 -25 -26 -29 -37 -7 -16 -9 -13 -9 15
-1 20 -8 45 -16 57 -14 20 -14 22 12 26 60 9 63 8 63 -18z m-507 -222 c-7 -2
-21 -2 -30 0 -10 3 -4 5 12 5 17 0 24 -2 18 -5z m27 -772 c0 -15 -19 -23 -38
-16 -14 5 -14 7 -2 15 19 12 40 13 40 1z m140 -3 c0 -29 -13 -58 -26 -58 -15
0 -29 43 -19 59 9 15 45 14 45 -1z m-583 -4 c-3 -3 -12 -4 -19 -1 -8 3 -5 6 6
6 11 1 17 -2 13 -5z m377 -25 c-3 -5 -10 -7 -15 -3 -5 3 -7 10 -3 15 3 5 10 7
15 3 5 -3 7 -10 3 -15z"/>
<path d="M2469 10333 c-68 -71 -95 -89 -114 -73 -11 9 -16 4 -23 -24 -6 -19
-20 -45 -32 -58 -12 -13 -37 -46 -54 -73 -17 -28 -37 -59 -44 -70 -6 -11 -15
-27 -19 -35 -3 -8 -14 -26 -24 -40 -9 -14 -32 -53 -50 -85 -43 -81 -108 -167
-130 -172 -10 -3 -27 -24 -38 -47 -12 -22 -39 -70 -61 -105 -22 -36 -40 -72
-40 -82 0 -27 11 -49 25 -49 17 0 72 25 120 55 22 14 49 29 60 34 11 5 29 21
40 35 11 14 25 26 31 26 6 0 24 12 39 26 20 18 31 22 38 15 17 -17 32 -13 65
19 18 17 39 30 47 30 8 0 15 5 15 10 0 6 6 10 13 10 18 0 77 29 77 38 0 4 14
13 31 21 27 12 33 12 40 0 16 -27 24 -35 59 -59 84 -59 108 -85 116 -126 7
-38 27 -59 48 -51 8 3 19 0 25 -6 11 -14 51 -153 51 -179 0 -27 -29 -22 -42 7
-6 14 -19 25 -28 25 -9 0 -33 18 -53 41 -20 22 -41 38 -47 34 -14 -9 -12 -26
5 -44 9 -9 26 -32 38 -51 14 -21 32 -36 47 -38 14 -2 29 -8 34 -13 6 -5 20 -9
33 -9 13 0 27 -8 30 -17 9 -23 62 -77 69 -70 7 7 -13 45 -36 72 -12 14 -20 46
-24 109 l-7 89 40 -33 c23 -17 41 -36 41 -41 0 -16 19 -9 45 17 24 24 25 29
19 107 -3 45 -12 107 -20 138 -8 31 -14 73 -14 93 0 29 4 36 20 36 13 0 20 7
20 20 0 15 -7 20 -25 20 -19 0 -29 9 -42 35 -9 19 -20 35 -24 35 -11 0 -18
-30 -17 -68 1 -33 -7 -50 -18 -39 -11 10 -41 177 -49 267 -10 117 -15 127 -87
197 -15 14 -31 35 -34 47 -4 12 -16 30 -28 42 -12 11 -29 30 -38 42 -29 36
-59 28 -119 -35z m63 -185 c3 -29 12 -70 21 -91 17 -37 17 -37 -7 -47 -13 -5
-26 -15 -28 -22 -3 -7 -8 6 -12 30 -9 48 -18 52 -49 17 -27 -30 -77 -45 -77
-22 0 14 51 58 80 69 9 3 24 31 33 62 10 31 22 56 27 56 4 0 10 -24 12 -52z
m-202 -228 c0 -11 -7 -20 -15 -20 -17 0 -18 2 -9 24 9 23 24 20 24 -4z m-180
-64 c0 -2 -7 -7 -16 -10 -8 -3 -12 -2 -9 4 6 10 25 14 25 6z"/>
<path d="M2240 10317 c0 -8 7 -21 16 -28 14 -11 15 -10 12 11 -3 26 -28 41
-28 17z"/>
<path d="M2800 10070 c0 -13 5 -20 13 -17 6 2 12 10 12 17 0 7 -6 15 -12 18
-8 2 -13 -5 -13 -18z"/>
<path d="M1156 9874 c-3 -9 -6 -29 -6 -45 0 -21 4 -27 15 -23 10 4 15 20 15
45 0 40 -13 52 -24 23z"/>
<path d="M3708 9660 c-11 -17 -24 -20 -96 -20 -52 0 -96 -6 -120 -16 -23 -9
-50 -13 -70 -9 -24 4 -34 2 -38 -10 -3 -8 -17 -15 -31 -15 -36 0 -125 -39
-150 -66 -15 -16 -33 -24 -56 -24 -43 0 -67 -25 -60 -62 4 -23 8 -26 29 -18
13 5 25 6 28 1 3 -4 12 -54 21 -112 14 -93 14 -105 0 -115 -17 -13 -20 -44 -5
-44 6 0 10 6 10 14 0 26 29 46 59 40 16 -4 32 -1 35 5 4 6 31 11 61 11 30 0
57 5 60 10 3 6 24 10 45 10 21 0 42 -4 45 -10 3 -5 42 -10 86 -10 62 0 81 -3
86 -15 7 -21 -25 -55 -52 -55 -32 0 -73 -22 -87 -48 -7 -13 -20 -28 -30 -33
-23 -13 -23 -25 1 -32 21 -5 41 -94 41 -183 0 -59 13 -85 32 -66 6 6 36 12 65
12 74 0 96 13 123 75 18 41 31 56 60 69 20 9 42 16 48 16 7 0 12 4 12 9 0 5 8
11 18 15 22 7 82 42 95 55 5 5 15 7 22 5 6 -3 18 2 25 11 7 8 19 15 26 15 28
0 16 98 -48 395 -31 145 -42 175 -59 175 -5 0 -29 9 -51 20 -28 14 -62 20
-105 20 -52 0 -65 -3 -75 -20z m-272 -211 c4 -7 21 -9 44 -5 26 4 41 2 49 -8
13 -15 -4 -26 -40 -26 -11 0 -22 -7 -25 -15 -14 -35 -54 -2 -54 44 0 23 15 28
26 10z m304 1 c0 -5 -4 -10 -10 -10 -5 0 -10 5 -10 10 0 6 5 10 10 10 6 0 10
-4 10 -10z"/>
<path d="M2256 9531 c-11 -12 -28 -21 -39 -21 -22 0 -72 -50 -80 -81 -5 -18
-2 -20 21 -14 14 3 44 20 66 36 22 16 48 29 57 29 10 0 21 9 24 21 4 11 16 24
28 29 21 8 21 9 2 10 -11 0 -29 3 -40 6 -13 3 -27 -2 -39 -15z"/>
<path d="M2980 9510 c0 -22 5 -30 18 -30 34 0 62 13 62 27 0 11 -7 13 -25 9
-14 -4 -25 -2 -25 3 0 5 -7 11 -15 15 -11 4 -15 -2 -15 -24z"/>
<path d="M2372 9489 c-22 -20 -40 -28 -52 -24 -10 3 -21 1 -25 -5 -4 -6 -18
-15 -31 -20 -13 -5 -29 -20 -34 -32 -13 -32 -27 -47 -85 -93 -27 -22 -51 -43
-53 -47 -2 -5 -8 -8 -14 -8 -6 0 -21 -12 -34 -27 -17 -20 -34 -28 -65 -30 -23
-2 -48 -8 -56 -15 -24 -19 -66 -16 -90 9 -30 29 -29 36 7 73 31 32 47 71 35
90 -12 20 -72 -48 -80 -89 -11 -63 -68 -195 -95 -218 -14 -13 -40 -30 -57 -39
-25 -12 -35 -26 -44 -58 -6 -22 -19 -64 -30 -91 -10 -28 -19 -58 -19 -67 0
-28 17 -29 34 -3 15 22 22 25 54 20 66 -11 69 -14 42 -35 -14 -11 -33 -20 -43
-20 -10 0 -27 -16 -38 -35 -25 -42 -34 -43 -52 -9 -16 31 -27 21 -51 -50 -19
-59 -20 -93 -2 -168 8 -32 12 -66 10 -76 -3 -10 5 -27 20 -41 l24 -23 13 23
c16 30 35 49 48 49 6 0 11 3 11 8 0 4 14 13 31 21 17 7 42 24 55 36 14 13 40
30 59 39 19 9 40 22 47 29 20 18 51 37 71 43 9 4 17 10 17 15 0 5 5 9 11 9 16
0 38 31 39 52 0 9 5 29 10 43 10 26 11 27 35 11 13 -9 33 -16 43 -16 22 0 72
22 72 33 0 4 7 7 15 7 8 0 15 5 15 10 0 6 11 10 25 10 14 0 25 5 25 10 0 6 7
10 15 10 8 0 15 5 15 10 0 6 8 14 17 17 10 4 29 18 41 31 30 29 41 25 72 -28
23 -39 63 -70 145 -110 26 -12 55 -35 55 -44 0 -14 -48 -5 -64 13 -23 25 -61
34 -86 21 -15 -8 -20 -21 -20 -49 0 -20 -7 -59 -16 -85 -13 -39 -14 -55 -5
-85 13 -45 42 -81 65 -81 9 0 16 -4 16 -10 0 -5 7 -10 15 -10 32 0 117 -63
132 -98 13 -32 128 -151 146 -152 4 0 12 11 17 25 12 32 43 32 60 0 7 -14 16
-23 18 -20 3 3 13 -2 23 -11 42 -38 69 9 84 149 5 41 14 66 32 87 24 30 25 32
8 50 -12 14 -25 18 -41 14 -20 -5 -26 -1 -38 27 -15 35 -7 59 19 59 34 0 58
63 33 88 -10 10 -8 14 10 18 12 4 22 10 22 14 0 5 9 12 21 15 24 8 42 50 34
82 -6 25 -25 32 -25 9 0 -20 -18 -30 -33 -19 -7 5 -30 15 -52 22 -22 8 -52 22
-67 32 -14 11 -30 19 -35 19 -18 0 -63 56 -63 78 0 32 10 28 60 -23 49 -50 90
-59 135 -29 16 10 34 14 54 9 16 -3 32 -2 35 4 9 13 -38 65 -74 83 -54 26
-171 131 -243 217 -35 42 -51 28 -31 -27 7 -20 13 -46 13 -57 0 -18 -1 -17
-14 5 -8 14 -15 36 -15 50 -1 24 -1 24 -15 6 -18 -24 -17 -24 -49 47 -24 56
-41 68 -63 46 -15 -15 -33 -3 -33 22 0 11 -11 44 -25 74 -14 29 -31 80 -37
112 -21 113 -31 122 -86 72z m278 -549 c8 -5 11 -12 7 -16 -4 -4 -15 0 -24 9
-18 18 -8 23 17 7z m-860 -89 c0 -10 -7 -24 -15 -31 -12 -10 -16 -9 -21 4 -6
16 11 46 27 46 5 0 9 -8 9 -19z m910 -563 c0 -4 -4 -8 -10 -8 -5 0 -10 4 -10
9 0 5 -3 18 -6 28 -5 16 -4 16 10 -1 9 -11 16 -23 16 -28z"/>
<path d="M3146 9036 c-6 -23 -36 -45 -36 -26 0 6 -7 10 -15 10 -8 0 -15 -9
-15 -20 0 -18 4 -20 33 -15 28 5 35 3 45 -17 27 -51 62 -174 62 -217 0 -25 4
-51 8 -58 11 -17 110 -8 132 12 9 8 23 15 31 15 9 0 25 9 37 20 25 23 27 52
13 145 -6 33 -11 78 -12 100 -2 22 -6 48 -11 58 -9 18 -38 24 -38 7 0 -5 -11
-10 -24 -10 -14 0 -27 -4 -30 -9 -3 -5 -21 -9 -40 -9 -19 0 -43 -3 -54 -6 -14
-5 -26 1 -40 19 -25 31 -38 32 -46 1z"/>
<path d="M3805 8679 c-4 -5 0 -18 8 -27 9 -9 17 -30 19 -47 3 -28 1 -30 -27
-28 -16 1 -31 7 -33 13 -4 12 -65 13 -77 1 -12 -12 -156 -18 -172 -8 -13 8
-18 3 -26 -33 -9 -35 -41 -54 -66 -39 -20 13 -27 11 -86 -26 -22 -14 -48 -28
-57 -32 -10 -3 -18 -9 -18 -14 0 -5 -7 -9 -15 -9 -8 0 -15 -3 -15 -7 0 -5 -14
-17 -30 -28 -35 -23 -46 -54 -55 -152 -6 -69 -5 -72 20 -89 20 -13 39 -15 93
-10 124 11 196 24 200 35 2 6 14 11 28 11 26 0 30 9 38 106 7 74 11 86 37 103
15 9 24 10 32 2 6 -6 23 -11 38 -11 15 0 29 -7 33 -16 9 -24 -2 -35 -29 -28
-17 4 -32 -2 -56 -24 -31 -27 -33 -35 -34 -88 0 -50 3 -59 20 -62 11 -3 29
-15 40 -28 16 -18 31 -24 63 -24 45 0 82 -14 82 -30 0 -6 -33 -10 -73 -10 -61
0 -76 -4 -98 -22 -14 -13 -34 -28 -45 -34 -15 -9 -25 -41 -47 -144 -20 -92
-25 -136 -18 -143 13 -13 231 -11 245 3 5 5 22 10 37 10 20 0 33 9 48 33 12
19 41 44 68 58 27 13 50 27 51 32 2 4 9 7 16 7 19 0 68 26 93 50 12 11 31 20
42 20 11 0 22 3 24 8 3 4 11 134 17 289 14 316 15 313 -51 313 -21 0 -41 5
-44 10 -8 14 -108 13 -122 -1 -23 -23 -43 -2 -43 44 0 30 -6 49 -18 60 -22 20
-28 21 -37 6z m160 -339 c7 -12 -12 -12 -40 0 -18 8 -17 9 7 9 15 1 30 -3 33
-9z"/>
<path d="M2217 8528 c-7 -4 -22 -8 -34 -8 -12 0 -28 -7 -37 -15 -8 -8 -20 -15
-26 -15 -17 0 -90 -41 -115 -63 -11 -10 -36 -27 -55 -37 -19 -10 -48 -30 -65
-45 -16 -14 -55 -42 -85 -62 -30 -20 -57 -38 -60 -42 -3 -3 -16 -12 -30 -20
-117 -67 -140 -79 -145 -70 -11 16 -37 10 -42 -11 -9 -34 -24 -22 -18 14 7 36
-8 57 -28 37 -6 -6 -19 -11 -29 -11 -20 0 -26 -44 -8 -55 6 -3 10 -31 10 -62
0 -47 2 -54 15 -43 8 6 23 9 35 5 16 -5 26 -1 37 15 15 22 17 22 30 5 25 -35
16 -63 -24 -81 -21 -10 -46 -24 -55 -32 -10 -8 -24 -12 -33 -8 -9 3 -20 -2
-27 -14 -7 -11 -18 -20 -25 -20 -18 0 -16 -41 3 -68 12 -18 19 -20 29 -12 8 7
28 9 47 5 25 -5 38 -2 47 9 8 9 20 16 27 16 32 0 17 -16 -140 -140 -50 -39
-66 -62 -85 -123 -19 -62 -19 -69 -4 -121 9 -31 20 -56 24 -56 5 0 9 5 9 10 0
17 28 11 34 -7 3 -10 -1 -40 -10 -68 -8 -27 -19 -79 -23 -115 -5 -36 -12 -73
-16 -83 -6 -14 -2 -20 14 -24 12 -3 29 -19 38 -36 l15 -30 19 24 c10 13 19 30
19 37 0 23 111 125 162 149 49 23 155 120 142 132 -4 3 -9 0 -11 -6 -3 -7 -9
-13 -13 -13 -5 0 -37 -18 -71 -40 -34 -22 -67 -40 -73 -40 -6 0 -37 -25 -70
-55 -32 -30 -65 -55 -72 -55 -7 0 -17 -7 -22 -16 -14 -25 -32 -7 -32 29 2 114
35 226 67 227 17 1 65 51 74 80 10 28 39 43 39 20 0 -5 9 -10 20 -10 11 0 20
5 20 10 0 6 7 10 15 10 9 0 40 25 70 55 29 30 62 55 72 55 10 0 36 16 58 35
22 19 47 35 57 35 14 0 96 38 108 50 3 3 15 11 27 18 37 20 67 15 91 -17 13
-18 33 -31 49 -33 25 -3 35 -17 94 -136 36 -73 75 -140 85 -150 17 -15 30 -23
100 -54 12 -6 32 -20 45 -32 13 -12 39 -29 57 -37 17 -7 32 -17 32 -21 0 -5 6
-8 14 -8 8 0 16 -4 18 -8 4 -9 72 -62 80 -62 8 0 26 47 39 105 16 66 35 105
65 131 22 18 24 24 14 46 -13 27 2 132 21 143 21 14 8 56 -31 95 -22 22 -40
46 -40 54 0 15 42 46 63 46 18 0 50 60 46 85 -3 11 -13 21 -24 23 -11 2 -36
19 -55 38 -20 18 -49 36 -65 40 -17 3 -56 30 -89 60 -32 30 -66 54 -76 54 -9
0 -29 14 -45 30 -16 17 -41 37 -55 44 -47 23 -75 41 -82 51 -5 6 -11 6 -19 -2
-15 -15 4 -120 32 -175 10 -20 19 -40 19 -43 0 -3 -19 -3 -42 -1 -48 4 -60 20
-78 111 -6 33 -22 88 -36 122 -28 73 -30 122 -4 183 14 36 23 44 40 42 15 -1
21 3 18 15 -3 17 -59 25 -81 11z m-107 -95 c-1 -19 -73 -105 -94 -113 -13 -5
-37 -26 -53 -46 -50 -67 -106 -124 -122 -124 -9 0 -34 -28 -56 -62 -44 -67
-62 -88 -76 -88 -18 0 -9 21 24 55 17 18 64 72 102 120 138 170 276 299 275
258z m-155 -303 c3 -5 1 -10 -4 -10 -6 0 -11 5 -11 10 0 6 2 10 4 10 3 0 8 -4
11 -10z m85 -57 c0 -15 -36 -63 -42 -57 -11 10 13 64 28 64 8 0 14 -3 14 -7z
m-230 -103 c0 -5 -5 -10 -11 -10 -5 0 -7 5 -4 10 3 6 8 10 11 10 2 0 4 -4 4
-10z m69 -46 c-31 -56 -39 -64 -65 -64 -31 0 -31 14 0 28 13 6 37 27 52 46 36
44 41 40 13 -10z m217 10 c-4 -14 -9 -24 -12 -21 -3 2 -2 17 2 31 3 15 9 25
11 22 3 -3 2 -17 -1 -32z m391 -91 c-4 -17 -4 -17 -12 0 -4 9 -4 25 0 35 8 16
8 16 12 0 3 -10 3 -26 0 -35z m-197 16 c0 -5 -4 -9 -10 -9 -5 0 -10 7 -10 16
0 8 5 12 10 9 6 -3 10 -10 10 -16z m245 -229 c3 -5 2 -10 -4 -10 -5 0 -13 5
-16 10 -3 6 -2 10 4 10 5 0 13 -4 16 -10z m81 -68 c-6 -6 -56 29 -56 39 0 5
13 0 30 -12 16 -13 28 -24 26 -27z"/>
<path d="M2487 8283 c-17 -16 -6 -54 18 -65 41 -19 75 28 43 60 -13 13 -50 16
-61 5z"/>
<path d="M438 8220 c-14 -11 -33 -39 -43 -62 -11 -27 -19 -38 -24 -29 -11 18
-28 -5 -36 -50 -7 -40 6 -58 26 -36 11 11 21 11 63 -1 45 -13 51 -13 61 2 29
39 80 -8 56 -52 -15 -28 -14 -92 2 -93 35 -4 105 3 125 13 17 9 25 9 34 0 7
-7 35 -12 63 -12 63 0 70 10 86 130 18 129 17 154 -4 158 -10 2 -26 0 -35 -4
-9 -4 -27 -9 -40 -10 -12 -2 -34 -12 -49 -23 -31 -25 -39 -26 -77 -6 -15 8
-32 13 -36 10 -5 -3 -18 9 -30 26 -12 16 -28 28 -35 25 -8 -3 -25 4 -38 15
-31 24 -38 24 -69 -1z"/>
<path d="M897 8163 c-2 -27 -11 -86 -20 -133 -22 -129 -30 -220 -18 -220 5 0
13 10 17 23 6 21 21 36 35 37 3 0 19 -11 34 -24 27 -23 95 -38 116 -26 5 4 16
42 24 86 9 43 22 108 30 144 28 120 29 124 6 144 -17 15 -24 17 -33 8 -7 -7
-20 -12 -30 -12 -10 0 -27 -5 -37 -11 -14 -9 -25 -9 -50 2 -17 8 -31 17 -31
21 0 5 -9 8 -19 8 -15 0 -20 -9 -24 -47z"/>
<path d="M1237 7996 c-11 -11 -14 -27 -11 -54 5 -34 4 -36 -10 -19 -14 18 -15
18 -25 -2 -6 -11 -11 -34 -11 -51 0 -17 -12 -52 -26 -76 -18 -31 -23 -49 -16
-56 6 -6 15 -2 27 14 11 15 19 19 22 11 9 -25 41 -13 62 22 11 19 27 35 36 35
8 0 15 5 15 11 0 8 4 8 14 0 21 -18 41 21 26 49 -12 22 -30 27 -30 8 -1 -28
-30 28 -30 57 0 17 -6 39 -13 49 -12 17 -15 17 -30 2z"/>
<path d="M3360 8000 c0 -5 -10 -10 -23 -10 -13 0 -27 -4 -33 -10 -5 -5 -21
-11 -34 -13 -28 -4 -41 -37 -65 -172 -8 -44 -21 -102 -30 -129 -8 -27 -15 -61
-15 -76 0 -56 -28 -124 -57 -137 -15 -7 -32 -13 -39 -13 -7 0 -14 -4 -16 -9
-1 -5 -19 -18 -38 -28 -34 -19 -40 -31 -85 -165 -4 -10 -13 -18 -21 -18 -20 0
-17 -29 4 -36 9 -4 31 -12 47 -19 20 -9 57 -11 113 -8 56 4 91 2 106 -7 18 -9
29 -9 44 -1 11 6 32 11 45 11 34 0 42 13 66 109 28 114 31 116 94 84 29 -14
55 -30 59 -36 10 -16 -2 -31 -15 -18 -31 31 -91 -9 -121 -81 -23 -53 -20 -77
8 -88 13 -5 27 -13 30 -18 8 -14 103 -62 120 -62 26 0 86 -33 86 -47 0 -11 -9
-12 -37 -7 -21 4 -42 9 -48 13 -5 3 -32 13 -60 23 -63 22 -114 23 -121 3 -4
-8 -10 -15 -16 -15 -5 0 -16 -7 -24 -15 -21 -21 -105 -218 -99 -232 2 -8 22
-13 44 -13 22 0 43 -4 46 -10 3 -5 39 -10 80 -10 41 0 77 5 80 10 3 6 15 10
26 10 11 0 29 9 40 19 12 11 36 22 55 26 19 3 34 10 34 15 0 6 9 10 19 10 11
0 23 5 26 10 3 6 16 10 28 10 34 1 57 24 57 58 0 25 -8 35 -45 59 -45 29 -57
56 -29 67 16 6 74 -45 74 -65 0 -5 7 -9 15 -9 8 0 24 -4 35 -10 11 -6 29 -14
40 -20 32 -16 40 -12 60 35 43 101 130 388 130 429 0 15 -52 46 -76 46 -7 0
-29 9 -48 19 -24 14 -57 20 -108 22 -40 1 -78 5 -83 10 -17 13 -95 31 -155 36
-30 3 -58 10 -62 16 -3 5 -31 12 -60 15 -56 4 -74 -4 -97 -45 -8 -15 -11 -15
-35 0 -25 17 -27 17 -48 -2 -31 -29 -41 -16 -34 44 8 70 14 85 37 85 11 0 27
4 37 9 9 5 35 17 57 28 36 17 42 25 63 88 14 40 26 106 29 157 l6 88 -32 0
c-17 0 -31 -4 -31 -10z m370 -744 c0 -3 -4 -8 -10 -11 -5 -3 -10 -1 -10 4 0 6
5 11 10 11 6 0 10 -2 10 -4z"/>
<path d="M3035 7968 c-13 -40 -26 -101 -21 -105 2 -3 10 13 16 36 6 22 15 43
20 46 13 8 13 35 0 35 -6 0 -13 -6 -15 -12z"/>
<path d="M3080 7923 c0 -22 8 -38 26 -52 54 -43 60 -15 9 44 l-35 40 0 -32z"/>
<path d="M2944 7926 c-8 -21 3 -49 16 -41 5 3 10 15 10 25 0 25 -18 36 -26 16z"/>
<path d="M489 7850 c-34 -59 -39 -74 -29 -90 11 -17 62 83 58 113 -2 18 -7 15
-29 -23z"/>
<path d="M740 7740 c-8 -5 -42 -10 -76 -10 -33 0 -65 -5 -72 -12 -16 -16 -123
-29 -139 -16 -9 7 -17 1 -30 -26 -18 -38 -31 -44 -51 -24 -7 7 -40 12 -82 11
-39 -1 -70 3 -70 8 0 14 -30 11 -46 -6 -8 -8 -22 -19 -31 -24 -15 -8 -15 -14
-4 -49 8 -24 11 -53 6 -74 -4 -18 -6 -51 -6 -73 1 -22 2 -107 4 -190 l2 -150
40 4 c22 1 48 7 58 13 34 18 49 2 42 -44 -9 -59 24 -138 58 -138 27 0 80 -79
103 -157 14 -44 14 -51 -2 -83 -10 -19 -25 -43 -33 -53 -25 -30 -5 -29 24 2
16 16 34 27 41 24 17 -6 27 32 26 101 -2 57 -1 58 23 52 22 -6 25 -3 25 23 0
15 -9 50 -21 76 -11 25 -18 49 -14 53 12 12 60 -27 83 -67 21 -37 28 -41 61
-41 24 0 45 7 60 21 21 20 22 27 19 141 -3 114 -4 120 -28 138 -16 13 -35 18
-55 15 -105 -15 -167 -16 -163 -3 3 7 22 14 44 16 21 2 43 8 49 13 5 5 17 9
26 9 10 0 35 16 56 36 32 31 45 37 80 36 24 0 45 4 49 9 7 13 41 11 64 -3 15
-10 24 -9 44 1 30 17 44 8 72 -44 14 -27 25 -35 46 -35 15 0 30 5 33 10 3 6
22 10 40 10 28 0 37 6 49 28 16 30 25 189 12 210 -11 19 -93 72 -110 72 -9 0
-16 -6 -16 -12 0 -23 -20 16 -20 39 0 32 -56 83 -90 83 -21 0 -30 7 -40 30 -7
16 -23 36 -36 45 -26 17 -81 20 -104 5z m30 -219 c0 -25 -14 -71 -21 -71 -15
0 -22 50 -9 65 14 17 30 20 30 6z m-70 -31 c0 -5 -4 -10 -10 -10 -5 0 -10 5
-10 10 0 6 5 10 10 10 6 0 10 -4 10 -10z m-178 -28 c46 -5 41 -27 -8 -37 -40
-7 -64 7 -64 37 0 15 4 18 18 12 9 -4 34 -9 54 -12z"/>
<path d="M2984 7697 c8 -41 -17 -82 -34 -57 -7 11 -10 5 -10 -27 0 -30 -7 -50
-25 -71 -47 -56 -27 -73 37 -33 25 16 60 32 79 36 19 4 45 14 57 22 22 13 22
16 8 32 -23 26 -20 44 6 38 31 -8 50 10 37 34 -10 19 -59 27 -59 10 0 -16 -70
12 -76 31 -10 32 -27 20 -20 -15z"/>
<path d="M1950 7523 c-8 -2 -29 -11 -47 -19 -17 -8 -35 -14 -40 -14 -20 -1
-85 -70 -80 -85 10 -24 26 -18 48 20 22 37 27 39 46 27 20 -13 -6 -79 -41
-106 -47 -36 -66 -55 -124 -123 -47 -55 -58 -63 -100 -69 -31 -5 -56 -16 -74
-35 -41 -40 -37 -59 12 -59 46 0 50 -13 17 -50 -49 -55 -111 -100 -138 -100
-15 0 -34 -8 -41 -18 -19 -26 -81 -67 -95 -64 -13 3 -18 -17 -13 -48 3 -24 11
-26 21 -7 14 25 26 21 44 -13 19 -36 19 -51 1 -75 -14 -19 -15 -19 -27 8 -20
44 -33 32 -52 -50 -23 -105 -23 -133 3 -133 11 0 20 -1 20 -2 10 -71 32 -163
40 -174 25 -29 85 -17 155 31 17 12 52 32 79 45 27 14 57 38 67 55 15 23 26
30 56 31 20 0 39 6 41 12 2 7 12 12 23 12 10 0 19 3 19 8 0 4 10 12 23 18 12
6 44 23 70 38 26 14 58 26 70 26 15 0 30 11 42 33 l20 32 3 -45 c4 -74 9 -85
47 -100 19 -7 35 -16 35 -19 0 -4 14 -12 32 -20 17 -8 39 -22 49 -32 9 -9 33
-25 52 -34 19 -9 44 -25 55 -35 12 -11 27 -20 33 -20 7 0 21 -8 32 -17 18 -17
20 -17 41 10 12 15 26 27 32 27 13 0 30 33 39 74 3 16 15 41 26 54 10 14 19
35 19 48 0 12 5 45 12 72 9 43 9 56 -5 85 -26 55 -23 71 13 64 25 -5 30 -3 30
12 0 26 -22 41 -48 34 -13 -3 -22 -1 -22 6 0 6 -6 11 -13 11 -7 0 -18 9 -25
20 -7 11 -23 20 -36 20 -13 0 -29 6 -35 14 -7 8 -22 17 -35 20 -15 4 -28 17
-34 35 -13 37 -3 48 19 20 31 -41 129 -29 129 16 0 13 5 36 10 51 9 23 15 26
40 21 60 -13 40 24 -32 56 -20 9 -40 17 -46 17 -8 0 -56 34 -99 70 -7 5 -18
10 -25 10 -8 0 -29 13 -48 30 -19 16 -41 29 -47 30 -19 0 -16 -27 6 -49 13
-13 20 -38 23 -87 3 -38 13 -82 22 -99 12 -22 16 -57 16 -130 0 -117 -12 -112
-31 12 -10 69 -17 88 -37 104 -14 10 -32 19 -41 19 -26 0 -41 21 -42 59 0 20
-8 67 -17 106 -20 82 -43 97 -62 41 -14 -43 -32 -49 -20 -7 4 17 11 61 15 98
3 37 14 85 23 107 16 38 16 39 -7 57 -22 18 -59 23 -91 12z m122 -420 c33 -30
16 -64 -22 -43 -19 10 -27 40 -13 53 9 10 15 9 35 -10z m-432 -115 c0 -26 -16
-55 -25 -47 -5 6 14 69 21 69 2 0 4 -10 4 -22z m190 -143 c-7 -8 -20 -15 -29
-15 -11 1 -8 5 9 15 32 18 35 18 20 0z m430 -135 c0 -5 -2 -10 -4 -10 -3 0 -8
5 -11 10 -3 6 -1 10 4 10 6 0 11 -4 11 -10z m-900 -115 c-7 -8 -20 -15 -29
-15 -13 1 -13 3 3 15 26 19 42 19 26 0z m214 -14 c4 -5 4 -15 1 -23 -7 -18
-165 -21 -165 -2 0 13 27 20 100 27 19 2 40 5 47 5 6 1 14 -2 17 -7z"/>
<path d="M1185 7375 c-5 -59 -4 -90 4 -98 6 -6 13 -9 15 -6 10 10 10 169 -1
180 -8 8 -13 -12 -18 -76z"/>
<path d="M1552 7400 c0 -14 2 -19 5 -12 2 6 2 18 0 25 -3 6 -5 1 -5 -13z"/>
<path d="M976 7151 c-23 -25 -53 -27 -78 -4 -16 14 -23 15 -38 5 -11 -7 -31
-12 -45 -12 -45 0 -58 -70 -28 -148 14 -38 15 -53 5 -101 -15 -70 -15 -108 -2
-116 6 -3 10 -12 10 -18 -1 -19 -78 -67 -108 -67 -15 0 -38 -9 -52 -20 -14
-11 -29 -20 -33 -20 -16 0 -46 36 -53 63 -6 27 -9 24 -35 -44 -35 -91 -60
-119 -90 -101 -16 10 -27 10 -57 0 -20 -7 -42 -16 -49 -21 -7 -5 -16 -1 -23
12 -6 12 -17 21 -24 21 -17 0 -26 44 -26 120 0 48 4 60 25 80 26 25 30 60 7
68 -7 2 -19 -12 -28 -33 -8 -21 -27 -56 -41 -79 -29 -45 -31 -73 -8 -153 16
-55 23 -61 43 -41 25 25 11 -9 -18 -42 -32 -38 -40 -80 -14 -80 18 0 44 -57
44 -96 0 -15 8 -45 19 -68 10 -23 24 -63 30 -90 6 -27 21 -71 33 -97 19 -44
24 -49 53 -49 45 0 65 9 65 29 0 10 6 26 14 37 14 18 15 18 21 2 5 -12 -2 -29
-19 -49 -27 -31 -28 -54 -9 -123 5 -17 1 -18 -32 -13 l-37 6 7 -37 c12 -64 20
-72 75 -72 28 0 50 3 50 7 0 3 -11 25 -25 48 -13 23 -21 45 -18 49 18 18 91 2
165 -35 10 -5 27 -9 38 -9 11 0 29 -6 40 -12 16 -10 24 -10 40 0 27 16 40 15
40 -3 0 -9 7 -29 15 -45 12 -24 22 -30 48 -30 18 0 42 7 53 15 10 8 26 15 35
15 18 0 29 20 29 49 0 9 -20 57 -44 106 -24 50 -47 101 -51 115 -11 36 -30 50
-66 50 -18 0 -41 7 -51 17 -17 15 -22 14 -74 -11 -31 -15 -66 -29 -79 -30 -13
-1 -35 -10 -49 -19 -28 -19 -56 -22 -56 -7 0 6 11 10 25 10 13 0 39 13 57 28
49 41 85 62 108 62 11 0 20 4 20 9 0 5 5 22 10 37 8 21 14 24 22 16 19 -19 27
-14 39 27 9 31 15 38 28 31 38 -19 100 -30 151 -26 110 9 163 21 173 38 13 19
-7 133 -31 184 -15 33 -79 74 -113 74 -11 0 -30 12 -43 26 -17 20 -34 28 -72
31 -60 6 -73 -6 -99 -94 -17 -58 -17 -91 0 -163 4 -18 1 -15 -12 10 -10 19
-26 44 -35 54 -23 26 -23 49 2 71 11 10 22 33 26 51 3 19 10 37 15 40 5 3 9
26 9 52 0 26 7 58 15 72 33 58 36 72 20 96 -19 29 -20 64 -1 64 7 0 19 -13 26
-30 8 -20 19 -30 34 -30 12 0 27 -5 33 -11 17 -17 70 7 77 34 8 29 5 274 -3
311 l-6 28 -19 -21z"/>
<path d="M2740 7079 c0 -6 -12 -9 -27 -7 -22 2 -28 -1 -28 -17 0 -17 8 -21 60
-25 l60 -5 -1 -38 c-1 -21 -8 -43 -17 -50 -8 -7 -24 -37 -35 -67 -50 -131 -75
-186 -95 -201 -47 -38 30 -71 113 -49 46 12 60 5 60 -32 0 -17 -58 -68 -77
-68 -5 0 -27 -9 -49 -19 -40 -20 -46 -29 -102 -151 -41 -88 -42 -96 -14 -92
14 2 29 -4 37 -15 12 -16 17 -16 49 -5 27 10 49 11 89 3 86 -17 112 -16 154 3
34 15 45 28 67 77 14 32 26 72 26 88 0 30 21 54 28 33 2 -7 16 -12 31 -12 15
0 36 -9 45 -19 10 -11 31 -23 46 -26 32 -7 55 -29 46 -44 -7 -11 -43 -3 -71
16 -34 23 -81 16 -103 -14 -50 -74 -56 -152 -12 -163 26 -7 178 -81 237 -116
42 -24 42 -35 1 -23 -18 6 -55 17 -82 24 -27 8 -54 19 -59 24 -6 6 -21 11 -33
11 -13 0 -26 5 -29 10 -3 6 -17 10 -30 10 -13 0 -27 5 -30 10 -10 16 -91 -46
-109 -84 -9 -19 -33 -52 -54 -74 -20 -21 -46 -49 -56 -62 -32 -39 -31 -5 0 48
61 101 75 149 54 182 -8 12 -11 12 -28 -3 -25 -23 -64 -21 -92 3 -35 30 -53
21 -72 -35 -9 -28 -32 -77 -52 -109 -20 -33 -36 -67 -36 -76 0 -10 -11 -38
-25 -64 -24 -44 -34 -106 -17 -106 4 0 16 7 26 15 11 8 36 15 55 15 57 0 108
18 125 45 21 32 34 32 38 -2 3 -23 10 -29 53 -40 67 -17 124 -8 166 28 19 16
42 29 51 29 9 0 19 4 22 9 3 5 20 11 38 14 71 12 118 25 132 36 8 7 32 11 53
9 35 -3 38 -6 43 -37 4 -29 7 -32 17 -19 7 8 19 33 27 56 8 23 34 70 58 105
24 35 66 108 93 163 27 54 52 101 55 104 3 3 12 21 20 40 7 19 21 49 32 66 22
38 15 64 -18 64 -13 0 -24 5 -24 10 0 6 -8 10 -19 10 -10 0 -25 10 -33 22 -18
27 -90 34 -124 11 -22 -14 -24 -13 -35 9 -11 26 -58 48 -101 48 -13 0 -47 11
-74 25 -27 14 -57 25 -66 25 -9 0 -20 5 -23 10 -3 6 -21 10 -40 10 -25 0 -40
-8 -59 -30 -21 -25 -30 -29 -53 -24 -42 10 -53 23 -53 60 0 33 21 64 44 64 18
0 66 24 66 33 0 4 12 7 26 7 33 0 61 31 75 82 5 21 21 60 35 86 38 71 31 86
-41 90 -32 2 -64 7 -71 13 -15 12 -38 -15 -53 -62 -7 -21 -20 -39 -30 -42 -16
-4 -20 3 -26 40 -6 38 -10 44 -35 50 -16 3 -32 13 -35 23 -12 39 -46 70 -76
70 -16 0 -29 -5 -29 -11z"/>
<path d="M1463 7048 c2 -7 10 -13 17 -13 7 0 15 6 18 13 2 7 -5 12 -18 12 -13
0 -20 -5 -17 -12z"/>
<path d="M2540 7055 c0 -7 43 -45 52 -45 16 0 8 30 -11 40 -20 10 -41 13 -41
5z"/>
<path d="M319 6834 c-18 -22 1 -50 32 -46 41 4 49 10 49 37 0 22 -4 25 -34 25
-18 0 -39 -7 -47 -16z"/>
<path d="M1154 6839 c-3 -6 -1 -16 5 -22 8 -8 11 -5 11 11 0 24 -5 28 -16 11z"/>
<path d="M2612 6757 c2 -15 7 -28 13 -28 16 -1 16 16 0 36 -15 19 -15 19 -13
-8z"/>
<path d="M1831 6176 c-16 -12 -37 -34 -46 -49 -11 -18 -22 -26 -31 -23 -12 4
-14 -1 -10 -27 3 -17 8 -68 11 -112 l6 -80 -32 50 c-38 60 -45 65 -82 58 -15
-3 -38 0 -51 6 -19 10 -28 9 -57 -7 -45 -25 -48 -54 -10 -141 45 -100 40 -149
-13 -135 -24 6 -28 2 -47 -45 -18 -41 -26 -51 -45 -51 -35 0 -30 -28 14 -75
21 -22 52 -59 70 -82 18 -23 41 -45 51 -48 10 -3 21 -18 24 -33 6 -26 50 -80
169 -203 l57 -59 85 0 c74 0 87 3 96 19 5 11 16 25 22 33 7 7 26 31 43 53 34
46 60 76 129 149 54 57 154 178 181 219 19 30 13 69 -7 49 -22 -22 -28 -12
-28 41 l-1 52 -16 -29 -16 -30 -20 29 -21 28 -11 -32 -10 -32 -24 32 -24 32
37 116 c21 64 42 120 47 126 5 5 9 15 9 22 0 15 -51 63 -67 63 -7 0 -13 5 -13
10 0 6 -9 10 -19 10 -11 0 -21 4 -23 8 -1 5 -18 12 -36 15 -28 6 -35 4 -39
-13 -7 -28 -23 -15 -23 19 0 29 -27 61 -51 61 -8 0 -19 4 -24 9 -6 5 -36 11
-68 13 -46 4 -62 1 -86 -16z m44 -402 c20 4 52 16 71 26 33 19 34 19 44 0 5
-10 10 -21 10 -24 0 -12 -67 -66 -82 -66 -12 0 -21 -15 -30 -47 l-14 -48 -12
46 c-11 45 -13 47 -54 51 -60 6 -74 0 -84 -34 -5 -16 -13 -30 -19 -31 -19 -4
-17 35 3 56 18 19 34 55 57 122 6 18 9 16 40 -19 30 -36 36 -38 70 -32z m282
-57 c-2 -7 -18 -16 -35 -22 -31 -9 -32 -11 -32 -65 0 -60 26 -163 39 -158 5 2
31 28 60 59 34 38 51 65 51 83 0 30 3 31 35 10 14 -9 25 -25 25 -36 0 -27 -18
-58 -33 -58 -7 0 -32 -28 -55 -62 -23 -35 -64 -88 -92 -118 -29 -30 -63 -70
-77 -88 -33 -42 -71 -61 -103 -52 -14 4 -35 3 -48 -2 -38 -13 -92 -10 -98 7
-4 8 -14 15 -24 15 -10 0 -30 17 -46 38 -15 20 -34 42 -41 47 -17 13 -26 66
-14 85 8 12 13 11 31 -5 12 -11 33 -41 45 -66 31 -59 48 -74 73 -60 11 6 46
14 78 17 43 5 65 13 79 29 71 80 85 97 94 113 11 21 -9 156 -34 231 -22 66
-20 73 18 66 21 -4 39 -1 52 9 22 16 59 4 52 -17z m-564 -217 c30 -32 42 -36
52 -20 12 19 25 10 25 -19 0 -24 -5 -30 -27 -33 -16 -3 -36 -9 -45 -13 -14 -6
-18 -2 -18 16 0 13 -9 37 -19 53 -18 28 -19 46 -3 46 4 0 20 -13 35 -30z"/>
<path d="M988 6103 c-16 -8 -28 -20 -28 -27 0 -22 28 -96 72 -188 38 -80 43
-87 77 -94 20 -4 47 -6 61 -5 26 3 90 38 90 50 0 7 -32 102 -72 211 l-23 65
-75 1 c-45 0 -86 -5 -102 -13z"/>
<path d="M2507 6093 c-8 -8 2 -70 15 -96 13 -26 28 -11 28 29 0 53 -23 88 -43
67z"/>
<path d="M1097 5753 c-4 -3 -7 -22 -7 -40 0 -47 24 -38 28 10 3 34 -5 46 -21
30z"/>
<path d="M3130 5717 c-14 -6 -36 -22 -50 -34 -14 -13 -32 -23 -40 -23 -19 -1
-41 -18 -62 -51 -11 -17 -30 -29 -51 -33 -19 -4 -40 -13 -47 -21 -15 -18 -30
-11 -30 14 0 10 -11 30 -25 45 -14 15 -25 31 -25 35 0 4 -11 13 -24 20 -13 8
-28 22 -32 32 -9 19 -10 18 -41 -3 -41 -30 -55 -60 -43 -93 10 -25 14 -26 103
-30 32 -1 48 -20 39 -44 -3 -9 -35 -46 -71 -82 -36 -36 -77 -80 -90 -97 -13
-18 -49 -57 -80 -87 -31 -30 -86 -85 -122 -121 l-66 -66 -6 -182 c-4 -100 -2
-201 3 -226 12 -60 12 -90 0 -90 -5 0 -10 7 -10 17 0 19 -25 106 -53 183 -11
30 -25 79 -31 108 -13 61 -30 72 -34 23 -3 -31 16 -107 68 -266 11 -33 20 -84
20 -113 0 -43 6 -61 33 -100 18 -26 39 -66 46 -90 15 -46 36 -55 47 -20 6 20
7 20 16 4 6 -10 12 -50 14 -90 5 -122 14 -166 60 -312 29 -94 56 -160 80 -195
l36 -54 -21 -40 c-25 -48 -26 -66 -5 -111 11 -23 23 -34 38 -34 23 0 86 57 86
77 0 15 17 26 44 27 11 1 26 12 33 26 7 14 18 24 25 22 6 -2 24 2 39 8 21 9
33 8 55 -3 16 -8 52 -17 81 -20 59 -7 57 -10 69 101 7 63 -1 77 -26 47 -18
-21 -26 -19 -39 13 -6 15 -24 33 -39 39 -15 7 -55 39 -89 70 -34 32 -87 81
-119 108 -31 28 -62 56 -70 63 -7 6 -21 12 -31 12 -10 1 -30 17 -45 36 -23 31
-27 46 -27 98 1 33 -9 133 -20 221 -12 88 -26 205 -31 260 -5 55 -13 110 -16
123 -6 21 -4 22 20 16 14 -3 37 -3 51 0 34 9 92 69 111 115 19 47 34 27 34
-47 0 -59 -13 -92 -35 -92 -17 0 -46 -26 -70 -64 -15 -23 -16 -38 -6 -148 11
-111 45 -349 57 -389 4 -14 130 -144 224 -231 20 -18 48 -50 64 -70 31 -41 41
-46 49 -24 8 21 -9 76 -58 191 -94 221 -128 516 -90 784 19 136 12 148 -53 86
-20 -19 -40 -35 -44 -35 -13 0 -9 68 6 103 7 18 30 48 51 67 40 38 58 57 103
107 29 33 33 41 127 258 31 72 67 146 79 165 60 91 37 145 -44 107z"/>
<path d="M540 5694 c-6 -14 -10 -34 -10 -44 0 -11 -6 -23 -14 -27 -13 -7 -13
-17 0 -78 8 -39 25 -104 38 -145 13 -41 31 -106 41 -145 26 -104 61 -231 89
-315 23 -72 24 -74 35 -47 20 50 39 24 32 -47 0 -10 4 -25 10 -32 19 -23 38
-215 38 -394 0 -167 -5 -217 -40 -351 -5 -20 -9 -50 -9 -67 0 -18 -7 -36 -18
-44 -21 -16 -52 -135 -52 -204 0 -26 3 -45 6 -41 5 5 48 157 84 297 6 25 20
74 30 110 36 121 43 205 37 410 -5 167 -10 209 -33 295 -14 55 -29 105 -34
110 -4 6 -13 33 -20 60 -18 69 -96 268 -131 337 -27 53 -69 199 -69 241 0 25
17 21 25 -5 7 -23 90 -214 147 -338 30 -65 97 -138 128 -140 8 -1 35 -24 59
-51 43 -50 60 -93 61 -164 l0 -29 -16 22 c-8 12 -24 22 -35 22 -11 0 -31 11
-45 25 -14 14 -26 25 -28 25 -3 0 6 -55 30 -170 14 -66 17 -135 17 -310 l0
-225 -56 -169 c-32 -93 -57 -185 -57 -205 l0 -35 17 24 c9 14 44 54 77 90 82
89 94 104 112 150 10 25 23 40 36 42 13 2 30 23 48 58 35 67 50 179 50 368 0
144 -14 202 -50 202 -33 0 -58 57 -46 105 8 33 33 32 76 -5 39 -34 52 -37 70
-15 7 8 15 15 19 15 11 0 5 -398 -8 -550 -10 -112 -18 -157 -36 -197 -13 -29
-30 -53 -37 -53 -15 0 -13 2 -224 -215 -80 -82 -152 -162 -160 -177 -15 -30
-28 -35 -40 -17 -7 13 -21 -40 -77 -291 -65 -292 -63 -270 -32 -334 15 -31 30
-54 32 -52 3 3 8 20 12 37 9 43 31 51 31 11 0 -22 10 -38 43 -66 23 -20 46
-36 50 -36 5 0 14 -6 22 -12 7 -7 22 -21 34 -30 24 -20 30 -63 7 -55 -23 9
-37 -18 -38 -71 l0 -49 -54 -7 c-30 -3 -66 -3 -79 0 -22 5 -25 3 -25 -19 0
-19 6 -26 23 -29 26 -4 39 -58 14 -58 -23 0 -65 25 -92 54 -13 14 -33 26 -43
26 -35 0 -45 -26 -49 -133 -12 -365 -11 -387 22 -387 8 0 22 16 31 35 22 47
48 46 68 -5 14 -36 18 -39 45 -34 37 8 48 -10 16 -24 -45 -21 -36 -61 26 -119
46 -43 49 -49 49 -97 0 -90 30 -158 62 -142 7 3 36 19 63 35 l50 29 -1 70 c0
92 -24 145 -76 172 -21 11 -45 20 -52 20 -21 0 -67 26 -59 33 3 4 36 7 73 7
41 0 79 6 98 16 29 14 35 14 64 0 17 -9 38 -16 48 -16 9 0 20 -4 26 -9 5 -5
29 -11 54 -14 42 -5 98 -17 147 -32 18 -6 26 1 49 36 22 35 29 62 36 137 8 89
7 95 -17 135 -48 81 -66 96 -120 100 -27 3 -57 7 -65 10 -8 3 -26 7 -39 9 -20
2 -28 13 -40 53 l-16 49 -90 4 c-49 2 -91 8 -93 13 -2 5 -10 9 -17 9 -16 0
-35 30 -35 54 0 10 9 16 25 16 14 0 25 4 25 8 0 5 16 14 36 20 27 8 41 8 56
-1 26 -16 45 10 53 72 10 69 14 78 36 84 16 4 20 12 17 39 -3 29 -7 33 -34 36
-18 2 -40 12 -49 22 -17 19 -16 20 11 30 16 6 39 21 51 32 l22 21 7 -27 c7
-28 23 -33 42 -14 9 9 19 3 43 -25 17 -20 38 -37 45 -37 8 0 22 -4 32 -9 118
-60 193 -46 211 38 22 106 23 124 11 161 -15 47 -6 114 15 106 8 -3 17 3 20
14 8 25 -3 43 -22 36 -9 -4 -18 4 -25 24 -12 36 -15 36 -37 9 l-17 -21 -34 31
c-36 32 -50 38 -50 21 0 -5 -11 -10 -24 -10 -14 0 -28 -4 -31 -10 -13 -21 -22
-8 -31 47 -8 48 -14 59 -39 74 -16 10 -46 18 -65 18 -42 1 -69 33 -49 57 13
16 72 12 95 -7 8 -6 17 -9 20 -6 11 11 24 83 24 140 0 51 4 62 28 85 22 21 39
59 70 162 52 169 72 249 82 324 6 45 14 64 34 80 20 16 28 36 35 86 10 60 24
111 71 260 43 133 61 345 27 311 -6 -6 -21 -11 -34 -11 -28 0 -32 -34 -7 -61
21 -24 11 -77 -11 -59 -26 21 -34 1 -34 -91 0 -50 -2 -93 -5 -97 -3 -3 -6 11
-6 31 0 53 -67 382 -85 417 -9 17 -28 36 -43 43 -15 6 -34 18 -42 27 -25 25
-58 40 -90 40 -26 0 -33 6 -52 45 -12 25 -29 45 -38 45 -9 0 -24 13 -33 30
-10 16 -35 42 -55 57 -20 16 -46 39 -59 53 -21 25 -22 25 -37 5 -14 -20 -15
-19 -25 8 -6 16 -11 35 -11 43 0 31 -27 69 -117 160 -38 39 -46 43 -108 48
-63 5 -66 4 -75 -20z m443 -2113 c9 -67 -3 -85 -50 -78 -18 3 -35 1 -38 -4
-10 -15 -30 -11 -53 11 -13 12 -35 20 -57 20 -43 0 -56 23 -29 48 11 10 46 24
79 32 33 7 67 17 75 22 8 4 26 7 40 5 22 -2 26 -8 33 -56z m-210 -278 c-7 -2
-21 -2 -30 0 -10 3 -4 5 12 5 17 0 24 -2 18 -5z"/>
<path d="M1000 5701 c0 -4 -11 -20 -25 -33 -27 -28 -43 -103 -26 -128 8 -11
15 -12 33 -3 13 6 42 19 65 29 34 15 43 24 43 45 0 14 -11 39 -25 55 -14 16
-25 32 -25 37 0 4 -9 7 -20 7 -11 0 -20 -4 -20 -9z"/>
<path d="M2510 5689 c0 -11 -10 -37 -22 -58 -14 -25 -19 -44 -14 -57 7 -17 9
-15 22 14 13 33 15 33 70 31 51 -3 58 0 65 19 5 12 4 33 -1 47 -8 22 -12 24
-36 14 -19 -7 -31 -6 -38 1 -18 18 -46 12 -46 -11z"/>
<path d="M3222 5639 c-6 -13 -24 -64 -42 -114 -18 -49 -38 -103 -46 -120 -32
-72 -104 -266 -104 -281 0 -8 -11 -48 -24 -87 -50 -148 -59 -376 -26 -617 19
-135 51 -262 71 -285 5 -5 9 0 9 13 0 12 5 22 10 22 6 0 10 -11 10 -24 0 -14
4 -27 9 -31 19 -11 21 15 7 67 -26 97 -39 317 -31 540 4 120 3 208 -2 208 -5
0 -14 -5 -21 -12 -9 -9 -12 -9 -12 1 0 23 20 50 34 45 19 -7 29 24 77 231 23
99 57 241 75 315 20 80 29 139 24 144 -5 5 -13 -1 -18 -15z"/>
<path d="M2460 5455 c-20 -32 -21 -75 -1 -75 11 0 41 56 41 78 0 35 -17 34
-40 -3z"/>
<path d="M1551 5326 c-13 -15 -7 -36 9 -36 12 0 22 32 12 42 -5 5 -14 2 -21
-6z"/>
<path d="M1260 5307 c0 -8 6 -22 14 -29 8 -8 26 -38 40 -66 29 -58 42 -64 52
-27 3 14 9 25 13 25 14 0 60 -56 77 -95 12 -29 18 -35 21 -22 5 21 -15 87 -27
87 -5 0 -14 18 -20 41 -13 46 -29 56 -61 38 -20 -10 -25 -9 -37 10 -8 11 -19
21 -25 21 -6 0 -19 7 -29 17 -16 14 -18 14 -18 0z"/>
<path d="M723 4795 c-3 -9 2 -60 11 -113 25 -152 19 -365 -20 -657 -8 -60 12
-23 32 61 23 96 31 293 20 459 -5 77 -10 168 -10 203 -1 43 -5 62 -14 62 -7 0
-15 -7 -19 -15z"/>
<path d="M2176 4494 c-4 -10 -1 -14 6 -12 15 5 23 28 10 28 -5 0 -13 -7 -16
-16z"/>
<path d="M2088 4420 c-20 -36 -56 -40 -83 -10 -15 16 -31 20 -86 20 -37 0 -71
-4 -74 -10 -3 -5 -16 -10 -28 -10 -17 0 -39 -24 -90 -99 -37 -55 -67 -102 -67
-105 0 -3 -27 -48 -60 -100 -33 -53 -60 -99 -60 -104 0 -5 -13 -22 -30 -38
-16 -16 -30 -34 -30 -40 0 -6 -13 -37 -28 -70 -69 -144 -72 -152 -57 -158 8
-3 19 -23 25 -45 14 -51 26 -58 43 -25 l14 26 33 -33 c18 -19 31 -29 29 -24
-3 6 -13 27 -23 48 -14 32 -19 37 -32 26 -20 -17 -23 -11 -26 58 -3 64 -8 56
90 168 10 11 31 38 47 60 40 55 77 95 168 187 l78 78 62 0 61 0 60 -64 c88
-91 127 -136 160 -181 17 -22 37 -47 46 -55 51 -47 100 -124 100 -155 0 -19
-4 -37 -10 -40 -5 -3 -10 -18 -10 -32 0 -23 3 -25 31 -19 17 3 42 6 55 6 13 0
24 5 24 12 0 14 -96 206 -114 228 -7 8 -25 38 -41 65 -15 28 -46 82 -68 120
-110 193 -122 228 -93 283 30 57 15 87 -16 32z"/>
<path d="M1896 4094 c-3 -8 5 -41 18 -72 13 -31 31 -89 41 -129 20 -84 39
-116 55 -93 12 19 13 73 1 66 -5 -3 -13 7 -19 22 -26 69 -31 94 -22 116 7 19
3 31 -16 57 -31 43 -50 53 -58 33z"/>
<path d="M1821 4058 c-12 -25 -17 -45 -11 -48 7 -4 6 -18 -1 -40 l-12 -33 -28
34 -27 34 -13 -29 c-12 -25 -11 -30 5 -41 12 -9 16 -20 12 -33 -8 -24 -34 -36
-50 -24 -19 15 -61 -2 -64 -26 -3 -16 2 -22 15 -22 37 0 101 -40 123 -75 l22
-36 20 20 c10 12 22 21 27 21 4 0 11 60 15 133 4 72 8 147 9 166 3 49 -17 49
-42 -1z"/>
<path d="M1340 4041 c0 -21 25 -46 34 -33 9 15 -5 52 -20 52 -8 0 -14 -8 -14
-19z"/>
<path d="M3110 4030 c0 -14 5 -32 10 -40 8 -12 10 -10 10 10 0 14 -5 32 -10
40 -8 12 -10 10 -10 -10z"/>
<path d="M1994 3998 c3 -13 6 -27 6 -31 0 -5 8 -6 18 -3 23 8 37 -27 51 -122
16 -103 51 -168 66 -121 10 29 -3 107 -23 136 -8 14 -23 48 -32 76 -12 36 -22
51 -33 49 -8 -1 -18 7 -22 18 -9 29 -39 27 -31 -2z"/>
<path d="M1376 3924 c-7 -23 1 -54 15 -54 11 0 11 27 0 55 -8 20 -8 20 -15 -1z"/>
<path d="M3130 3863 c0 -27 7 -61 16 -78 19 -35 21 -89 6 -162 -13 -64 -18
-73 -41 -73 -10 0 -30 -18 -45 -40 -30 -45 -41 -49 -56 -20 -11 21 -45 27 -55
9 -4 -6 -22 -9 -40 -8 -18 2 -39 -1 -46 -7 -8 -5 -41 -18 -74 -28 -88 -26 -89
-28 -95 -82 -4 -44 -7 -49 -28 -47 -22 3 -41 -9 -88 -55 -16 -15 -34 -22 -51
-20 -24 3 -27 -1 -39 -47 -27 -109 -37 -141 -50 -156 -16 -18 -19 -59 -4 -59
6 0 10 11 10 24 0 53 19 32 35 -37 15 -66 19 -74 47 -85 17 -6 38 -8 47 -3 9
4 42 14 74 21 31 7 57 17 57 22 0 4 11 8 25 8 14 0 25 5 25 10 0 6 7 10 15 10
8 0 30 13 48 30 30 26 38 29 63 20 28 -10 52 -8 184 16 19 3 50 12 68 21 19 8
36 12 40 9 9 -10 -50 -66 -70 -66 -10 0 -21 -7 -24 -15 -4 -8 -16 -15 -29 -15
-37 0 -103 -41 -115 -71 -9 -20 -9 -46 -1 -94 11 -72 27 -103 45 -85 5 5 20
10 32 10 12 0 27 6 33 14 9 11 30 101 31 136 1 13 59 70 73 70 15 0 87 73 87
89 0 6 -4 21 -9 35 -14 34 0 76 38 113 39 39 43 98 10 144 -11 16 -24 53 -29
82 -4 29 -15 69 -24 89 -9 21 -16 62 -16 92 0 30 -4 58 -10 61 -5 3 -10 24
-10 45 0 67 -35 220 -50 220 -6 0 -10 -21 -10 -47z m5 -553 c-27 -12 -43 -12
-25 0 8 5 22 9 30 9 10 0 8 -3 -5 -9z m-302 -77 c12 -15 14 -29 7 -73 -4 -30
-8 -44 -9 -30 -1 14 -12 45 -26 69 -14 23 -25 45 -25 47 0 12 39 2 53 -13z"/>
<path d="M2497 3873 c-18 -35 -22 -63 -8 -63 13 0 33 55 29 77 -3 14 -7 12
-21 -14z"/>
<path d="M1854 3708 c-20 -40 -119 -138 -140 -138 -24 0 -32 -41 -35 -181 -3
-116 -6 -139 -26 -180 -13 -26 -30 -50 -38 -53 -8 -3 -15 -17 -15 -31 0 -20 5
-25 25 -25 20 0 30 -9 47 -45 12 -25 27 -45 33 -45 6 0 22 21 36 48 l24 47 3
-75 c2 -58 7 -78 22 -92 11 -10 22 -18 24 -18 3 0 31 -25 61 -55 31 -30 61
-55 66 -55 31 0 81 35 129 90 30 34 59 69 63 76 5 8 1 40 -9 74 -9 33 -14 63
-11 66 2 3 20 -15 38 -40 18 -25 35 -46 38 -46 9 0 51 64 51 77 0 6 13 27 30
48 17 21 30 45 30 55 0 23 -73 80 -103 80 -28 0 -37 16 -37 63 -1 18 -7 59
-15 92 -8 33 -15 80 -15 103 0 35 -4 45 -20 49 -11 3 -20 9 -20 14 0 5 -12 9
-27 9 -17 0 -43 13 -63 30 -19 16 -40 30 -47 30 -7 0 -22 14 -35 30 -28 38
-43 38 -64 -2z m156 -406 c0 -19 -13 -42 -39 -70 -39 -41 -40 -42 -54 -22 -21
30 -92 18 -112 -19 l-14 -26 -1 33 c0 20 6 35 15 38 8 3 19 21 25 40 13 40 14
40 42 14 23 -21 48 -27 48 -10 0 6 12 10 28 10 16 0 32 8 40 20 17 27 22 25
22 -8z m96 -105 l1 -69 -19 31 c-11 17 -22 49 -25 72 -6 39 -5 41 18 37 23 -3
24 -7 25 -71z"/>
<path d="M2165 3620 c-7 -24 2 -60 16 -60 5 0 14 11 21 25 8 19 8 28 -2 40
-17 20 -27 19 -35 -5z"/>
<path d="M2537 3542 c-22 -24 -22 -44 -1 -40 24 4 41 35 28 48 -7 7 -16 5 -27
-8z"/>
<path d="M2447 3455 c-4 -8 -2 -17 3 -20 6 -4 10 3 10 14 0 25 -6 27 -13 6z"/>
<path d="M2416 3349 c-21 -31 -22 -73 0 -65 9 3 23 6 31 6 12 0 14 7 9 32 -9
46 -21 53 -40 27z"/>
<path d="M3327 3266 c-3 -8 -3 -31 0 -50 4 -25 -1 -47 -16 -77 -18 -34 -21
-52 -16 -90 l7 -48 26 32 c15 18 33 38 39 45 17 17 16 39 -3 122 -16 71 -28
91 -37 66z"/>
<path d="M2320 3261 c0 -5 -3 -16 -6 -24 -6 -18 30 -29 45 -14 21 21 13 47
-14 47 -14 0 -25 -4 -25 -9z"/>
<path d="M1470 3168 c1 -49 67 -148 116 -176 16 -9 23 -70 10 -91 -8 -12 -34
-4 -58 17 -16 14 -20 13 -38 -3 -10 -9 -26 -15 -34 -12 -18 7 -32 -9 -41 -46
-9 -34 22 -73 66 -82 16 -4 31 -11 34 -16 4 -5 15 -9 25 -9 26 0 28 -7 21 -65
-6 -47 -8 -50 -35 -50 -26 0 -31 -5 -48 -55 -31 -87 -32 -99 -14 -119 9 -10
21 -34 27 -54 7 -25 19 -39 44 -51 65 -31 89 -87 66 -149 -5 -13 -18 -27 -29
-29 -15 -4 -21 -18 -27 -57 -6 -48 -32 -81 -48 -64 -4 3 -15 -14 -25 -38 l-19
-44 -17 34 -18 34 -19 -43 c-18 -40 -21 -42 -50 -36 l-32 6 7 -46 c7 -57 14
-68 31 -54 34 28 96 -22 116 -95 6 -19 18 -36 29 -40 11 -4 20 -11 20 -16 0
-5 7 -9 15 -9 8 0 15 -4 15 -10 0 -18 35 -10 48 10 18 29 32 16 32 -31 0 -22
7 -63 16 -90 9 -27 14 -52 11 -56 -3 -3 -11 15 -18 41 -12 50 -48 77 -91 69
-17 -3 -28 4 -45 30 -13 18 -23 39 -23 45 0 22 -20 12 -26 -13 -4 -17 -1 -32
8 -43 9 -9 18 -29 22 -44 3 -15 18 -34 34 -43 15 -10 52 -45 82 -79 30 -35 64
-67 74 -72 10 -5 26 -28 35 -50 10 -26 40 -64 79 -100 35 -33 96 -90 135 -129
39 -38 72 -64 75 -57 4 14 32 16 32 2 0 -18 20 -10 28 10 4 12 50 63 101 115
88 90 94 99 122 182 17 49 37 119 45 156 22 107 43 137 95 137 10 0 19 5 19
10 0 6 6 10 13 10 8 0 27 24 43 53 27 49 29 59 28 160 0 79 3 107 12 107 18 0
28 20 17 31 -6 6 -21 4 -39 -6 -16 -8 -35 -15 -41 -15 -7 0 -21 -7 -30 -14
-95 -78 -119 -96 -130 -96 -7 0 -13 -4 -13 -10 0 -5 -4 -10 -10 -10 -9 0 -42
-25 -76 -57 -7 -7 -17 -13 -23 -13 -6 0 -11 -4 -11 -8 0 -4 -13 -16 -30 -25
-16 -10 -35 -23 -42 -30 -7 -7 -25 -20 -40 -29 -23 -15 -28 -15 -38 -3 -16 19
-36 19 -44 0 -9 -26 -70 -19 -92 10 -10 14 -29 25 -41 25 -15 0 -28 10 -38 30
-9 17 -31 47 -50 68 -84 91 -87 93 -125 90 l-35 -3 3 75 c2 41 5 76 7 78 7 8
58 -22 110 -65 33 -27 67 -53 75 -56 8 -4 33 -18 55 -32 22 -14 47 -28 55 -32
8 -3 17 -10 20 -14 3 -4 14 -9 25 -11 19 -3 20 2 17 65 l-4 67 28 0 c22 0 44
16 97 73 38 39 75 87 83 105 16 40 80 271 88 323 7 37 20 54 60 74 29 15 27
63 -9 196 l-29 107 27 32 c15 17 27 40 27 50 0 11 14 33 30 50 29 30 40 70 20
70 -18 0 -74 -32 -92 -52 -9 -11 -27 -43 -38 -72 -12 -29 -31 -56 -43 -62 -11
-5 -32 -32 -47 -60 -14 -27 -38 -63 -53 -79 -15 -17 -27 -33 -27 -37 0 -4 -14
-15 -30 -25 -17 -10 -40 -33 -50 -51 -11 -18 -25 -30 -31 -27 -5 4 -19 -1 -30
-11 -21 -19 -6 -32 -149 125 -30 33 -63 60 -73 60 -16 1 -67 92 -67 120 0 6
-24 35 -52 65 -93 96 -128 138 -128 152 0 8 -4 14 -10 14 -5 0 -10 -6 -10 -12z
m166 -394 c-4 -12 -10 -14 -17 -7 -5 5 -7 17 -3 27 4 12 10 14 17 7 5 -5 7
-17 3 -27z m534 -274 c0 -5 -5 -10 -11 -10 -5 0 -7 5 -4 10 3 6 8 10 11 10 2
0 4 -4 4 -10z m-126 -135 c-6 -14 -44 -22 -44 -10 0 4 29 19 47 24 1 1 0 -6
-3 -14z m-345 -117 c27 -28 34 -31 51 -20 18 11 23 8 46 -28 15 -22 33 -40 41
-40 16 0 123 -103 123 -118 0 -36 -50 -17 -93 34 -16 19 -33 34 -39 34 -6 0
-20 7 -30 17 -20 18 -51 37 -88 53 -41 18 -60 41 -60 72 0 36 10 35 49 -4z
m-201 -375 c-5 -44 -28 -40 -28 5 0 21 3 42 7 46 11 11 25 -22 21 -51z m566
-452 c3 -5 0 -14 -8 -20 -10 -9 -15 -8 -19 3 -9 22 15 37 27 17z m-34 -35 c0
-11 -19 -15 -25 -6 -3 5 1 10 9 10 9 0 16 -2 16 -4z"/>
<path d="M587 2870 c-8 -18 -37 -101 -37 -106 0 -2 4 -4 8 -4 17 0 44 65 40
95 -3 20 -6 25 -11 15z"/>
<path d="M1041 2839 c-6 -18 -11 -44 -11 -58 -1 -14 -7 -37 -15 -51 -15 -27
-20 -70 -7 -70 25 1 46 35 53 82 16 114 5 168 -20 97z"/>
<path d="M1346 2834 c-7 -17 15 -64 39 -84 14 -12 18 -12 26 1 5 8 9 26 9 40
0 20 -6 28 -25 33 -14 4 -25 11 -25 16 0 16 -17 12 -24 -6z"/>
<path d="M2818 2819 c-3 -8 -2 -50 2 -94 3 -44 3 -91 -2 -105 -6 -18 -3 -36
12 -65 11 -21 20 -45 20 -52 0 -25 18 -13 25 16 8 35 30 58 40 41 17 -28 -24
-110 -55 -110 -18 0 -45 -25 -157 -147 -27 -28 -33 -43 -33 -77 0 -69 21 -157
39 -163 9 -2 24 -9 33 -14 30 -16 81 -9 133 16 28 14 61 25 75 25 28 0 70 33
89 68 l12 23 26 -25 c23 -23 34 -26 94 -26 44 0 69 4 69 11 0 7 13 9 38 5 82
-14 84 -14 98 28 18 50 59 85 96 83 24 -2 28 -5 22 -22 -12 -39 -16 -85 -6
-85 5 0 22 18 37 40 25 37 27 42 14 71 -7 18 -12 49 -11 69 2 20 -4 55 -13 79
-8 24 -12 54 -9 67 3 12 -2 47 -12 76 -9 29 -17 73 -16 98 1 76 -47 121 -68
64 -6 -15 -8 -41 -4 -59 6 -36 -7 -70 -40 -96 -15 -12 -25 -14 -33 -7 -18 14
-16 63 2 78 8 7 15 9 15 5 0 -4 7 -2 15 5 20 16 19 54 -1 71 -9 7 -29 12 -44
11 -16 -1 -31 2 -35 8 -3 5 -20 10 -36 10 -17 0 -39 5 -50 10 -15 9 -24 6 -44
-14 -14 -14 -31 -23 -39 -20 -18 7 -27 -8 -16 -26 6 -9 30 -15 70 -16 93 -3
101 -23 23 -50 -23 -8 -43 -8 -73 -1 -29 8 -48 8 -73 -1 -48 -17 -81 -15 -102
8 -23 26 -29 25 -43 -5 -18 -39 -32 -30 -32 21 0 26 -7 69 -16 98 -30 90 -30
91 -36 75z m216 -436 c24 -12 34 -23 30 -33 -3 -8 -8 -30 -11 -47 -7 -44 -17
-42 -31 6 -7 21 -19 44 -27 51 -17 14 -20 40 -5 40 5 0 25 -8 44 -17z m86 -8
c0 -8 -4 -15 -10 -15 -5 0 -10 7 -10 15 0 8 5 15 10 15 6 0 10 -7 10 -15z"/>
<path d="M2602 2650 c0 -14 2 -19 5 -12 2 6 2 18 0 25 -3 6 -5 1 -5 -13z"/>
<path d="M2440 2640 c-13 -11 -29 -20 -37 -20 -7 0 -13 -4 -13 -8 0 -4 -19
-27 -41 -51 -43 -44 -69 -109 -104 -259 -22 -91 -12 -101 46 -49 71 63 89 77
99 77 6 0 10 4 10 8 0 4 14 16 31 26 16 10 44 33 61 52 17 19 37 34 44 34 20
0 23 25 10 106 -10 67 -15 81 -36 91 -34 17 -43 16 -70 -7z"/>
<path d="M2630 2536 c0 -22 3 -27 11 -19 8 8 8 16 0 30 -9 16 -10 14 -11 -11z"/>
<path d="M1350 2474 c0 -26 43 -78 54 -66 16 15 4 61 -19 76 -32 21 -35 21
-35 -10z"/>
<path d="M1371 2324 c0 -11 3 -14 6 -6 3 7 2 16 -1 19 -3 4 -6 -2 -5 -13z"/>
<path d="M2385 2181 c-22 -11 -51 -30 -65 -43 -43 -40 -146 -118 -157 -118 -5
0 -22 -11 -37 -25 -15 -14 -42 -27 -59 -29 -35 -4 -42 -23 -15 -39 12 -8 24
-5 50 15 18 14 43 28 56 32 27 9 113 69 154 108 44 42 81 66 108 69 17 3 26
11 28 27 4 27 -10 28 -63 3z"/>
<path d="M3370 2117 c0 -21 12 -28 27 -16 19 16 16 29 -7 29 -11 0 -20 -6 -20
-13z"/>
<path d="M3270 2080 c-14 -11 -41 -20 -62 -20 -31 0 -39 -5 -58 -37 -12 -21
-28 -42 -36 -46 -10 -6 -14 -30 -14 -91 l0 -84 38 -6 c125 -20 131 -20 137 5
18 78 20 108 13 143 -7 29 -5 43 5 55 24 26 48 81 42 91 -10 16 -38 11 -65
-10z"/>
<path d="M540 2053 c0 -15 5 -46 10 -68 5 -22 10 -70 12 -107 3 -74 18 -94 18
-25 1 60 19 80 64 72 28 -6 36 -4 36 7 0 19 -20 38 -40 38 -9 0 -31 22 -49 50
-40 62 -51 69 -51 33z"/>
<path d="M970 1883 c0 -108 8 -142 29 -129 14 9 15 163 0 205 -20 57 -29 33
-29 -76z"/>
<path d="M2996 1940 c-10 -33 -17 -180 -8 -180 20 0 40 147 24 176 -9 16 -12
16 -16 4z"/>
<path d="M542 1718 c-6 -24 -17 -61 -25 -83 -13 -33 -13 -45 -2 -75 7 -19 16
-53 20 -75 16 -96 114 -396 132 -402 6 -2 35 19 64 46 59 56 72 54 73 -6 1
-42 12 -66 26 -58 5 3 18 -3 30 -15 11 -11 25 -20 30 -20 6 0 10 -4 10 -9 0
-5 16 -16 35 -25 23 -11 37 -26 41 -44 3 -15 8 -35 11 -46 6 -21 43 -81 73
-115 24 -29 26 -65 5 -105 -8 -15 -15 -39 -15 -53 0 -31 -17 -63 -34 -63 -18
0 -36 44 -36 88 0 47 -37 132 -49 113 -5 -8 1 -40 15 -79 13 -37 24 -81 24
-98 0 -21 9 -40 26 -55 14 -13 38 -36 54 -51 16 -16 31 -28 34 -28 3 0 26 -20
51 -44 25 -24 66 -53 90 -66 24 -12 52 -30 63 -39 23 -20 51 -39 78 -50 11 -5
28 -21 37 -35 10 -14 26 -26 37 -26 10 0 21 -4 24 -9 10 -16 113 -26 156 -16
21 5 27 1 40 -27 18 -40 39 -46 210 -56 84 -5 127 -4 132 3 4 5 8 27 8 48 0
26 4 37 15 37 8 0 15 4 15 9 0 4 19 11 41 14 29 4 52 16 76 39 27 26 36 30 43
19 7 -12 13 -12 40 -1 28 12 33 11 42 -3 5 -11 22 -17 41 -17 26 0 37 7 50 30
10 17 25 30 33 30 18 0 18 -7 -2 -61 -20 -58 -12 -109 19 -109 12 0 31 11 41
25 15 20 28 25 60 25 23 0 46 4 52 8 5 5 27 14 49 21 25 8 47 23 56 39 8 15
34 36 57 47 23 11 42 23 42 28 0 4 7 7 15 7 8 0 15 5 15 10 0 6 5 10 11 10 6
0 23 12 38 27 15 16 52 48 82 73 101 84 140 129 137 158 -3 24 -7 27 -40 26
-34 -1 -45 6 -133 92 -53 52 -100 94 -104 94 -5 0 -14 -7 -21 -15 -17 -21 -70
-18 -100 5 -14 11 -30 20 -37 20 -7 0 -32 11 -57 25 -25 14 -53 25 -64 25 -10
0 -28 9 -40 20 -12 11 -28 20 -36 20 -8 0 -18 5 -21 10 -3 6 -17 10 -29 10
-13 0 -34 11 -47 24 -13 13 -33 25 -43 27 -11 2 -31 24 -46 48 -14 25 -31 46
-37 48 -6 2 -22 -14 -35 -36 -13 -23 -27 -41 -31 -41 -14 0 -71 -64 -109 -121
-40 -61 -52 -69 -103 -69 -18 0 -38 -7 -45 -15 -14 -17 -50 -20 -50 -5 0 6
-19 10 -42 10 -27 0 -52 8 -68 20 -45 35 -70 22 -70 -37 0 -20 -47 -122 -129
-278 -42 -80 -105 -177 -109 -166 -7 20 19 109 38 131 11 12 31 54 46 93 14
40 38 99 51 132 14 33 36 89 50 125 13 36 29 69 34 74 5 6 9 17 9 25 0 13 -15
16 -82 17 -95 1 -142 10 -159 30 -6 8 -22 14 -34 14 -18 0 -26 -8 -34 -33 -13
-39 -53 -77 -81 -77 -11 0 -26 -12 -34 -27 -19 -35 -61 -75 -70 -66 -26 27 21
168 57 168 8 0 24 8 34 18 11 9 29 17 41 17 30 0 29 37 -1 81 -17 24 -30 33
-46 31 -13 -1 -35 7 -51 18 -40 29 -55 8 -46 -65 4 -35 2 -55 -4 -55 -5 0 -10
5 -10 12 0 6 -15 33 -32 60 -32 47 -34 48 -73 43 -81 -11 -148 35 -72 49 19 4
46 15 60 26 21 17 41 20 115 20 50 0 94 5 97 10 3 6 27 10 52 10 25 0 63 5 85
12 50 15 56 40 33 132 -23 90 -35 116 -52 116 -7 0 -13 5 -13 11 0 14 -85 99
-99 99 -6 0 -11 5 -11 10 0 6 -7 10 -17 10 -9 0 -31 11 -49 25 -18 14 -37 25
-43 25 -6 0 -23 -24 -38 -52 l-27 -53 -13 44 c-13 44 -38 81 -56 81 -5 0 -22
-10 -39 -21 -23 -16 -32 -19 -38 -9 -4 6 -34 15 -67 19 -36 4 -67 14 -78 24
-11 12 -24 15 -39 11 -40 -13 -89 -53 -102 -84 -12 -28 -15 -29 -34 -18 -17
11 -20 23 -20 80 0 77 -13 89 -28 26z m448 -298 c0 -5 -5 -10 -11 -10 -5 0 -7
5 -4 10 3 6 8 10 11 10 2 0 4 -4 4 -10z m-293 -36 c-3 -3 -12 -4 -19 -1 -8 3
-5 6 6 6 11 1 17 -2 13 -5z m328 -3 c3 -5 1 -12 -5 -16 -5 -3 -10 1 -10 9 0
18 6 21 15 7z m12 -63 c-3 -8 -6 -5 -6 6 -1 11 2 17 5 13 3 -3 4 -12 1 -19z
m383 -427 c0 -12 -29 -35 -36 -28 -11 10 5 37 21 37 8 0 15 -4 15 -9z m720
-121 c18 -41 57 -126 87 -187 58 -122 78 -203 50 -203 -10 0 -27 21 -41 49
-14 26 -34 51 -44 53 -14 4 -21 18 -25 51 -6 43 -55 145 -84 175 -7 7 -18 31
-24 53 -11 34 -10 45 5 76 21 45 29 38 76 -67z m530 -89 c-31 -59 -120 -125
-120 -90 0 17 43 89 53 89 5 0 20 9 35 20 19 15 27 17 33 8 4 -6 4 -19 -1 -27z
m-1420 9 c0 -5 -5 -10 -11 -10 -5 0 -7 5 -4 10 3 6 8 10 11 10 2 0 4 -4 4 -10z
m91 -110 c31 -25 12 -26 -21 0 -14 11 -20 20 -14 20 7 0 22 -9 35 -20z m563
-83 c41 -60 32 -75 -16 -32 -27 23 -36 54 -21 68 8 8 6 10 37 -36z m-174 -60
c-1 -15 -46 -67 -59 -67 -15 0 -29 30 -24 50 2 9 19 21 36 26 36 11 47 9 47
-9z m770 -11 c0 -16 -30 -50 -37 -42 -5 4 26 56 33 56 2 0 4 -6 4 -14z"/>
<path d="M3300 1725 c-7 -8 -25 -15 -41 -15 -15 0 -31 -4 -34 -10 -3 -5 -19
-10 -35 -10 -16 0 -32 -4 -35 -10 -3 -5 -30 -10 -59 -10 -46 0 -56 -4 -84 -33
-18 -18 -32 -38 -32 -44 0 -6 -6 -16 -13 -22 -11 -8 -18 -6 -32 9 -18 20 -45
27 -45 13 0 -9 -48 -33 -64 -33 -6 0 -29 -16 -50 -34 -21 -19 -58 -44 -82 -56
-40 -21 -44 -27 -64 -99 -33 -115 -33 -115 -13 -137 12 -15 35 -23 73 -27 30
-3 80 -12 110 -18 61 -13 99 -14 148 -4 21 5 38 3 48 -6 9 -7 39 -17 67 -21
29 -5 66 -11 82 -14 25 -4 33 0 50 25 11 17 23 31 26 31 4 0 13 -15 20 -32 19
-45 77 -108 101 -108 24 0 52 60 82 180 12 49 28 95 34 103 7 8 15 43 18 78 3
35 16 89 29 119 26 61 25 89 -6 108 -28 18 -53 7 -80 -33 -13 -19 -29 -35 -35
-35 -5 0 -20 -9 -33 -21 -30 -28 -36 -18 -25 39 7 37 13 47 28 45 56 -4 85 37
49 69 -28 24 -88 31 -103 13z m-254 -309 c3 -7 -6 -30 -20 -51 l-26 -38 0 36
c0 19 3 42 6 51 8 20 33 21 40 2z m214 -26 c0 -5 -4 -10 -10 -10 -5 0 -10 5
-10 10 0 6 5 10 10 10 6 0 10 -4 10 -10z"/>
<path d="M2500 1665 c-7 -14 -19 -25 -25 -25 -33 0 -125 -138 -125 -187 0 -36
25 -27 45 16 26 58 78 111 108 111 22 0 27 6 32 34 7 35 -1 76 -14 76 -4 0
-14 -11 -21 -25z"/>
<path d="M1511 1166 c-16 -19 6 -66 29 -66 24 0 31 34 13 59 -17 25 -26 26
-42 7z"/>
<path d="M1590 1140 c0 -11 7 -20 15 -20 8 0 15 9 15 20 0 11 -7 20 -15 20 -8
0 -15 -9 -15 -20z"/>
<path d="M2985 1083 c-11 -3 -30 -16 -41 -29 -12 -13 -28 -24 -36 -24 -8 0
-18 -4 -23 -9 -20 -19 -54 -16 -78 7 -22 21 -27 22 -46 10 -12 -7 -21 -17 -21
-21 0 -5 -13 -22 -30 -37 l-30 -28 47 -38 c26 -22 52 -38 56 -36 5 1 16 -3 23
-9 11 -9 18 -9 26 -1 7 7 22 12 34 12 13 0 26 5 29 10 7 11 77 13 113 4 15 -4
22 -14 22 -29 0 -62 23 -70 61 -20 23 30 25 42 24 125 l0 92 -40 14 c-41 14
-55 15 -90 7z"/>
</g>
</svg>
